<?xml version="1.0" encoding="UTF-8" standalone="no"?>
<svg
   width="2000"
   zoomAndPan="magnify"
   viewBox="0 0 1500 1499.9999"
   height="2000"
   preserveAspectRatio="xMidYMid"
   version="1.0"
   id="svg136"
   xmlns="http://www.w3.org/2000/svg"
   xmlns:svg="http://www.w3.org/2000/svg">
  <defs
     id="defs1" />
  <g
     id="g137">
    <g
       fill="#111111"
       fill-opacity="1"
       id="g4"
       transform="translate(0,45)">
      <g
         transform="translate(31.939777,599.99993)"
         id="g3">
        <g
           id="g2">
          <path
             d="M 83.703125,4.5 C 71.097656,4.5 61.945312,2.703125 56.25,-0.890625 c -5.699219,-3.601563 -8.546875,-8.40625 -8.546875,-14.40625 0,-6 -0.679687,-13.875 -2.03125,-23.625 -1.34375,-9.75 -2.46875,-17.472656 -3.375,-23.171875 C 41.097656,-69.894531 39.445312,-80.617188 37.34375,-94.265625 35.25,-107.92188 32.925781,-123.14844 30.375,-139.95312 c -2.554688,-16.80079 -5.105469,-33.89844 -7.65625,-51.29688 -2.542969,-17.39453 -4.9375,-33.59375 -7.1875,-48.59375 -2.25,-15 -4.203125,-27.67578 -5.859375,-38.03125 C 8.023438,-288.22656 6.75,-294.60156 5.84375,-297 4.945312,-300.30078 4.5,-303.14844 4.5,-305.54687 c 0,-4.19532 1.347656,-7.64454 4.046875,-10.34375 2.695313,-2.70704 7.195313,-4.0625 13.5,-4.0625 8.40625,0 15.082031,0.98046 20.03125,2.9375 4.945313,1.94921 8.472656,6.52343 10.578125,13.71875 1.5,4.80468 3.75,13.88281 6.75,27.23437 3,13.34375 5.546875,27.36719 7.640625,42.0625 2.101563,13.80469 4.28125,28.13281 6.53125,42.98438 2.25,14.84375 4.195313,28.26562 5.84375,40.26562 1.65625,12 2.628906,21.15234 2.921875,27.45312 0.601562,8.09375 2.554688,12.14063 5.859375,12.14063 3.59375,0 5.539063,-4.04688 5.84375,-12.14063 0.601563,-6.30078 1.65625,-15.37499 3.15625,-27.21874 1.5,-11.85157 3.375005,-25.05469 5.625005,-39.60938 2.25,-14.55078 4.42187,-28.72656 6.51562,-42.53125 2.40625,-14.69531 4.12891,-26.69141 5.17188,-35.98437 1.05078,-9.30079 2.17968,-16.35157 3.39062,-21.15625 2.39453,-7.80079 5.69141,-12.52344 9.89063,-14.17188 4.19531,-1.65625 10.79687,-2.48437 19.79687,-2.48437 8.40625,0 15.15625,0.98046 20.25,2.9375 5.10156,1.94921 8.70703,6.52343 10.8125,13.71875 1.5,4.80468 2.76953,11.85546 3.8125,21.15625 1.05078,9.29296 2.62891,21.28906 4.73437,35.98437 2.09375,13.80469 4.26563,27.98047 6.51563,42.53125 2.25,14.55469 4.19531,27.75781 5.84375,39.60938 1.65625,11.84375 2.63281,20.91796 2.9375,27.21874 0.60156,8.09375 2.55078,12.14063 5.84375,12.14063 3.60156,0 5.55469,-4.04688 5.85937,-12.14063 0.59375,-6.30078 1.56641,-15.45312 2.92188,-27.45312 1.35156,-12 3.07812,-25.42187 5.17187,-40.26562 2.10157,-14.85157 4.50391,-29.17969 7.20313,-42.98438 3,-14.69531 6,-28.71875 9,-42.0625 3,-13.35156 5.09766,-22.42969 6.29687,-27.23437 2.10157,-7.19532 5.47657,-11.76954 10.125,-13.71875 4.65625,-1.95704 11.17969,-2.9375 19.57813,-2.9375 6.30078,0 10.80078,1.35546 13.5,4.0625 2.69531,2.69921 4.04687,6.14843 4.04687,10.34375 0,2.39843 -0.44921,5.24609 -1.34375,8.54687 -0.60546,2.39844 -1.80859,8.77344 -3.60937,19.125 -1.79297,10.35547 -3.8125,23.03125 -6.0625,38.03125 -2.25,15 -4.65234,31.19922 -7.20313,48.59375 -2.55468,17.39844 -5.10546,34.49609 -7.65625,51.29688 -2.55468,16.80468 -4.88281,32.03124 -6.98437,45.687495 -2.09375,13.648437 -3.74219,24.371094 -4.9375,32.171875 -0.89844,5.699219 -2.02344,13.421875 -3.375,23.171875 -1.35547,9.75 -2.03125,17.625 -2.03125,23.625 0,6 -2.85156,10.804687 -8.54688,14.40625 C 234.59766,2.703125 225.44531,4.5 212.84375,4.5 c -10.19922,0 -18.75,-1.796875 -25.65625,-5.390625 -6.89844,-3.601563 -10.34375,-8.40625 -10.34375,-14.40625 0,-6 -0.67969,-13.875 -2.03125,-23.625 -1.34375,-9.75 -2.46484,-17.472656 -3.35938,-23.171875 -0.60546,-4.207031 -1.58593,-11.632812 -2.9375,-22.28125 -1.34375,-10.644531 -2.84375,-22.64453 -4.5,-36 -1.64843,-13.35156 -3.37109,-26.32812 -5.17187,-38.92187 -1.79297,-12.60157 -3.58984,-23.03125 -5.39063,-31.28125 -1.80468,-8.25 -3.45312,-12.375 -4.95312,-12.375 -1.80469,0 -3.67969,4.125 -5.625,12.375 -1.94922,8.25 -3.82422,18.67968 -5.625,31.28125 -1.80469,12.59375 -3.53125,25.57031 -5.1875,38.92187 -1.64844,13.35547 -3.07031,25.355469 -4.26562,36 -1.19922,10.648438 -2.10157,18.074219 -2.70313,22.28125 -0.89844,5.699219 -2.02344,13.421875 -3.375,23.171875 -1.34375,9.75 -2.01562,17.625 -2.01562,23.625 0,6 -2.85547,10.804687 -8.5625,14.40625 C 105.44141,2.703125 96.296875,4.5 83.703125,4.5 Z m 0,0"
             id="path2" />
        </g>
      </g>
    </g>
    <g
       fill="#111111"
       fill-opacity="1"
       id="g7"
       transform="translate(0,45)">
      <g
         transform="translate(328.48929,599.99993)"
         id="g6">
        <g
           id="g5">
          <path
             d="m 97.65625,3.15625 c -16.210938,0 -30.617188,-6.523438 -43.21875,-19.578125 -12.59375,-13.050781 -22.570312,-31.875 -29.921875,-56.46875 C 17.171875,-97.492188 13.5,-126.89453 13.5,-161.09375 c 0,-32.10156 3.523438,-60.07812 10.578125,-83.92187 7.050781,-23.85157 16.953125,-42.45313 29.703125,-55.79688 12.75,-13.35156 27.375,-20.03125 43.875,-20.03125 12.59375,0 24.0625,3.90234 34.40625,11.70313 10.35156,7.79296 19.28125,18.74218 26.78125,32.84375 7.20703,13.80468 12.83203,30.45312 16.875,49.95312 4.05078,19.5 6.07812,41.25 6.07812,65.25 0,34.19922 -3.60156,63.601562 -10.79687,88.203125 -7.19922,24.59375 -17.17188,43.417969 -29.92188,56.46875 -12.75,13.054687 -27.22656,19.578125 -43.42187,19.578125 z m 0,-40.953125 c 8.09375,0 15.14063,-5.320313 21.14063,-15.96875 6,-10.65625 10.72265,-25.582031 14.17187,-44.78125 3.45703,-19.195315 5.1875,-41.398435 5.1875,-66.609375 0,-20.09375 -1.27734,-38.08594 -3.82813,-53.98437 -2.55468,-15.90625 -6.38281,-28.80469 -11.48437,-38.70313 -7.19922,-14.70703 -15.59375,-22.0625 -25.1875,-22.0625 -8.105469,0 -15.234375,4.80469 -21.390625,14.40625 -6.148437,9.60547 -10.871094,23.03125 -14.171875,40.28125 -3.292969,17.25 -4.9375,37.27344 -4.9375,60.0625 0,25.21094 1.644531,47.41406 4.9375,66.609375 3.300781,19.199219 8.023438,34.125 14.171875,44.78125 6.15625,10.648437 13.285156,15.96875 21.390625,15.96875 z m 0,0"
             id="path4" />
        </g>
      </g>
    </g>
    <g
       fill="#111111"
       fill-opacity="1"
       id="g10"
       transform="translate(0,45)">
      <g
         transform="translate(523.78895,599.99993)"
         id="g9">
        <g
           id="g8">
          <path
             d="m 139.5,4.953125 c -3,0 -5.40234,-0.304687 -7.20313,-0.90625 C 126.59766,1.953125 121.5,-1.414062 117,-6.0625 112.5,-10.71875 107.69531,-17.25 102.59375,-25.65625 96.894531,-34.945312 90.671875,-46.191406 83.921875,-59.390625 77.171875,-72.597656 72.445312,-84.898438 69.75,-96.296875 c -0.605469,-3 -2.105469,-4.500005 -4.5,-4.500005 -1.5,0 -2.554688,0.902349 -3.15625,2.70313 -1.199219,3.898438 -1.796875,11.695312 -1.796875,23.390625 0,2.699219 0,5.699219 0,9 0,3.304687 0.148437,7.054687 0.453125,11.25 0.300781,3.90625 0.453125,8.335937 0.453125,13.28125 0,4.949219 0,9.296875 0,13.046875 0,3.75 0,5.625 0,5.625 0,7.5 -1.125,13.804688 -3.375,18.90625 -2.25,5.089844 -8.929687,7.640625 -20.03125,7.640625 -8.699219,0 -14.699219,-2.550781 -18,-7.640625 C 16.492188,-8.695312 14.84375,-15 14.84375,-22.5 c 0,0 0,-1.875 0,-5.625 0,-3.75 0.07031,-8.097656 0.21875,-13.046875 0.15625,-4.945313 0.234375,-9.375 0.234375,-13.28125 0.300781,-13.5 0.523437,-26.394531 0.671875,-38.6875 0.15625,-12.300785 0.234375,-24.304685 0.234375,-36.015625 0,-17.69531 -0.07813,-35.39453 -0.234375,-53.09375 -0.148438,-17.69531 -0.371094,-36.59766 -0.671875,-56.70312 0,-7.19532 -0.304687,-14.99219 -0.90625,-23.39063 C 13.796875,-270.75 13.5,-278.85156 13.5,-286.65625 c 0,-14.09375 4.875,-23.61328 14.625,-28.5625 9.75,-4.95703 23.175781,-7.4375 40.28125,-7.4375 12.59375,0 23.460938,3.23047 32.60938,9.6875 9.15625,6.44922 16.80468,14.77344 22.95312,24.96875 6.15625,10.19922 11.03125,21.15234 14.625,32.85938 3.60156,11.69921 6.15625,22.87109 7.65625,33.51562 1.5,10.64844 2.25,19.57422 2.25,26.78125 0,17.09375 -2.10156,31.04297 -6.29688,41.84375 -4.19921,10.80469 -8.69921,18.45313 -13.5,22.95313 -3.60546,2.99999 -6.98437,5.77734 -10.14062,8.32812 -3.14844,2.54297 -6.21875,4.5625 -9.21875,6.0625 2.40625,10.21094 5.62891,20.5625 9.67188,31.0625 4.05078,10.5 8.78125,20.101562 14.18749,28.796875 6.89454,11.09375 12.36719,19.34375 16.42188,24.75 4.05078,5.398437 6.97266,9.523437 8.76562,12.375 1.80079,2.84375 2.70313,6.070313 2.70313,9.671875 0,5.398438 -2.55469,9.0664062 -7.65625,11.015625 -5.09375,1.957031 -9.74219,2.9375 -13.9375,2.9375 z M 79.203125,-157.95312 c 7.5,0 13.5,-4.72266 18,-14.17188 4.500005,-9.44531 6.750005,-21.97266 6.750005,-37.57812 0,-13.5 -1.65235,-25.72266 -4.95313,-36.67188 -3.304688,-10.94531 -7.429688,-19.64453 -12.375,-26.09375 -4.949219,-6.45703 -10.273438,-9.6875 -15.96875,-9.6875 -5.40625,0 -8.636719,2.625 -9.6875,7.875 -1.042969,5.25 -1.417969,13.42969 -1.125,24.53125 v 71.09375 c 0,6 1.5,10.95313 4.5,14.85938 3,3.89843 7.953125,5.84375 14.859375,5.84375 z m 0,0"
             id="path7" />
        </g>
      </g>
    </g>
    <g
       fill="#111111"
       fill-opacity="1"
       id="g13"
       transform="translate(0,45)">
      <g
         transform="translate(685.78865,599.99993)"
         id="g12">
        <g
           id="g11">
          <path
             d="m 70.203125,3.59375 c -8.105469,0 -14.335937,-0.152344 -18.6875,-0.453125 C 47.171875,2.847656 41.550781,1.648438 34.65625,-0.453125 28.050781,-2.546875 23.097656,-4.867188 19.796875,-7.421875 16.492188,-9.972656 14.84375,-15 14.84375,-22.5 c 0,0 0,-1.875 0,-5.625 0,-3.75 0.07031,-8.097656 0.21875,-13.046875 0.15625,-4.945313 0.234375,-9.375 0.234375,-13.28125 0.300781,-13.5 0.523437,-26.394531 0.671875,-38.6875 0.15625,-12.300785 0.234375,-24.304685 0.234375,-36.015625 0,-17.69531 -0.07813,-35.39453 -0.234375,-53.09375 -0.148438,-17.69531 -0.371094,-36.59766 -0.671875,-56.70312 0,-7.19532 -0.304687,-14.99219 -0.90625,-23.39063 C 13.796875,-270.75 13.5,-278.85156 13.5,-286.65625 c 0,-11.09375 2.171875,-19.1875 6.515625,-24.28125 4.351563,-5.10156 10.65625,-8.33203 18.90625,-9.6875 8.25,-1.35156 18.078125,-2.03125 29.484375,-2.03125 16.195312,0 30.519531,5.40234 42.96875,16.20313 12.44531,10.80468 22.94531,25.05468 31.5,42.75 8.55078,17.69921 15,36.97656 19.34375,57.82812 4.35156,20.85547 6.53125,41.32813 6.53125,61.42188 0,17.99999 -1.57813,35.77734 -4.73438,53.32812 -3.14843,17.554688 -8.39843,33.453125 -15.75,47.703125 -7.34375,14.25 -17.39062,25.652344 -30.14062,34.203125 -12.75,8.542969 -28.726562,12.8125 -47.921875,12.8125 z m 9,-43.1875 c 13.800781,0 24.898435,-9.375 33.296875,-28.125 8.39453,-18.75 12.59375,-43.57813 12.59375,-74.48437 0,-28.5 -3,-53.17188 -9,-74.01563 -6,-20.85156 -13.19922,-37.05469 -21.59375,-48.60937 -8.398438,-11.55079 -16.199219,-17.32813 -23.40625,-17.32813 -5.699219,0 -9.074219,2.625 -10.125,7.875 -1.042969,5.25 -1.5625,13.42969 -1.5625,24.53125 v 189.453125 c 0,6 1.570312,10.953125 4.71875,14.859375 3.144531,3.898438 8.171875,5.84375 15.078125,5.84375 z m 0,0"
             id="path10" />
        </g>
      </g>
    </g>
  </g>
  <g
     fill="#111111"
     fill-opacity="1"
     id="g16">
    <g
       transform="translate(31.939777,1027.4999)"
       id="g15">
      <g
         id="g14">
        <path
           d="M 40.953125,4.5 C 35.253906,4.5 29.476562,3.070312 23.625,0.21875 17.769531,-2.625 14.84375,-9.144531 14.84375,-19.34375 c 0,0 0,-1.875 0,-5.625 0,-3.75 0.07031,-8.097656 0.21875,-13.046875 0.15625,-4.957031 0.234375,-9.382813 0.234375,-13.28125 0.300781,-13.5 0.523437,-26.921875 0.671875,-40.265625 0.15625,-13.35156 0.234375,-25.88281 0.234375,-37.59375 0,-17.69531 -0.07813,-35.39453 -0.234375,-53.09375 -0.148438,-17.69531 -0.371094,-36.59766 -0.671875,-56.70312 0,-7.19532 -0.304687,-14.99219 -0.90625,-23.39063 C 13.796875,-270.75 13.5,-278.85156 13.5,-286.65625 c 0,-7.78906 1.046875,-14.91016 3.140625,-21.35937 2.101563,-6.45704 6.753906,-9.83594 13.953125,-10.14063 3.601562,0 9.679688,0.0781 18.234375,0.23438 8.550781,0.14843 17.773437,0.37109 27.671875,0.67187 9.894531,0.30469 18.894531,0.53125 27,0.6875 8.10156,0.14844 13.50391,0.21875 16.20313,0.21875 5.69531,0 10.19531,1.72656 13.49999,5.17188 3.30079,3.44921 4.95313,6.97656 4.95313,10.57812 0,7.19922 -2.02734,12.60156 -6.07813,16.20313 -4.05468,3.59375 -9.23046,6.07031 -15.53124,7.42187 -6.30469,1.34375 -12.60157,2.01563 -18.89063,2.01563 -6.90625,0 -13.359375,-0.0703 -19.359375,-0.21875 -6,-0.15625 -10.726563,0.89062 -14.171875,3.14062 -3.449219,2.25 -5.171875,6.98047 -5.171875,14.1875 0,4.19922 0.07031,10.42188 0.21875,18.67188 0.15625,8.25 0.234375,17.02734 0.234375,26.32812 0,9.29297 0.07031,17.76563 0.21875,25.42188 0.144531,7.64843 0.21875,13.12109 0.21875,16.42187 0,6.60547 1.195312,10.88281 3.59375,12.82813 2.40625,1.94921 5.707031,2.92187 9.90625,2.92187 6,0 12.375,0.60156 19.125,1.79688 6.75,1.19921 12.59766,3.375 17.54688,6.53125 4.95703,3.14843 7.4375,8.02343 7.4375,14.625 0,4.19921 -2.02735,7.42187 -6.07813,9.67187 -4.05469,2.25 -8.92969,3.82812 -14.625,4.73437 -5.699219,0.89844 -11.101562,1.42188 -16.203125,1.57813 -5.09375,0.14844 -8.84375,0.21875 -11.25,0.21875 -3,0 -5.703125,1.27734 -8.109375,3.82812 -2.398438,2.54297 -3.59375,5.61719 -3.59375,9.21875 v 47.70313 c 0,7.792969 2.625,12.140625 7.875,13.046875 5.25,0.898437 12.828125,1.34375 22.734375,1.34375 6.59375,0 13.789065,0.453125 21.593755,1.359375 7.80078,0.898438 14.55078,3.21875 20.24999,6.96875 5.69532,3.75 8.54688,9.679688 8.54688,17.78125 0,4.199219 -3,7.273438 -9,9.21875 -6,1.949219 -13.42969,3.226562 -22.28125,3.828125 C 98.46875,-1.203125 89.394531,-0.601562 80.09375,0 71.09375,0.300781 62.914062,1.125 55.5625,2.46875 48.21875,3.820312 43.347656,4.5 40.953125,4.5 Z m 0,0"
           id="path13" />
      </g>
    </g>
  </g>
  <g
     fill="#111111"
     fill-opacity="1"
     id="g19">
    <g
       transform="translate(184.03947,1027.4999)"
       id="g18">
      <g
         id="g17">
        <path
           d="m 35.546875,3.59375 c -2.699219,0 -6.148437,-0.527344 -10.34375,-1.578125 -4.199219,-1.042969 -7.949219,-2.757813 -11.25,-5.15625 C 10.648438,-5.546875 9,-8.695312 9,-12.59375 c 0,-1.5 0.148438,-3 0.453125,-4.5 0.300781,-1.5 1.203125,-4.050781 2.703125,-7.65625 v -0.453125 l 0.4375,-1.34375 15.3125,-35.109375 36,-72.4375 c 2.394531,-4.5 3.96875,-8.69531 4.71875,-12.59375 0.75,-3.90625 1.125,-7.95703 1.125,-12.15625 0,-7.20703 -1.351562,-14.85937 -4.046875,-22.95312 -4.199219,-12 -8.777344,-24.375 -13.734375,-37.125 -4.949219,-12.75 -9.75,-24.82032 -14.40625,-36.21875 -4.648438,-11.40625 -8.621094,-21.00782 -11.921875,-28.8125 -3.292969,-7.80079 -5.539063,-12.75 -6.734375,-14.84375 -1.210938,-2.10157 -1.8125,-4.35157 -1.8125,-6.75 0,-3.90625 1.425781,-7.35938 4.28125,-10.35938 2.851562,-3 6.675781,-4.5 11.46875,-4.5 6.90625,0 12.609375,0.60547 17.109375,1.8125 4.5,1.19922 8.695313,4.34375 12.59375,9.4375 L 92.25,-225.45312 c 1.800781,5.69921 4.800781,8.54687 9,8.54687 4.19531,0 7.19531,-2.84766 9,-8.54687 l 29.70312,-83.70313 c 4.19532,-5.09375 8.46875,-8.23828 12.8125,-9.4375 4.35157,-1.20703 9.98438,-1.8125 16.89063,-1.8125 4.78906,0 8.61328,1.5 11.46875,4.5 2.85156,3 4.28125,6.45313 4.28125,10.35938 0,2.39843 -0.60547,4.64843 -1.8125,6.75 -1.19922,2.09375 -3.44922,7.04296 -6.75,14.84375 -3.29297,7.80468 -7.26563,17.40625 -11.92188,28.8125 -4.64843,11.39843 -9.44921,23.46875 -14.40625,36.21875 -4.94921,12.75 -9.52343,25.125 -13.71875,37.125 -2.69921,8.09375 -4.04687,15.74609 -4.04687,22.95312 0,4.19922 0.44531,8.25 1.34375,12.15625 0.90625,3.89844 2.40625,8.09375 4.5,12.59375 l 36,72.4375 15.3125,35.109375 0.4375,1.34375 V -24.75 c 1.5,3.605469 2.39844,6.15625 2.70312,7.65625 0.30079,1.5 0.45313,3 0.45313,4.5 0,3.898438 -1.65234,7.046875 -4.95313,9.453125 -3.30468,2.398437 -7.05468,4.113281 -11.25,5.15625 -4.19921,1.050781 -7.64843,1.578125 -10.34375,1.578125 -7.19921,0 -12.60156,-2.023438 -16.20312,-6.0625 -3.60547,-4.050781 -6.45313,-8.175781 -8.54688,-12.375 -1.19921,-2.707031 -3.52734,-8.484375 -6.98437,-17.328125 -3.44922,-8.851563 -7.35156,-18.53125 -11.70312,-29.03125 -4.34375,-10.5 -8.61719,-19.796875 -12.8125,-27.890625 -2.40625,-5.101562 -5.5586,-7.65625 -9.45313,-7.65625 -3.605469,0 -6.757812,2.554688 -9.453125,7.65625 -4.199219,8.09375 -8.476563,17.390625 -12.828125,27.890625 -4.34375,10.5 -8.167969,20.179687 -11.46875,29.03125 -3.304688,8.84375 -5.703125,14.621094 -7.203125,17.328125 -2.09375,4.199219 -4.945313,8.324219 -8.546875,12.375 -3.605469,4.039062 -9.007812,6.0625 -16.203125,6.0625 z m 0,0"
           id="path16" />
      </g>
    </g>
  </g>
  <g
     fill="#111111"
     fill-opacity="1"
     id="g22">
    <g
       transform="translate(386.53913,1027.4999)"
       id="g21">
      <g
         id="g20">
        <path
           d="m 37.796875,4.046875 c -8.699219,0 -14.699219,-2.550781 -18,-7.640625 C 16.492188,-8.695312 14.84375,-15 14.84375,-22.5 c 0,0 0,-1.875 0,-5.625 0,-3.75 0.07031,-8.097656 0.21875,-13.046875 0.15625,-4.945313 0.234375,-9.375 0.234375,-13.28125 0.300781,-13.5 0.523437,-26.394531 0.671875,-38.6875 0.15625,-12.300785 0.234375,-24.304685 0.234375,-36.015625 0,-17.69531 -0.07813,-35.39453 -0.234375,-53.09375 -0.148438,-17.69531 -0.371094,-36.59766 -0.671875,-56.70312 0,-7.19532 -0.304687,-16.11719 -0.90625,-26.76563 C 13.796875,-276.375 13.5,-285.60156 13.5,-293.40625 c 0,-9.59375 2.171875,-16.41406 6.515625,-20.46875 4.351563,-4.05078 10.65625,-6.52344 18.90625,-7.42187 8.25,-0.90625 18.078125,-1.35938 29.484375,-1.35938 15.894531,0 29.015625,3.98047 39.35938,11.9375 10.35156,7.94922 18.45312,18.375 24.29687,31.28125 5.85156,12.89844 10.05469,26.77344 12.60937,41.625 2.55079,14.84375 3.82813,29.16797 3.82813,42.96875 0,27.29297 -6.60156,48.8125 -19.79688,64.5625 -13.19921,15.75 -30.29687,23.625 -51.29687,23.625 -4.804688,0.30469 -8.78125,0.98047 -11.9375,2.03125 -3.148438,1.05469 -4.71875,5.328125 -4.71875,12.828125 V -22.5 c 0,7.5 -1.652344,13.804688 -4.953125,18.90625 -3.304687,5.089844 -9.304687,7.640625 -18,7.640625 z m 41.40625,-161.999995 c 7.5,0 13.5,-4.72266 18,-14.17188 4.500005,-9.44531 6.750005,-21.97266 6.750005,-37.57812 0,-13.5 -1.65235,-25.72266 -4.95313,-36.67188 -3.304688,-10.94531 -7.429688,-19.64453 -12.375,-26.09375 -4.949219,-6.45703 -10.273438,-9.6875 -15.96875,-9.6875 -5.40625,0 -8.636719,2.625 -9.6875,7.875 -1.042969,5.25 -1.5625,13.42969 -1.5625,24.53125 l 0.4375,71.09375 c 0,6 1.5,10.95313 4.5,14.85938 3,3.89843 7.953125,5.84375 14.859375,5.84375 z m 0,0"
           id="path19" />
      </g>
    </g>
  </g>
  <g
     fill="#111111"
     fill-opacity="1"
     id="g25">
    <g
       transform="translate(552.58891,1027.4999)"
       id="g24">
      <g
         id="g23">
        <path
           d="M 40.953125,4.5 C 35.253906,4.5 29.476562,3.070312 23.625,0.21875 17.769531,-2.625 14.84375,-9.144531 14.84375,-19.34375 c 0,0 0,-1.875 0,-5.625 0,-3.75 0.07031,-8.097656 0.21875,-13.046875 0.15625,-4.957031 0.234375,-9.382813 0.234375,-13.28125 0.300781,-13.5 0.523437,-26.921875 0.671875,-40.265625 0.15625,-13.35156 0.234375,-25.88281 0.234375,-37.59375 0,-17.69531 -0.07813,-35.39453 -0.234375,-53.09375 -0.148438,-17.69531 -0.371094,-36.59766 -0.671875,-56.70312 0,-7.80079 -0.304687,-16.34766 -0.90625,-25.64063 C 13.796875,-273.89453 13.5,-282.75 13.5,-291.15625 c 0,-7.19531 1.046875,-13.49219 3.140625,-18.89062 2.101563,-5.40625 8.707031,-8.10938 19.8125,-8.10938 12,0 19.347656,2.10547 22.046875,6.3125 2.695312,4.19922 4.046875,9.29688 4.046875,15.29688 0,9 -0.226563,18.67968 -0.671875,29.03125 -0.449219,10.34375 -0.824219,19.86718 -1.125,28.5625 L 58.953125,-171 v 115.65625 c 0,7.792969 2.394531,12.140625 7.1875,13.046875 4.800781,0.898437 12.15625,1.34375 22.0625,1.34375 6.59375,0 13.789065,0.453125 21.593755,1.359375 7.80078,0.898438 14.55078,3.21875 20.24999,6.96875 5.69532,3.75 8.54688,9.679688 8.54688,17.78125 0,6.59375 -2.77734,10.71875 -8.32813,12.375 C 124.72266,-0.820312 119.39844,0 114.29688,0 H 82.34375 c -9,0 -16.804688,0.75 -23.40625,2.25 C 52.34375,3.75 46.347656,4.5 40.953125,4.5 Z m 0,0"
           id="path22" />
      </g>
    </g>
  </g>
  <g
     fill="#111111"
     fill-opacity="1"
     id="g28">
    <g
       transform="translate(695.68861,1027.4999)"
       id="g27">
      <g
         id="g26">
        <path
           d="M 24.75,4.5 C 18.445312,4.5 13.945312,3.070312 11.25,0.21875 8.550781,-2.625 7.203125,-6 7.203125,-9.90625 c 0,-2.695312 0.445313,-5.546875 1.34375,-8.546875 0.90625,-2.394531 2.40625,-8.765625 4.5,-19.109375 2.101563,-10.351562 4.65625,-23.03125 7.65625,-38.03125 3,-15 6.144531,-31.19531 9.4375,-48.59375 3.300781,-17.40625 6.523437,-34.50781 9.671875,-51.3125 3.15625,-16.80078 6.007812,-32.09766 8.5625,-45.89062 2.550781,-13.80079 4.425781,-24.45313 5.625,-31.95313 0.894531,-5.70703 2.019531,-13.4375 3.375,-23.1875 1.351562,-9.75 2.03125,-17.625 2.03125,-23.625 0,-6 2.171875,-10.79687 6.515625,-14.39062 4.351563,-3.60157 10.578125,-5.40625 18.671875,-5.40625 8.101562,0 14.328125,1.80468 18.67188,5.40625 4.35156,3.59375 6.53125,8.39062 6.53125,14.39062 0,6 0.67187,13.875 2.01562,23.625 1.35156,9.75 2.48438,17.48047 3.39063,23.1875 1.19531,7.5 3.07031,18.15234 5.625,31.95313 2.55078,13.79296 5.39843,29.08984 8.54687,45.89062 3.14453,16.80469 6.36719,33.90625 9.67187,51.3125 3.30079,17.39844 6.45313,33.59375 9.45313,48.59375 3,15 5.625,27.679688 7.875,38.03125 2.25,10.34375 3.67578,16.714844 4.28125,19.109375 0.89453,3 1.34375,5.851563 1.34375,8.546875 C 162,-6 160.64844,-2.625 157.95312,0.21875 155.25391,3.070312 150.75391,4.5 144.45312,4.5 136.04687,4.5 129.89453,3.523438 126,1.578125 c -3.89844,-1.945313 -6.89844,-6.523437 -9,-13.734375 -1.19922,-5.09375 -2.25,-9.4375 -3.15625,-13.03125 -0.89844,-3.601562 -1.94531,-6.90625 -3.14062,-9.90625 -1.5,-4.5 -4.125,-8.398438 -7.875,-11.703125 C 99.078125,-50.097656 93,-51.75 84.59375,-51.75 c -8.398438,0 -14.46875,1.652344 -18.21875,4.953125 -3.75,3.304687 -6.375,7.203125 -7.875,11.703125 -1.199219,3 -2.171875,6.304688 -2.921875,9.90625 -0.75,3.59375 -1.875,7.9375 -3.375,13.03125 C 50.097656,-4.945312 47.09375,-0.367188 43.1875,1.578125 39.289062,3.523438 33.144531,4.5 24.75,4.5 Z m 59.84375,-93.59375 c 4.5,0 8.398438,-0.675781 11.703125,-2.03125 3.300781,-1.351562 4.648435,-4.878906 4.046875,-10.57813 -0.29297,-2.69531 -0.890625,-8.01953 -1.796875,-15.96875 -0.898437,-7.94531 -2.023437,-16.86718 -3.375,-26.76562 -1.34375,-9.90625 -2.621094,-19.58203 -3.828125,-29.03125 -1.199219,-9.45703 -2.398438,-17.25781 -3.59375,-23.40625 -1.199219,-6.14453 -2.25,-9.21875 -3.15625,-9.21875 -0.898438,0 -1.945312,3.07422 -3.140625,9.21875 -1.199219,6.14844 -2.402344,13.94922 -3.609375,23.40625 -1.199219,9.44922 -2.476562,19.125 -3.828125,29.03125 -1.34375,9.89844 -2.46875,18.82031 -3.375,26.76562 -0.898437,7.94922 -1.496094,13.27344 -1.796875,15.96875 -0.59375,5.699224 0.832031,9.226568 4.28125,10.57813 3.445312,1.355469 7.269531,2.03125 11.46875,2.03125 z m 0,0"
           id="path25" />
      </g>
    </g>
  </g>
  <g
     fill="#111111"
     fill-opacity="1"
     id="g31">
    <g
       transform="translate(871.18832,1027.4999)"
       id="g30">
      <g
         id="g29">
        <path
           d="m 37.796875,4.046875 c -8.699219,0 -14.699219,-2.550781 -18,-7.640625 C 16.492188,-8.695312 14.84375,-15 14.84375,-22.5 c 0,0 0,-1.875 0,-5.625 0,-3.75 0.07031,-8.097656 0.21875,-13.046875 0.15625,-4.945313 0.234375,-9.375 0.234375,-13.28125 0.300781,-13.5 0.523437,-26.394531 0.671875,-38.6875 0.15625,-12.300785 0.234375,-24.304685 0.234375,-36.015625 0,-17.69531 -0.07813,-35.39453 -0.234375,-53.09375 -0.148438,-17.69531 -0.371094,-36.59766 -0.671875,-56.70312 0,-7.80079 -0.304687,-16.34766 -0.90625,-25.64063 C 13.796875,-273.89453 13.5,-282.75 13.5,-291.15625 c 0,-7.19531 1.046875,-13.49219 3.140625,-18.89062 2.101563,-5.40625 8.707031,-8.10938 19.8125,-8.10938 12,0 19.347656,2.10547 22.046875,6.3125 2.695312,4.19922 4.046875,9.29688 4.046875,15.29688 0,9 -0.304687,18.67968 -0.90625,29.03125 -0.59375,10.34375 -0.890625,19.86718 -0.890625,28.5625 l -0.453125,87.75 -0.453125,53.10937 c 0.300781,6.898438 0.453125,13.945312 0.453125,21.140625 0,7.199219 0.148437,14.699219 0.453125,22.5 0.300781,3.90625 0.453125,8.335937 0.453125,13.28125 0,4.949219 0,9.296875 0,13.046875 0,3.75 0,5.625 0,5.625 0,7.5 -1.125,13.804688 -3.375,18.90625 -2.25,5.089844 -8.929687,7.640625 -20.03125,7.640625 z m 0,0"
           id="path28" />
      </g>
    </g>
  </g>
  <g
     fill="#111111"
     fill-opacity="1"
     id="g34">
    <g
       transform="translate(947.23815,1027.4999)"
       id="g33">
      <g
         id="g32">
        <path
           d="m 186.29687,-98.09375 c 0.30079,6.898438 0.45313,13.945312 0.45313,21.140625 0,7.199219 0.14844,14.699219 0.45312,22.5 0.30079,3.90625 0.45313,8.335937 0.45313,13.28125 0,4.949219 0,9.296875 0,13.046875 0,3.75 0,5.625 0,5.625 0,7.5 -1.125,13.804688 -3.375,18.90625 -2.25,5.089844 -8.92969,7.640625 -20.03125,7.640625 -12.60547,0 -22.21094,-2.175781 -28.8125,-6.515625 -6.59375,-4.351562 -11.54297,-11.628906 -14.84375,-21.828125 L 72.90625,-171.45312 c -1.210938,-3.59375 -3.460938,-5.39063 -6.75,-5.39063 -3.605469,0 -5.710938,2.25 -6.3125,6.75 v 72 c 0.300781,6.898438 0.453125,13.945312 0.453125,21.140625 0,7.199219 0.148437,14.699219 0.453125,22.5 0.300781,3.90625 0.453125,8.335937 0.453125,13.28125 0,4.949219 0,9.296875 0,13.046875 0,3.75 0,5.625 0,5.625 0,7.5 -1.125,13.804688 -3.375,18.90625 -2.25,5.089844 -8.929687,7.640625 -20.03125,7.640625 -8.699219,0 -14.699219,-2.550781 -18,-7.640625 C 16.492188,-8.695312 14.84375,-15 14.84375,-22.5 c 0,0 0,-1.875 0,-5.625 0,-3.75 0.07031,-8.097656 0.21875,-13.046875 0.15625,-4.945313 0.234375,-9.375 0.234375,-13.28125 0.300781,-13.5 0.523437,-26.394531 0.671875,-38.6875 0.15625,-12.300785 0.234375,-24.304685 0.234375,-36.015625 0,-17.69531 -0.07813,-35.39453 -0.234375,-53.09375 -0.148438,-17.69531 -0.371094,-36.59766 -0.671875,-56.70312 0,-7.80079 -0.304687,-16.34766 -0.90625,-25.64063 C 13.796875,-273.89453 13.5,-282.75 13.5,-291.15625 c 0,-6.89453 1.046875,-13.03906 3.140625,-18.4375 2.101563,-5.40625 8.253906,-8.25781 18.453125,-8.5625 h 1.359375 c 9,0 16.347656,0.375 22.046875,1.125 5.695312,0.75 10.195312,5.17969 13.5,13.28125 0.894531,2.39844 2.914062,8.02344 6.0625,16.875 3.15625,8.85547 6.90625,19.88281 11.25,33.07813 4.351562,13.19921 9.082031,27.44921 14.1875,42.75 5.10156,15.30468 10.20313,30.52734 15.29688,45.67187 5.10156,15.14844 9.90624,29.02344 14.40624,41.625 1.5,3.60547 3.44532,5.40625 5.84375,5.40625 3,0 4.5,-2.25 4.5,-6.75 0,-17.10156 -0.22656,-35.62891 -0.67187,-55.57812 -0.44922,-19.94532 -0.82422,-39.375 -1.125,-58.28125 0,-7.80079 -0.30469,-16.34766 -0.90625,-25.64063 -0.59375,-9.30078 -0.89063,-18.15625 -0.89063,-26.5625 0,-7.19531 1.04688,-13.49219 3.14063,-18.89062 2.10156,-5.40625 8.70703,-8.10938 19.8125,-8.10938 12,0 19.34766,2.10547 22.04687,6.3125 2.69532,4.19922 4.04688,9.29688 4.04688,15.29688 0,9 -0.30469,18.67968 -0.90625,29.03125 -0.59375,10.34375 -0.89063,19.86718 -0.89063,28.5625 l -0.90625,87.75 z m 0,0"
           id="path31" />
      </g>
    </g>
  </g>
  <g
     fill="#111111"
     fill-opacity="1"
     id="g37">
    <g
       transform="translate(1149.7379,1027.4999)"
       id="g36">
      <g
         id="g35">
        <path
           d="M 40.953125,4.5 C 35.253906,4.5 29.476562,3.070312 23.625,0.21875 17.769531,-2.625 14.84375,-9.144531 14.84375,-19.34375 c 0,0 0,-1.875 0,-5.625 0,-3.75 0.07031,-8.097656 0.21875,-13.046875 0.15625,-4.957031 0.234375,-9.382813 0.234375,-13.28125 0.300781,-13.5 0.523437,-26.921875 0.671875,-40.265625 0.15625,-13.35156 0.234375,-25.88281 0.234375,-37.59375 0,-17.69531 -0.07813,-35.39453 -0.234375,-53.09375 -0.148438,-17.69531 -0.371094,-36.59766 -0.671875,-56.70312 0,-7.19532 -0.304687,-14.99219 -0.90625,-23.39063 C 13.796875,-270.75 13.5,-278.85156 13.5,-286.65625 c 0,-7.78906 1.046875,-14.91016 3.140625,-21.35937 2.101563,-6.45704 6.753906,-9.83594 13.953125,-10.14063 3.601562,0 9.679688,0.0781 18.234375,0.23438 8.550781,0.14843 17.773437,0.37109 27.671875,0.67187 9.894531,0.30469 18.894531,0.53125 27,0.6875 8.10156,0.14844 13.50391,0.21875 16.20313,0.21875 5.69531,0 10.19531,1.72656 13.49999,5.17188 3.30079,3.44921 4.95313,6.97656 4.95313,10.57812 0,7.19922 -2.02734,12.60156 -6.07813,16.20313 -4.05468,3.59375 -9.23046,6.07031 -15.53124,7.42187 -6.30469,1.34375 -12.60157,2.01563 -18.89063,2.01563 -6.90625,0 -13.359375,-0.0703 -19.359375,-0.21875 -6,-0.15625 -10.726563,0.89062 -14.171875,3.14062 -3.449219,2.25 -5.171875,6.98047 -5.171875,14.1875 0,4.19922 0.07031,10.42188 0.21875,18.67188 0.15625,8.25 0.234375,17.02734 0.234375,26.32812 0,9.29297 0.07031,17.76563 0.21875,25.42188 0.144531,7.64843 0.21875,13.12109 0.21875,16.42187 0,6.60547 1.195312,10.88281 3.59375,12.82813 2.40625,1.94921 5.707031,2.92187 9.90625,2.92187 6,0 12.375,0.60156 19.125,1.79688 6.75,1.19921 12.59766,3.375 17.54688,6.53125 4.95703,3.14843 7.4375,8.02343 7.4375,14.625 0,4.19921 -2.02735,7.42187 -6.07813,9.67187 -4.05469,2.25 -8.92969,3.82812 -14.625,4.73437 -5.699219,0.89844 -11.101562,1.42188 -16.203125,1.57813 -5.09375,0.14844 -8.84375,0.21875 -11.25,0.21875 -3,0 -5.703125,1.27734 -8.109375,3.82812 -2.398438,2.54297 -3.59375,5.61719 -3.59375,9.21875 v 47.70313 c 0,7.792969 2.625,12.140625 7.875,13.046875 5.25,0.898437 12.828125,1.34375 22.734375,1.34375 6.59375,0 13.789065,0.453125 21.593755,1.359375 7.80078,0.898438 14.55078,3.21875 20.24999,6.96875 5.69532,3.75 8.54688,9.679688 8.54688,17.78125 0,4.199219 -3,7.273438 -9,9.21875 -6,1.949219 -13.42969,3.226562 -22.28125,3.828125 C 98.46875,-1.203125 89.394531,-0.601562 80.09375,0 71.09375,0.300781 62.914062,1.125 55.5625,2.46875 48.21875,3.820312 43.347656,4.5 40.953125,4.5 Z m 0,0"
           id="path34" />
      </g>
    </g>
  </g>
  <g
     fill="#111111"
     fill-opacity="1"
     id="g40">
    <g
       transform="translate(1301.8375,1027.4999)"
       id="g39">
      <g
         id="g38">
        <path
           d="m 139.5,4.953125 c -3,0 -5.40234,-0.304687 -7.20313,-0.90625 C 126.59766,1.953125 121.5,-1.414062 117,-6.0625 112.5,-10.71875 107.69531,-17.25 102.59375,-25.65625 96.894531,-34.945312 90.671875,-46.191406 83.921875,-59.390625 77.171875,-72.597656 72.445312,-84.898438 69.75,-96.296875 c -0.605469,-3 -2.105469,-4.500005 -4.5,-4.500005 -1.5,0 -2.554688,0.902349 -3.15625,2.70313 -1.199219,3.898438 -1.796875,11.695312 -1.796875,23.390625 0,2.699219 0,5.699219 0,9 0,3.304687 0.148437,7.054687 0.453125,11.25 0.300781,3.90625 0.453125,8.335937 0.453125,13.28125 0,4.949219 0,9.296875 0,13.046875 0,3.75 0,5.625 0,5.625 0,7.5 -1.125,13.804688 -3.375,18.90625 -2.25,5.089844 -8.929687,7.640625 -20.03125,7.640625 -8.699219,0 -14.699219,-2.550781 -18,-7.640625 C 16.492188,-8.695312 14.84375,-15 14.84375,-22.5 c 0,0 0,-1.875 0,-5.625 0,-3.75 0.07031,-8.097656 0.21875,-13.046875 0.15625,-4.945313 0.234375,-9.375 0.234375,-13.28125 0.300781,-13.5 0.523437,-26.394531 0.671875,-38.6875 0.15625,-12.300785 0.234375,-24.304685 0.234375,-36.015625 0,-17.69531 -0.07813,-35.39453 -0.234375,-53.09375 -0.148438,-17.69531 -0.371094,-36.59766 -0.671875,-56.70312 0,-7.19532 -0.304687,-14.99219 -0.90625,-23.39063 C 13.796875,-270.75 13.5,-278.85156 13.5,-286.65625 c 0,-14.09375 4.875,-23.61328 14.625,-28.5625 9.75,-4.95703 23.175781,-7.4375 40.28125,-7.4375 12.59375,0 23.460938,3.23047 32.60938,9.6875 9.15625,6.44922 16.80468,14.77344 22.95312,24.96875 6.15625,10.19922 11.03125,21.15234 14.625,32.85938 3.60156,11.69921 6.15625,22.87109 7.65625,33.51562 1.5,10.64844 2.25,19.57422 2.25,26.78125 0,17.09375 -2.10156,31.04297 -6.29688,41.84375 -4.19921,10.80469 -8.69921,18.45313 -13.5,22.95313 -3.60546,2.99999 -6.98437,5.77734 -10.14062,8.32812 -3.14844,2.54297 -6.21875,4.5625 -9.21875,6.0625 2.40625,10.21094 5.62891,20.5625 9.67188,31.0625 4.05078,10.5 8.78125,20.101562 14.18749,28.796875 6.89454,11.09375 12.36719,19.34375 16.42188,24.75 4.05078,5.398437 6.97266,9.523437 8.76562,12.375 1.80079,2.84375 2.70313,6.070313 2.70313,9.671875 0,5.398438 -2.55469,9.0664062 -7.65625,11.015625 -5.09375,1.957031 -9.74219,2.9375 -13.9375,2.9375 z M 79.203125,-157.95312 c 7.5,0 13.5,-4.72266 18,-14.17188 4.500005,-9.44531 6.750005,-21.97266 6.750005,-37.57812 0,-13.5 -1.65235,-25.72266 -4.95313,-36.67188 -3.304688,-10.94531 -7.429688,-19.64453 -12.375,-26.09375 -4.949219,-6.45703 -10.273438,-9.6875 -15.96875,-9.6875 -5.40625,0 -8.636719,2.625 -9.6875,7.875 -1.042969,5.25 -1.417969,13.42969 -1.125,24.53125 v 71.09375 c 0,6 1.5,10.95313 4.5,14.85938 3,3.89843 7.953125,5.84375 14.859375,5.84375 z m 0,0"
           id="path37" />
      </g>
    </g>
  </g>
  <g
     fill="#8c3d5a"
     fill-opacity="1"
     id="g43">
    <g
       transform="translate(402.68751,1187.8063)"
       id="g42">
      <g
         id="g41">
        <path
           d="m 43.234375,-73.9375 c 5.6875,0 11.375,1.0625 17.0625,3.1875 0.9375,0.34375 1.640625,0.824219 2.109375,1.4375 0.46875,0.617188 0.703125,1.449219 0.703125,2.5 0,0.96875 -0.1875,2.132812 -0.5625,3.484375 -0.449219,1.648437 -1,2.824219 -1.65625,3.53125 -0.65625,0.710937 -1.433594,1.0625 -2.328125,1.0625 -0.449219,0 -0.992188,-0.09375 -1.625,-0.28125 -4.761719,-1.457031 -8.917969,-2.1875 -12.46875,-2.1875 -4.835938,0 -7.25,3.109375 -7.25,9.328125 v 3.359375 H 54.6875 c 1.3125,0 2.226562,0.433594 2.75,1.296875 0.519531,0.867188 0.78125,2.453125 0.78125,4.765625 0,2.324219 -0.261719,3.90625 -0.78125,4.75 -0.523438,0.84375 -1.4375,1.265625 -2.75,1.265625 H 37.21875 v 24.921875 H 53 c 0.894531,0 1.585938,0.164063 2.078125,0.484375 0.488281,0.3125 0.851563,0.886719 1.09375,1.71875 0.238281,0.824219 0.359375,2.015625 0.359375,3.578125 0,1.574219 -0.121094,2.777344 -0.359375,3.609375 -0.242187,0.824219 -0.605469,1.386719 -1.09375,1.6875 C 54.585938,-0.144531 53.894531,0 53,0 H 12.90625 C 12.007812,0 11.316406,-0.144531 10.828125,-0.4375 10.347656,-0.738281 9.984375,-1.300781 9.734375,-2.125 9.492188,-2.957031 9.375,-4.160156 9.375,-5.734375 c 0,-1.5625 0.117188,-2.753906 0.359375,-3.578125 0.25,-0.832031 0.613281,-1.40625 1.09375,-1.71875 0.488281,-0.320312 1.179687,-0.484375 2.078125,-0.484375 H 23.1875 V -36.4375 H 12.90625 c -1.304688,0 -2.21875,-0.421875 -2.75,-1.265625 -0.523438,-0.84375 -0.78125,-2.425781 -0.78125,-4.75 0,-2.3125 0.257812,-3.898437 0.78125,-4.765625 0.53125,-0.863281 1.445312,-1.296875 2.75,-1.296875 H 23.1875 v -4.09375 c 0,-6.957031 1.710938,-12.25 5.140625,-15.875 3.425781,-3.632813 8.394531,-5.453125 14.90625,-5.453125 z m 0,0"
           id="path40" />
      </g>
    </g>
  </g>
  <g
     fill="#8c3d5a"
     fill-opacity="1"
     id="g46">
    <g
       transform="translate(464.96345,1187.8063)"
       id="g45">
      <g
         id="g44">
        <path
           d="m 34.46875,-53.109375 c 5.6875,0 10.664062,1.164063 14.9375,3.484375 4.269531,2.3125 7.554688,5.53125 9.859375,9.65625 2.300781,4.117188 3.453125,8.792969 3.453125,14.03125 0,5.242188 -1.152344,9.917969 -3.453125,14.03125 -2.304687,4.117188 -5.589844,7.335938 -9.859375,9.65625 -4.273438,2.3203125 -9.25,3.484375 -14.9375,3.484375 -5.6875,0 -10.667969,-1.1640625 -14.9375,-3.484375 -4.261719,-2.320312 -7.542969,-5.539062 -9.84375,-9.65625 -2.304688,-4.113281 -3.453125,-8.789062 -3.453125,-14.03125 0,-5.238281 1.148437,-9.914062 3.453125,-14.03125 2.300781,-4.125 5.582031,-7.34375 9.84375,-9.65625 4.269531,-2.320312 9.25,-3.484375 14.9375,-3.484375 z m 0,12.734375 c -2.6875,0 -5.027344,0.59375 -7.015625,1.78125 -1.980469,1.179688 -3.507813,2.855469 -4.578125,5.03125 -1.0625,2.167969 -1.59375,4.710938 -1.59375,7.625 0,2.917969 0.53125,5.464844 1.59375,7.640625 1.070312,2.167969 2.597656,3.839844 4.578125,5.015625 1.988281,1.179688 4.328125,1.765625 7.015625,1.765625 2.695312,0 5.035156,-0.585937 7.015625,-1.765625 1.988281,-1.175781 3.515625,-2.847656 4.578125,-5.015625 1.070312,-2.175781 1.609375,-4.722656 1.609375,-7.640625 0,-2.914062 -0.539063,-5.457031 -1.609375,-7.625 C 45,-35.738281 43.472656,-37.414062 41.484375,-38.59375 39.503906,-39.78125 37.164062,-40.375 34.46875,-40.375 Z m 0,0"
           id="path43" />
      </g>
    </g>
  </g>
  <g
     fill="#8c3d5a"
     fill-opacity="1"
     id="g49">
    <g
       transform="translate(527.23938,1187.8063)"
       id="g48">
      <g
         id="g47">
        <path
           d="m 52.046875,-53.109375 c 3.175781,0 6.171875,1.046875 8.984375,3.140625 1.644531,1.199219 2.46875,2.773438 2.46875,4.71875 0,1.230469 -0.339844,2.6875 -1.015625,4.375 -0.667969,1.6875 -1.421875,2.964844 -2.265625,3.828125 -0.84375,0.855469 -1.734375,1.28125 -2.671875,1.28125 -0.523437,0 -1.085937,-0.148437 -1.6875,-0.453125 -2.09375,-1.15625 -4.265625,-1.734375 -6.515625,-1.734375 -2.875,0 -5.570312,0.917969 -8.078125,2.75 -2.511719,1.835937 -4.527344,4.359375 -6.046875,7.578125 -1.511719,3.21875 -2.265625,6.8125 -2.265625,10.78125 v 5.328125 h 16.125 c 0.894531,0 1.582031,0.164063 2.0625,0.484375 0.488281,0.3125 0.851563,0.886719 1.09375,1.71875 0.25,0.824219 0.375,2.015625 0.375,3.578125 0,1.574219 -0.125,2.777344 -0.375,3.609375 -0.242187,0.824219 -0.605469,1.386719 -1.09375,1.6875 C 50.660156,-0.144531 49.972656,0 49.078125,0 H 10.671875 C 9.765625,0 9.066406,-0.144531 8.578125,-0.4375 8.097656,-0.738281 7.734375,-1.300781 7.484375,-2.125 7.242188,-2.957031 7.125,-4.160156 7.125,-5.734375 c 0,-1.5625 0.117188,-2.753906 0.359375,-3.578125 0.25,-0.832031 0.613281,-1.40625 1.09375,-1.71875 0.488281,-0.320312 1.1875,-0.484375 2.09375,-0.484375 h 8.25 V -40.375 h -6.5625 c -0.90625,0 -1.605469,-0.144531 -2.09375,-0.4375 C 9.785156,-41.113281 9.421875,-41.675781 9.171875,-42.5 8.929688,-43.320312 8.8125,-44.519531 8.8125,-46.09375 c 0,-1.570312 0.117188,-2.769531 0.359375,-3.59375 0.25,-0.820312 0.613281,-1.390625 1.09375,-1.703125 0.488281,-0.320313 1.1875,-0.484375 2.09375,-0.484375 h 15.375 c 1.269531,0 2.175781,0.273438 2.71875,0.8125 0.539063,0.542969 0.8125,1.449219 0.8125,2.71875 v 12.1875 c 2.8125,-5.425781 6.039063,-9.609375 9.6875,-12.546875 3.65625,-2.9375 7.351563,-4.40625 11.09375,-4.40625 z m 0,0"
           id="path46" />
      </g>
    </g>
  </g>
  <g
     fill="#8c3d5a"
     fill-opacity="1"
     id="g55">
    <g
       transform="translate(651.79126,1187.8063)"
       id="g54">
      <g
         id="g53">
        <path
           d="m 66.53125,-51.875 c 0.894531,0 1.585938,0.164062 2.078125,0.484375 0.488281,0.3125 0.851563,0.882813 1.09375,1.703125 0.238281,0.824219 0.359375,2.023438 0.359375,3.59375 0,1.574219 -0.121094,2.773438 -0.359375,3.59375 -0.242187,0.824219 -0.605469,1.386719 -1.09375,1.6875 -0.492187,0.292969 -1.183594,0.4375 -2.078125,0.4375 H 64.234375 L 56.03125,-2.421875 c -0.304688,1.355469 -0.949219,2.304687 -1.9375,2.84375 -0.992188,0.539063 -2.609375,0.8125 -4.859375,0.8125 -2.167969,0 -3.777344,-0.28125 -4.828125,-0.84375 -1.042969,-0.558594 -1.808594,-1.5 -2.296875,-2.8125 L 34.25,-22.34375 26.28125,-2.421875 c -0.53125,1.3125 -1.324219,2.253906 -2.375,2.8125 -1.042969,0.5625 -2.667969,0.84375 -4.875,0.84375 -2.242188,0 -3.839844,-0.273437 -4.796875,-0.8125 -0.960937,-0.539063 -1.585937,-1.488281 -1.875,-2.84375 L 4.328125,-40.375 h -1.90625 c -0.90625,0 -1.605469,-0.144531 -2.09375,-0.4375 -0.476563,-0.300781 -0.835937,-0.863281 -1.078125,-1.6875 -0.25,-0.820312 -0.375,-2.019531 -0.375,-3.59375 0,-1.570312 0.125,-2.769531 0.375,-3.59375 0.242188,-0.820312 0.601562,-1.390625 1.078125,-1.703125 0.488281,-0.320313 1.1875,-0.484375 2.09375,-0.484375 h 19.3125 c 0.894531,0 1.582031,0.164062 2.0625,0.484375 0.488281,0.3125 0.851563,0.882813 1.09375,1.703125 0.25,0.824219 0.375,2.023438 0.375,3.59375 0,1.574219 -0.125,2.773438 -0.375,3.59375 -0.242187,0.824219 -0.605469,1.386719 -1.09375,1.6875 -0.480469,0.292969 -1.167969,0.4375 -2.0625,0.4375 h -4.78125 l 4.21875,21.796875 7.75,-19.03125 c 0.40625,-1.050781 1.019531,-1.847656 1.84375,-2.390625 0.820313,-0.539062 2,-0.8125 3.53125,-0.8125 1.613281,0 2.820313,0.226562 3.625,0.671875 0.8125,0.449219 1.421875,1.15625 1.828125,2.125 l 7.6875,19.4375 L 51.828125,-40.375 H 47.78125 c -0.898438,0 -1.589844,-0.144531 -2.078125,-0.4375 -0.492187,-0.300781 -0.859375,-0.863281 -1.109375,-1.6875 -0.242188,-0.820312 -0.359375,-2.019531 -0.359375,-3.59375 0,-1.570312 0.117187,-2.769531 0.359375,-3.59375 0.25,-0.820312 0.617188,-1.390625 1.109375,-1.703125 0.488281,-0.320313 1.179687,-0.484375 2.078125,-0.484375 z m 0,0"
           id="path52" />
      </g>
    </g>
  </g>
  <g
     fill="#8c3d5a"
     fill-opacity="1"
     id="g58">
    <g
       transform="translate(714.06721,1187.8063)"
       id="g57">
      <g
         id="g56">
        <path
           d="m 34.46875,-53.109375 c 5.6875,0 10.664062,1.164063 14.9375,3.484375 4.269531,2.3125 7.554688,5.53125 9.859375,9.65625 2.300781,4.117188 3.453125,8.792969 3.453125,14.03125 0,5.242188 -1.152344,9.917969 -3.453125,14.03125 -2.304687,4.117188 -5.589844,7.335938 -9.859375,9.65625 -4.273438,2.3203125 -9.25,3.484375 -14.9375,3.484375 -5.6875,0 -10.667969,-1.1640625 -14.9375,-3.484375 -4.261719,-2.320312 -7.542969,-5.539062 -9.84375,-9.65625 -2.304688,-4.113281 -3.453125,-8.789062 -3.453125,-14.03125 0,-5.238281 1.148437,-9.914062 3.453125,-14.03125 2.300781,-4.125 5.582031,-7.34375 9.84375,-9.65625 4.269531,-2.320312 9.25,-3.484375 14.9375,-3.484375 z m 0,12.734375 c -2.6875,0 -5.027344,0.59375 -7.015625,1.78125 -1.980469,1.179688 -3.507813,2.855469 -4.578125,5.03125 -1.0625,2.167969 -1.59375,4.710938 -1.59375,7.625 0,2.917969 0.53125,5.464844 1.59375,7.640625 1.070312,2.167969 2.597656,3.839844 4.578125,5.015625 1.988281,1.179688 4.328125,1.765625 7.015625,1.765625 2.695312,0 5.035156,-0.585937 7.015625,-1.765625 1.988281,-1.175781 3.515625,-2.847656 4.578125,-5.015625 1.070312,-2.175781 1.609375,-4.722656 1.609375,-7.640625 0,-2.914062 -0.539063,-5.457031 -1.609375,-7.625 C 45,-35.738281 43.472656,-37.414062 41.484375,-38.59375 39.503906,-39.78125 37.164062,-40.375 34.46875,-40.375 Z m 0,0"
           id="path55" />
      </g>
    </g>
  </g>
  <g
     fill="#8c3d5a"
     fill-opacity="1"
     id="g61">
    <g
       transform="translate(776.34314,1187.8063)"
       id="g60">
      <g
         id="g59">
        <path
           d="m 42.5,-53.109375 c 3.40625,0 6.390625,0.75 8.953125,2.25 2.5625,1.492187 4.535156,3.609375 5.921875,6.359375 1.382812,2.75 2.078125,5.980469 2.078125,9.6875 v 23.296875 h 4.328125 c 0.894531,0 1.585938,0.164063 2.078125,0.484375 0.488281,0.3125 0.851563,0.886719 1.09375,1.71875 0.238281,0.824219 0.359375,2.015625 0.359375,3.578125 0,1.574219 -0.121094,2.777344 -0.359375,3.609375 -0.242187,0.824219 -0.605469,1.386719 -1.09375,1.6875 C 65.367188,-0.144531 64.675781,0 63.78125,0 h -21 C 41.882812,0 41.191406,-0.144531 40.703125,-0.4375 40.210938,-0.738281 39.847656,-1.300781 39.609375,-2.125 39.367188,-2.957031 39.25,-4.160156 39.25,-5.734375 c 0,-1.5625 0.117188,-2.753906 0.359375,-3.578125 0.238281,-0.832031 0.601563,-1.40625 1.09375,-1.71875 0.488281,-0.320312 1.179687,-0.484375 2.078125,-0.484375 h 2.640625 V -31.5 c 0,-2.914062 -0.507813,-5.125 -1.515625,-6.625 -1.011719,-1.5 -2.695312,-2.25 -5.046875,-2.25 -2.179687,0 -4.242187,0.914062 -6.1875,2.734375 -1.949219,1.8125 -3.511719,4.234375 -4.6875,7.265625 -1.179687,3.03125 -1.765625,6.273438 -1.765625,9.71875 v 9.140625 h 2.640625 c 0.894531,0 1.585937,0.164063 2.078125,0.484375 0.488281,0.3125 0.851562,0.886719 1.09375,1.71875 0.238281,0.824219 0.359375,2.015625 0.359375,3.578125 0,1.574219 -0.121094,2.777344 -0.359375,3.609375 -0.242188,0.824219 -0.605469,1.386719 -1.09375,1.6875 C 30.445312,-0.144531 29.753906,0 28.859375,0 h -21 C 6.960938,0 6.269531,-0.144531 5.78125,-0.4375 5.289062,-0.738281 4.925781,-1.300781 4.6875,-2.125 4.445312,-2.957031 4.328125,-4.160156 4.328125,-5.734375 c 0,-1.5625 0.117187,-2.753906 0.359375,-3.578125 0.238281,-0.832031 0.601562,-1.40625 1.09375,-1.71875 0.488281,-0.320312 1.179688,-0.484375 2.078125,-0.484375 H 12.1875 V -40.375 H 6.734375 c -0.898437,0 -1.589844,-0.144531 -2.078125,-0.4375 C 4.175781,-41.113281 3.8125,-41.675781 3.5625,-42.5 c -0.242188,-0.820312 -0.359375,-2.019531 -0.359375,-3.59375 0,-1.570312 0.117187,-2.769531 0.359375,-3.59375 0.25,-0.820312 0.613281,-1.390625 1.09375,-1.703125 C 5.144531,-51.710938 5.835938,-51.875 6.734375,-51.875 H 20.4375 c 1.269531,0 2.175781,0.273438 2.71875,0.8125 0.539062,0.542969 0.8125,1.449219 0.8125,2.71875 v 8.140625 c 4.945312,-8.601563 11.125,-12.90625 18.53125,-12.90625 z m 0,0"
           id="path58" />
      </g>
    </g>
  </g>
  <g
     fill="#8c3d5a"
     fill-opacity="1"
     id="g64">
    <g
       transform="translate(838.61906,1187.8063)"
       id="g63">
      <g
         id="g62">
        <path
           d="m 54.90625,-73.65625 c 1.269531,0 2.175781,0.273438 2.71875,0.8125 0.550781,0.542969 0.828125,1.449219 0.828125,2.71875 v 58.609375 h 4.875 c 0.894531,0 1.585937,0.152344 2.078125,0.453125 0.488281,0.304688 0.851562,0.867188 1.09375,1.6875 0.25,0.824219 0.375,2.023438 0.375,3.59375 0,1.574219 -0.125,2.773438 -0.375,3.59375 -0.242188,0.824219 -0.605469,1.398438 -1.09375,1.71875 C 64.914062,-0.15625 64.222656,0 63.328125,0 H 50.1875 c -1.273438,0 -2.179688,-0.269531 -2.71875,-0.8125 -0.542969,-0.539062 -0.8125,-1.445312 -0.8125,-2.71875 V -8.25 c -1.949219,2.992188 -4.382812,5.320312 -7.296875,6.984375 -2.917969,1.664063 -6.15625,2.5 -9.71875,2.5 -4.898437,0 -9.183594,-1.1992188 -12.859375,-3.59375 -3.667969,-2.394531 -6.476562,-5.648437 -8.421875,-9.765625 -1.9375,-4.113281 -2.90625,-8.71875 -2.90625,-13.8125 0,-5.09375 0.96875,-9.695312 2.90625,-13.8125 1.945313,-4.113281 4.753906,-7.367188 8.421875,-9.765625 3.675781,-2.394531 7.960938,-3.59375 12.859375,-3.59375 2.925781,0 5.640625,0.574219 8.140625,1.71875 2.507812,1.136719 4.71875,2.773437 6.625,4.90625 V -62.15625 h -8.25 c -0.898438,0 -1.589844,-0.144531 -2.078125,-0.4375 -0.492187,-0.300781 -0.855469,-0.863281 -1.09375,-1.6875 C 32.742188,-65.101562 32.625,-66.300781 32.625,-67.875 c 0,-1.570312 0.117188,-2.769531 0.359375,-3.59375 0.238281,-0.820312 0.601563,-1.390625 1.09375,-1.703125 0.488281,-0.320313 1.179687,-0.484375 2.078125,-0.484375 z M 31.890625,-40.375 c -2.324219,0 -4.34375,0.59375 -6.0625,1.78125 -1.71875,1.179688 -3.039063,2.855469 -3.953125,5.03125 -0.917969,2.167969 -1.375,4.710938 -1.375,7.625 0,2.917969 0.457031,5.464844 1.375,7.640625 0.914062,2.167969 2.234375,3.839844 3.953125,5.015625 1.71875,1.179688 3.738281,1.765625 6.0625,1.765625 2.394531,0 4.566406,-0.554687 6.515625,-1.671875 1.945312,-1.125 3.5,-2.78125 4.65625,-4.96875 1.15625,-2.195312 1.734375,-4.789062 1.734375,-7.78125 0,-3 -0.578125,-5.59375 -1.734375,-7.78125 -1.15625,-2.1875 -2.710938,-3.84375 -4.65625,-4.96875 -1.949219,-1.125 -4.121094,-1.6875 -6.515625,-1.6875 z m 0,0"
           id="path61" />
      </g>
    </g>
  </g>
  <g
     fill="#8c3d5a"
     fill-opacity="1"
     id="g67">
    <g
       transform="translate(900.89501,1187.8063)"
       id="g66">
      <g
         id="g65">
        <path
           d="m 35.265625,-53.109375 c 5.6875,0 10.53125,1.226563 14.53125,3.671875 4.007813,2.449219 7.03125,5.855469 9.0625,10.21875 2.039063,4.367188 3.0625,9.355469 3.0625,14.96875 0,1.273438 -0.273437,2.167969 -0.8125,2.6875 -0.542969,0.523438 -1.449219,0.78125 -2.71875,0.78125 H 22.34375 c 0.707031,3 2.234375,5.296875 4.578125,6.890625 2.34375,1.585937 5.3125,2.375 8.90625,2.375 5.789063,0 12.078125,-1.023437 18.859375,-3.078125 0.445312,-0.15625 0.894531,-0.234375 1.34375,-0.234375 0.820312,0 1.53125,0.375 2.125,1.125 0.601562,0.75 1.148438,2.027344 1.640625,3.828125 0.375,1.386719 0.5625,2.5625 0.5625,3.53125 0,0.96875 -0.21875,1.730469 -0.65625,2.28125 -0.429687,0.542969 -1.125,0.980469 -2.09375,1.3125 -3.75,1.242188 -7.574219,2.214844 -11.46875,2.921875 -3.886719,0.707031 -7.699219,1.0625 -11.4375,1.0625 -5.699219,0 -10.605469,-1.1640625 -14.71875,-3.484375 -4.117187,-2.320312 -7.25,-5.53125 -9.40625,-9.625 -2.148437,-4.09375 -3.21875,-8.78125 -3.21875,-14.0625 0,-5.238281 1.117187,-9.914062 3.359375,-14.03125 2.25,-4.125 5.488281,-7.34375 9.71875,-9.65625 4.226562,-2.320312 9.171875,-3.484375 14.828125,-3.484375 z m 0,12.734375 c -6.855469,0 -11.089844,2.886719 -12.703125,8.65625 h 24.71875 c -0.648438,-2.738281 -2.007812,-4.863281 -4.078125,-6.375 -2.074219,-1.519531 -4.71875,-2.28125 -7.9375,-2.28125 z m 0,0"
           id="path64" />
      </g>
    </g>
  </g>
  <g
     fill="#8c3d5a"
     fill-opacity="1"
     id="g70">
    <g
       transform="translate(963.17097,1187.8063)"
       id="g69">
      <g
         id="g68">
        <path
           d="m 52.046875,-53.109375 c 3.175781,0 6.171875,1.046875 8.984375,3.140625 1.644531,1.199219 2.46875,2.773438 2.46875,4.71875 0,1.230469 -0.339844,2.6875 -1.015625,4.375 -0.667969,1.6875 -1.421875,2.964844 -2.265625,3.828125 -0.84375,0.855469 -1.734375,1.28125 -2.671875,1.28125 -0.523437,0 -1.085937,-0.148437 -1.6875,-0.453125 -2.09375,-1.15625 -4.265625,-1.734375 -6.515625,-1.734375 -2.875,0 -5.570312,0.917969 -8.078125,2.75 -2.511719,1.835937 -4.527344,4.359375 -6.046875,7.578125 -1.511719,3.21875 -2.265625,6.8125 -2.265625,10.78125 v 5.328125 h 16.125 c 0.894531,0 1.582031,0.164063 2.0625,0.484375 0.488281,0.3125 0.851563,0.886719 1.09375,1.71875 0.25,0.824219 0.375,2.015625 0.375,3.578125 0,1.574219 -0.125,2.777344 -0.375,3.609375 -0.242187,0.824219 -0.605469,1.386719 -1.09375,1.6875 C 50.660156,-0.144531 49.972656,0 49.078125,0 H 10.671875 C 9.765625,0 9.066406,-0.144531 8.578125,-0.4375 8.097656,-0.738281 7.734375,-1.300781 7.484375,-2.125 7.242188,-2.957031 7.125,-4.160156 7.125,-5.734375 c 0,-1.5625 0.117188,-2.753906 0.359375,-3.578125 0.25,-0.832031 0.613281,-1.40625 1.09375,-1.71875 0.488281,-0.320312 1.1875,-0.484375 2.09375,-0.484375 h 8.25 V -40.375 h -6.5625 c -0.90625,0 -1.605469,-0.144531 -2.09375,-0.4375 C 9.785156,-41.113281 9.421875,-41.675781 9.171875,-42.5 8.929688,-43.320312 8.8125,-44.519531 8.8125,-46.09375 c 0,-1.570312 0.117188,-2.769531 0.359375,-3.59375 0.25,-0.820312 0.613281,-1.390625 1.09375,-1.703125 0.488281,-0.320313 1.1875,-0.484375 2.09375,-0.484375 h 15.375 c 1.269531,0 2.175781,0.273438 2.71875,0.8125 0.539063,0.542969 0.8125,1.449219 0.8125,2.71875 v 12.1875 c 2.8125,-5.425781 6.039063,-9.609375 9.6875,-12.546875 3.65625,-2.9375 7.351563,-4.40625 11.09375,-4.40625 z m 0,0"
           id="path67" />
      </g>
    </g>
  </g>
  <g
     fill="#8c3d5a"
     fill-opacity="1"
     id="g73">
    <g
       transform="translate(1025.4469,1187.8063)"
       id="g72">
      <g
         id="g71">
        <path
           d="m 55.859375,-39.015625 c 0.90625,0 1.597656,0.167969 2.078125,0.5 0.488281,0.335937 0.851562,0.953125 1.09375,1.859375 0.25,0.898438 0.375,2.226562 0.375,3.984375 0,1.761719 -0.125,3.089844 -0.375,3.984375 -0.242188,0.898438 -0.605469,1.507812 -1.09375,1.828125 -0.480469,0.3125 -1.171875,0.46875 -2.078125,0.46875 h -42.78125 c -0.898437,0 -1.589844,-0.15625 -2.078125,-0.46875 -0.480469,-0.320313 -0.84375,-0.929687 -1.09375,-1.828125 -0.242188,-0.894531 -0.359375,-2.222656 -0.359375,-3.984375 0,-1.757813 0.117187,-3.085937 0.359375,-3.984375 0.25,-0.90625 0.613281,-1.523438 1.09375,-1.859375 0.488281,-0.332031 1.179688,-0.5 2.078125,-0.5 z m 0,0"
           id="path70" />
      </g>
    </g>
  </g>
  <g
     fill="#8c3d5a"
     fill-opacity="1"
     id="g76">
    <g
       transform="translate(1087.7228,1187.8063)"
       id="g75">
      <g
         id="g74">
        <path
           d="m 54.90625,-73.65625 c 1.269531,0 2.175781,0.273438 2.71875,0.8125 0.550781,0.542969 0.828125,1.449219 0.828125,2.71875 v 58.609375 h 4.875 c 0.894531,0 1.585937,0.152344 2.078125,0.453125 0.488281,0.304688 0.851562,0.867188 1.09375,1.6875 0.25,0.824219 0.375,2.023438 0.375,3.59375 0,1.574219 -0.125,2.773438 -0.375,3.59375 -0.242188,0.824219 -0.605469,1.398438 -1.09375,1.71875 C 64.914062,-0.15625 64.222656,0 63.328125,0 H 50.1875 c -1.273438,0 -2.179688,-0.269531 -2.71875,-0.8125 -0.542969,-0.539062 -0.8125,-1.445312 -0.8125,-2.71875 V -8.25 c -1.949219,2.992188 -4.382812,5.320312 -7.296875,6.984375 -2.917969,1.664063 -6.15625,2.5 -9.71875,2.5 -4.898437,0 -9.183594,-1.1992188 -12.859375,-3.59375 -3.667969,-2.394531 -6.476562,-5.648437 -8.421875,-9.765625 -1.9375,-4.113281 -2.90625,-8.71875 -2.90625,-13.8125 0,-5.09375 0.96875,-9.695312 2.90625,-13.8125 1.945313,-4.113281 4.753906,-7.367188 8.421875,-9.765625 3.675781,-2.394531 7.960938,-3.59375 12.859375,-3.59375 2.925781,0 5.640625,0.574219 8.140625,1.71875 2.507812,1.136719 4.71875,2.773437 6.625,4.90625 V -62.15625 h -8.25 c -0.898438,0 -1.589844,-0.144531 -2.078125,-0.4375 -0.492187,-0.300781 -0.855469,-0.863281 -1.09375,-1.6875 C 32.742188,-65.101562 32.625,-66.300781 32.625,-67.875 c 0,-1.570312 0.117188,-2.769531 0.359375,-3.59375 0.238281,-0.820312 0.601563,-1.390625 1.09375,-1.703125 0.488281,-0.320313 1.179687,-0.484375 2.078125,-0.484375 z M 31.890625,-40.375 c -2.324219,0 -4.34375,0.59375 -6.0625,1.78125 -1.71875,1.179688 -3.039063,2.855469 -3.953125,5.03125 -0.917969,2.167969 -1.375,4.710938 -1.375,7.625 0,2.917969 0.457031,5.464844 1.375,7.640625 0.914062,2.167969 2.234375,3.839844 3.953125,5.015625 1.71875,1.179688 3.738281,1.765625 6.0625,1.765625 2.394531,0 4.566406,-0.554687 6.515625,-1.671875 1.945312,-1.125 3.5,-2.78125 4.65625,-4.96875 1.15625,-2.195312 1.734375,-4.789062 1.734375,-7.78125 0,-3 -0.578125,-5.59375 -1.734375,-7.78125 -1.15625,-2.1875 -2.710938,-3.84375 -4.65625,-4.96875 -1.949219,-1.125 -4.121094,-1.6875 -6.515625,-1.6875 z m 0,0"
           id="path73" />
      </g>
    </g>
  </g>
  <g
     fill="#8c3d5a"
     fill-opacity="1"
     id="g79">
    <g
       transform="translate(1149.9988,1187.8063)"
       id="g78">
      <g
         id="g77">
        <path
           d="m 52.046875,-53.109375 c 3.175781,0 6.171875,1.046875 8.984375,3.140625 1.644531,1.199219 2.46875,2.773438 2.46875,4.71875 0,1.230469 -0.339844,2.6875 -1.015625,4.375 -0.667969,1.6875 -1.421875,2.964844 -2.265625,3.828125 -0.84375,0.855469 -1.734375,1.28125 -2.671875,1.28125 -0.523437,0 -1.085937,-0.148437 -1.6875,-0.453125 -2.09375,-1.15625 -4.265625,-1.734375 -6.515625,-1.734375 -2.875,0 -5.570312,0.917969 -8.078125,2.75 -2.511719,1.835937 -4.527344,4.359375 -6.046875,7.578125 -1.511719,3.21875 -2.265625,6.8125 -2.265625,10.78125 v 5.328125 h 16.125 c 0.894531,0 1.582031,0.164063 2.0625,0.484375 0.488281,0.3125 0.851563,0.886719 1.09375,1.71875 0.25,0.824219 0.375,2.015625 0.375,3.578125 0,1.574219 -0.125,2.777344 -0.375,3.609375 -0.242187,0.824219 -0.605469,1.386719 -1.09375,1.6875 C 50.660156,-0.144531 49.972656,0 49.078125,0 H 10.671875 C 9.765625,0 9.066406,-0.144531 8.578125,-0.4375 8.097656,-0.738281 7.734375,-1.300781 7.484375,-2.125 7.242188,-2.957031 7.125,-4.160156 7.125,-5.734375 c 0,-1.5625 0.117188,-2.753906 0.359375,-3.578125 0.25,-0.832031 0.613281,-1.40625 1.09375,-1.71875 0.488281,-0.320312 1.1875,-0.484375 2.09375,-0.484375 h 8.25 V -40.375 h -6.5625 c -0.90625,0 -1.605469,-0.144531 -2.09375,-0.4375 C 9.785156,-41.113281 9.421875,-41.675781 9.171875,-42.5 8.929688,-43.320312 8.8125,-44.519531 8.8125,-46.09375 c 0,-1.570312 0.117188,-2.769531 0.359375,-3.59375 0.25,-0.820312 0.613281,-1.390625 1.09375,-1.703125 0.488281,-0.320313 1.1875,-0.484375 2.09375,-0.484375 h 15.375 c 1.269531,0 2.175781,0.273438 2.71875,0.8125 0.539063,0.542969 0.8125,1.449219 0.8125,2.71875 v 12.1875 c 2.8125,-5.425781 6.039063,-9.609375 9.6875,-12.546875 3.65625,-2.9375 7.351563,-4.40625 11.09375,-4.40625 z m 0,0"
           id="path76" />
      </g>
    </g>
  </g>
  <g
     fill="#8c3d5a"
     fill-opacity="1"
     id="g82">
    <g
       transform="translate(1212.2747,1187.8063)"
       id="g81">
      <g
         id="g80">
        <path
           d="m 38.734375,-51.875 c 1.28125,0 2.191406,0.273438 2.734375,0.8125 0.539062,0.542969 0.8125,1.449219 0.8125,2.71875 v 36.828125 h 15.765625 c 0.90625,0 1.597656,0.164063 2.078125,0.484375 0.488281,0.3125 0.851562,0.886719 1.09375,1.71875 0.25,0.824219 0.375,2.015625 0.375,3.578125 0,1.574219 -0.125,2.777344 -0.375,3.609375 -0.242188,0.824219 -0.605469,1.386719 -1.09375,1.6875 C 59.644531,-0.144531 58.953125,0 58.046875,0 H 12.90625 C 12.007812,0 11.316406,-0.144531 10.828125,-0.4375 10.347656,-0.738281 9.984375,-1.300781 9.734375,-2.125 9.492188,-2.957031 9.375,-4.160156 9.375,-5.734375 c 0,-1.5625 0.117188,-2.753906 0.359375,-3.578125 0.25,-0.832031 0.613281,-1.40625 1.09375,-1.71875 0.488281,-0.320312 1.179687,-0.484375 2.078125,-0.484375 H 28.234375 V -40.375 H 16.28125 c -0.898438,0 -1.589844,-0.144531 -2.078125,-0.4375 -0.492187,-0.300781 -0.855469,-0.863281 -1.09375,-1.6875 C 12.867188,-43.320312 12.75,-44.519531 12.75,-46.09375 c 0,-1.570312 0.117188,-2.769531 0.359375,-3.59375 0.238281,-0.820312 0.601563,-1.390625 1.09375,-1.703125 0.488281,-0.320313 1.179687,-0.484375 2.078125,-0.484375 z m -3.65625,-24.65625 c 2.664063,0 4.53125,0.277344 5.59375,0.828125 1.0625,0.542969 1.59375,1.449219 1.59375,2.71875 v 9.203125 c 0,1.273438 -0.496094,2.179688 -1.484375,2.71875 -0.992188,0.542969 -2.796875,0.8125 -5.421875,0.8125 -2.617187,0 -4.460937,-0.269531 -5.53125,-0.8125 -1.0625,-0.539062 -1.59375,-1.445312 -1.59375,-2.71875 v -9.203125 c 0,-1.3125 0.484375,-2.226563 1.453125,-2.75 0.976562,-0.53125 2.773438,-0.796875 5.390625,-0.796875 z m 0,0"
           id="path79" />
      </g>
    </g>
  </g>
  <g
     fill="#8c3d5a"
     fill-opacity="1"
     id="g85">
    <g
       transform="translate(1274.5506,1187.8063)"
       id="g84">
      <g
         id="g83">
        <path
           d="m 63.15625,-51.875 c 0.90625,0 1.597656,0.164062 2.078125,0.484375 0.488281,0.3125 0.851563,0.882813 1.09375,1.703125 0.25,0.824219 0.375,2.023438 0.375,3.59375 0,1.574219 -0.125,2.773438 -0.375,3.59375 -0.242187,0.824219 -0.605469,1.386719 -1.09375,1.6875 -0.480469,0.292969 -1.171875,0.4375 -2.078125,0.4375 h -3.8125 L 42.890625,-2.421875 c -0.5625,1.3125 -1.480469,2.253906 -2.75,2.8125 -1.273437,0.5625 -3.21875,0.84375 -5.84375,0.84375 -2.617187,0 -4.542969,-0.28125 -5.78125,-0.84375 -1.230469,-0.558594 -2.125,-1.5 -2.6875,-2.8125 L 9.484375,-40.375 H 5.78125 c -0.898438,0 -1.589844,-0.144531 -2.078125,-0.4375 C 3.210938,-41.113281 2.847656,-41.675781 2.609375,-42.5 2.367188,-43.320312 2.25,-44.519531 2.25,-46.09375 c 0,-1.570312 0.117188,-2.769531 0.359375,-3.59375 0.238281,-0.820312 0.601563,-1.390625 1.09375,-1.703125 C 4.191406,-51.710938 4.882812,-51.875 5.78125,-51.875 h 22.6875 c 0.894531,0 1.582031,0.164062 2.0625,0.484375 0.488281,0.3125 0.851562,0.882813 1.09375,1.703125 0.25,0.824219 0.375,2.023438 0.375,3.59375 0,1.574219 -0.125,2.773438 -0.375,3.59375 -0.242188,0.824219 -0.605469,1.386719 -1.09375,1.6875 -0.480469,0.292969 -1.167969,0.4375 -2.0625,0.4375 h -3.765625 l 9.9375,24.765625 L 44.6875,-40.375 h -3.078125 c -0.90625,0 -1.605469,-0.144531 -2.09375,-0.4375 -0.480469,-0.300781 -0.84375,-0.863281 -1.09375,-1.6875 -0.242187,-0.820312 -0.359375,-2.019531 -0.359375,-3.59375 0,-1.570312 0.117188,-2.769531 0.359375,-3.59375 0.25,-0.820312 0.613281,-1.390625 1.09375,-1.703125 0.488281,-0.320313 1.1875,-0.484375 2.09375,-0.484375 z m 0,0"
           id="path82" />
      </g>
    </g>
  </g>
  <g
     fill="#8c3d5a"
     fill-opacity="1"
     id="g88">
    <g
       transform="translate(1336.8266,1187.8063)"
       id="g87">
      <g
         id="g86">
        <path
           d="m 35.265625,-53.109375 c 5.6875,0 10.53125,1.226563 14.53125,3.671875 4.007813,2.449219 7.03125,5.855469 9.0625,10.21875 2.039063,4.367188 3.0625,9.355469 3.0625,14.96875 0,1.273438 -0.273437,2.167969 -0.8125,2.6875 -0.542969,0.523438 -1.449219,0.78125 -2.71875,0.78125 H 22.34375 c 0.707031,3 2.234375,5.296875 4.578125,6.890625 2.34375,1.585937 5.3125,2.375 8.90625,2.375 5.789063,0 12.078125,-1.023437 18.859375,-3.078125 0.445312,-0.15625 0.894531,-0.234375 1.34375,-0.234375 0.820312,0 1.53125,0.375 2.125,1.125 0.601562,0.75 1.148438,2.027344 1.640625,3.828125 0.375,1.386719 0.5625,2.5625 0.5625,3.53125 0,0.96875 -0.21875,1.730469 -0.65625,2.28125 -0.429687,0.542969 -1.125,0.980469 -2.09375,1.3125 -3.75,1.242188 -7.574219,2.214844 -11.46875,2.921875 -3.886719,0.707031 -7.699219,1.0625 -11.4375,1.0625 -5.699219,0 -10.605469,-1.1640625 -14.71875,-3.484375 -4.117187,-2.320312 -7.25,-5.53125 -9.40625,-9.625 -2.148437,-4.09375 -3.21875,-8.78125 -3.21875,-14.0625 0,-5.238281 1.117187,-9.914062 3.359375,-14.03125 2.25,-4.125 5.488281,-7.34375 9.71875,-9.65625 4.226562,-2.320312 9.171875,-3.484375 14.828125,-3.484375 z m 0,12.734375 c -6.855469,0 -11.089844,2.886719 -12.703125,8.65625 h 24.71875 c -0.648438,-2.738281 -2.007812,-4.863281 -4.078125,-6.375 -2.074219,-1.519531 -4.71875,-2.28125 -7.9375,-2.28125 z m 0,0"
           id="path85" />
      </g>
    </g>
  </g>
  <g
     fill="#8c3d5a"
     fill-opacity="1"
     id="g91">
    <g
       transform="translate(1399.1025,1187.8063)"
       id="g90">
      <g
         id="g89">
        <path
           d="m 42.5,-53.109375 c 3.40625,0 6.390625,0.75 8.953125,2.25 2.5625,1.492187 4.535156,3.609375 5.921875,6.359375 1.382812,2.75 2.078125,5.980469 2.078125,9.6875 v 23.296875 h 4.328125 c 0.894531,0 1.585938,0.164063 2.078125,0.484375 0.488281,0.3125 0.851563,0.886719 1.09375,1.71875 0.238281,0.824219 0.359375,2.015625 0.359375,3.578125 0,1.574219 -0.121094,2.777344 -0.359375,3.609375 -0.242187,0.824219 -0.605469,1.386719 -1.09375,1.6875 C 65.367188,-0.144531 64.675781,0 63.78125,0 h -21 C 41.882812,0 41.191406,-0.144531 40.703125,-0.4375 40.210938,-0.738281 39.847656,-1.300781 39.609375,-2.125 39.367188,-2.957031 39.25,-4.160156 39.25,-5.734375 c 0,-1.5625 0.117188,-2.753906 0.359375,-3.578125 0.238281,-0.832031 0.601563,-1.40625 1.09375,-1.71875 0.488281,-0.320312 1.179687,-0.484375 2.078125,-0.484375 h 2.640625 V -31.5 c 0,-2.914062 -0.507813,-5.125 -1.515625,-6.625 -1.011719,-1.5 -2.695312,-2.25 -5.046875,-2.25 -2.179687,0 -4.242187,0.914062 -6.1875,2.734375 -1.949219,1.8125 -3.511719,4.234375 -4.6875,7.265625 -1.179687,3.03125 -1.765625,6.273438 -1.765625,9.71875 v 9.140625 h 2.640625 c 0.894531,0 1.585937,0.164063 2.078125,0.484375 0.488281,0.3125 0.851562,0.886719 1.09375,1.71875 0.238281,0.824219 0.359375,2.015625 0.359375,3.578125 0,1.574219 -0.121094,2.777344 -0.359375,3.609375 -0.242188,0.824219 -0.605469,1.386719 -1.09375,1.6875 C 30.445312,-0.144531 29.753906,0 28.859375,0 h -21 C 6.960938,0 6.269531,-0.144531 5.78125,-0.4375 5.289062,-0.738281 4.925781,-1.300781 4.6875,-2.125 4.445312,-2.957031 4.328125,-4.160156 4.328125,-5.734375 c 0,-1.5625 0.117187,-2.753906 0.359375,-3.578125 0.238281,-0.832031 0.601562,-1.40625 1.09375,-1.71875 0.488281,-0.320312 1.179688,-0.484375 2.078125,-0.484375 H 12.1875 V -40.375 H 6.734375 c -0.898437,0 -1.589844,-0.144531 -2.078125,-0.4375 C 4.175781,-41.113281 3.8125,-41.675781 3.5625,-42.5 c -0.242188,-0.820312 -0.359375,-2.019531 -0.359375,-3.59375 0,-1.570312 0.117187,-2.769531 0.359375,-3.59375 0.25,-0.820312 0.613281,-1.390625 1.09375,-1.703125 C 5.144531,-51.710938 5.835938,-51.875 6.734375,-51.875 H 20.4375 c 1.269531,0 2.175781,0.273438 2.71875,0.8125 0.539062,0.542969 0.8125,1.449219 0.8125,2.71875 v 8.140625 c 4.945312,-8.601563 11.125,-12.90625 18.53125,-12.90625 z m 0,0"
           id="path88" />
      </g>
    </g>
  </g>
  <g
     fill="#8c3d5a"
     fill-opacity="1"
     id="g94">
    <g
       transform="translate(527.23437,1290.5563)"
       id="g93">
      <g
         id="g92">
        <path
           d="m 53.625,-53.109375 c 2.3125,0 3.898438,0.261719 4.765625,0.78125 0.863281,0.523437 1.296875,1.4375 1.296875,2.75 v 18.03125 c 0,1.273437 -0.574219,2.179687 -1.71875,2.71875 -1.148438,0.542969 -3.046875,0.8125 -5.703125,0.8125 -1.761719,0 -3.121094,-0.117187 -4.078125,-0.359375 -0.949219,-0.25 -1.609375,-0.613281 -1.984375,-1.09375 -0.375,-0.488281 -0.5625,-1.179688 -0.5625,-2.078125 0,-1.570313 -0.386719,-3.03125 -1.15625,-4.375 -0.761719,-1.351563 -1.902344,-2.429687 -3.421875,-3.234375 -1.511719,-0.8125 -3.335938,-1.21875 -5.46875,-1.21875 -2.699219,0 -5.058594,0.59375 -7.078125,1.78125 -2.023437,1.179688 -3.585937,2.859375 -4.6875,5.046875 -1.105469,2.1875 -1.65625,4.726563 -1.65625,7.609375 0,2.886719 0.550781,5.421875 1.65625,7.609375 1.101563,2.1875 2.664063,3.871094 4.6875,5.046875 2.019531,1.179688 4.378906,1.765625 7.078125,1.765625 2.882812,0 5.832031,-0.460937 8.84375,-1.390625 3.007812,-0.9375 5.9375,-2.226562 8.78125,-3.875 0.675781,-0.375 1.296875,-0.5625 1.859375,-0.5625 1.6875,0 3.164063,1.480469 4.4375,4.4375 0.675781,1.605469 1.015625,2.96875 1.015625,4.09375 0,1.6875 -0.808594,2.980469 -2.421875,3.875 -3.480469,1.949219 -7.140625,3.464844 -10.984375,4.546875 -3.835938,1.082031 -7.679688,1.625 -11.53125,1.625 -5.6875,0 -10.683594,-1.1640625 -14.984375,-3.484375 -4.304687,-2.320312 -7.625,-5.539062 -9.96875,-9.65625 C 8.296875,-16.019531 7.125,-20.695312 7.125,-25.9375 c 0,-5.238281 1.175781,-9.925781 3.53125,-14.0625 2.363281,-4.132812 5.578125,-7.351562 9.640625,-9.65625 4.0625,-2.300781 8.597656,-3.453125 13.609375,-3.453125 6.0625,0 10.347656,2.1875 12.859375,6.5625 v -3.03125 c 0,-1.269531 0.539063,-2.175781 1.625,-2.71875 1.09375,-0.539063 2.835937,-0.8125 5.234375,-0.8125 z m 0,0"
           id="path91" />
      </g>
    </g>
  </g>
  <g
     fill="#8c3d5a"
     fill-opacity="1"
     id="g97">
    <g
       transform="translate(589.51031,1290.5563)"
       id="g96">
      <g
         id="g95">
        <path
           d="m 34.46875,-53.109375 c 5.6875,0 10.664062,1.164063 14.9375,3.484375 4.269531,2.3125 7.554688,5.53125 9.859375,9.65625 2.300781,4.117188 3.453125,8.792969 3.453125,14.03125 0,5.242188 -1.152344,9.917969 -3.453125,14.03125 -2.304687,4.117188 -5.589844,7.335938 -9.859375,9.65625 -4.273438,2.3203125 -9.25,3.484375 -14.9375,3.484375 -5.6875,0 -10.667969,-1.1640625 -14.9375,-3.484375 -4.261719,-2.320312 -7.542969,-5.539062 -9.84375,-9.65625 -2.304688,-4.113281 -3.453125,-8.789062 -3.453125,-14.03125 0,-5.238281 1.148437,-9.914062 3.453125,-14.03125 2.300781,-4.125 5.582031,-7.34375 9.84375,-9.65625 4.269531,-2.320312 9.25,-3.484375 14.9375,-3.484375 z m 0,12.734375 c -2.6875,0 -5.027344,0.59375 -7.015625,1.78125 -1.980469,1.179688 -3.507813,2.855469 -4.578125,5.03125 -1.0625,2.167969 -1.59375,4.710938 -1.59375,7.625 0,2.917969 0.53125,5.464844 1.59375,7.640625 1.070312,2.167969 2.597656,3.839844 4.578125,5.015625 1.988281,1.179688 4.328125,1.765625 7.015625,1.765625 2.695312,0 5.035156,-0.585937 7.015625,-1.765625 1.988281,-1.175781 3.515625,-2.847656 4.578125,-5.015625 1.070312,-2.175781 1.609375,-4.722656 1.609375,-7.640625 0,-2.914062 -0.539063,-5.457031 -1.609375,-7.625 C 45,-35.738281 43.472656,-37.414062 41.484375,-38.59375 39.503906,-39.78125 37.164062,-40.375 34.46875,-40.375 Z m 0,0"
           id="path94" />
      </g>
    </g>
  </g>
  <g
     fill="#8c3d5a"
     fill-opacity="1"
     id="g100">
    <g
       transform="translate(651.78625,1290.5563)"
       id="g99">
      <g
         id="g98">
        <path
           d="m 54.234375,-53.109375 c 3.445313,0 6.160156,1.40625 8.140625,4.21875 1.988281,2.804687 2.984375,7.070313 2.984375,12.796875 v 32.5625 c 0,1.273438 -0.277344,2.179688 -0.828125,2.71875 C 63.988281,-0.269531 63.082031,0 61.8125,0 H 54.859375 C 53.578125,0 52.664062,-0.269531 52.125,-0.8125 51.582031,-1.351562 51.3125,-2.257812 51.3125,-3.53125 v -29.375 c 0,-1.976562 -0.234375,-3.4375 -0.703125,-4.375 -0.46875,-0.9375 -1.210937,-1.40625 -2.21875,-1.40625 -1.75,0 -3.140625,1.371094 -4.171875,4.109375 -1.03125,2.730469 -1.546875,6.714844 -1.546875,11.953125 v 19.09375 c 0,1.273438 -0.273437,2.179688 -0.8125,2.71875 C 41.316406,-0.269531 40.410156,0 39.140625,0 h -6.96875 c -1.273437,0 -2.179687,-0.269531 -2.71875,-0.8125 -0.542969,-0.539062 -0.8125,-1.445312 -0.8125,-2.71875 v -29.375 c 0,-1.976562 -0.234375,-3.4375 -0.703125,-4.375 -0.46875,-0.9375 -1.210938,-1.40625 -2.21875,-1.40625 -1.761719,0 -3.15625,1.371094 -4.1875,4.109375 -1.03125,2.730469 -1.546875,6.714844 -1.546875,11.953125 v 19.09375 c 0,1.273438 -0.273437,2.179688 -0.8125,2.71875 C 18.628906,-0.269531 17.722656,0 16.453125,0 H 9.484375 C 8.210938,0 7.304688,-0.269531 6.765625,-0.8125 6.222656,-1.351562 5.953125,-2.257812 5.953125,-3.53125 V -40.375 H 2.75 c -0.898438,0 -1.589844,-0.144531 -2.078125,-0.4375 -0.492187,-0.300781 -0.851563,-0.863281 -1.09375,-1.6875 -0.238281,-0.820312 -0.359375,-2.019531 -0.359375,-3.59375 0,-1.570312 0.121094,-2.769531 0.359375,-3.59375 0.242187,-0.820312 0.601563,-1.390625 1.09375,-1.703125 C 1.160156,-51.710938 1.851562,-51.875 2.75,-51.875 h 9.765625 c 1.269531,0 2.175781,0.273438 2.71875,0.8125 0.550781,0.542969 0.828125,1.449219 0.828125,2.71875 V -40.25 c 1.757812,-4.226562 3.828125,-7.425781 6.203125,-9.59375 2.375,-2.175781 4.984375,-3.265625 7.828125,-3.265625 5.539062,0 9.113281,3.796875 10.71875,11.390625 1.726562,-3.738281 3.734375,-6.570312 6.015625,-8.5 2.28125,-1.925781 4.75,-2.890625 7.40625,-2.890625 z m 0,0"
           id="path97" />
      </g>
    </g>
  </g>
  <g
     fill="#8c3d5a"
     fill-opacity="1"
     id="g103">
    <g
       transform="translate(714.06219,1290.5563)"
       id="g102">
      <g
         id="g101">
        <path
           d="m 39.296875,-53.109375 c 4.90625,0 9.191406,1.199219 12.859375,3.59375 3.664062,2.398437 6.472656,5.652344 8.421875,9.765625 1.945313,4.117188 2.921875,8.71875 2.921875,13.8125 0,5.09375 -0.976562,9.699219 -2.921875,13.8125 -1.949219,4.117188 -4.757813,7.371094 -8.421875,9.765625 -3.667969,2.3945312 -7.953125,3.59375 -12.859375,3.59375 -2.917969,0 -5.632813,-0.570313 -8.140625,-1.703125 -2.5,-1.144531 -4.710938,-2.785156 -6.625,-4.921875 V 10.28125 h 9.375 c 0.90625,0 1.597656,0.144531 2.078125,0.4375 0.488281,0.300781 0.851563,0.863281 1.09375,1.6875 0.25,0.820312 0.375,2.019531 0.375,3.59375 0,1.570312 -0.125,2.769531 -0.375,3.59375 -0.242187,0.820312 -0.605469,1.390625 -1.09375,1.703125 C 35.503906,21.617188 34.8125,21.78125 33.90625,21.78125 H 5.609375 c -0.898437,0 -1.589844,-0.152344 -2.078125,-0.453125 C 3.050781,21.035156 2.6875,20.476562 2.4375,19.65625 2.195312,18.832031 2.078125,17.632812 2.078125,16.0625 c 0,-1.574219 0.117187,-2.773438 0.359375,-3.59375 0.25,-0.824219 0.613281,-1.398438 1.09375,-1.71875 0.488281,-0.3125 1.179688,-0.46875 2.078125,-0.46875 H 10.5 V -40.375 H 5.609375 c -0.898437,0 -1.589844,-0.144531 -2.078125,-0.4375 C 3.050781,-41.113281 2.6875,-41.675781 2.4375,-42.5 c -0.242188,-0.820312 -0.359375,-2.019531 -0.359375,-3.59375 0,-1.570312 0.117187,-2.769531 0.359375,-3.59375 0.25,-0.820312 0.613281,-1.390625 1.09375,-1.703125 C 4.019531,-51.710938 4.710938,-51.875 5.609375,-51.875 H 18.75 c 1.269531,0 2.175781,0.273438 2.71875,0.8125 0.550781,0.542969 0.828125,1.449219 0.828125,2.71875 v 4.71875 c 1.9375,-2.988281 4.363281,-5.316406 7.28125,-6.984375 2.925781,-1.664063 6.164063,-2.5 9.71875,-2.5 z M 37.0625,-40.375 c -2.398438,0 -4.570312,0.5625 -6.515625,1.6875 -1.949219,1.125 -3.507813,2.78125 -4.671875,4.96875 -1.15625,2.1875 -1.734375,4.78125 -1.734375,7.78125 0,2.992188 0.578125,5.585938 1.734375,7.78125 1.164062,2.1875 2.722656,3.84375 4.671875,4.96875 1.945313,1.117188 4.117187,1.671875 6.515625,1.671875 2.3125,0 4.328125,-0.585937 6.046875,-1.765625 1.726563,-1.175781 3.050781,-2.847656 3.96875,-5.015625 0.914063,-2.175781 1.375,-4.722656 1.375,-7.640625 0,-2.914062 -0.460937,-5.457031 -1.375,-7.625 -0.917969,-2.175781 -2.242187,-3.851562 -3.96875,-5.03125 C 41.390625,-39.78125 39.375,-40.375 37.0625,-40.375 Z m 0,0"
           id="path100" />
      </g>
    </g>
  </g>
  <g
     fill="#8c3d5a"
     fill-opacity="1"
     id="g106">
    <g
       transform="translate(776.33813,1290.5563)"
       id="g105">
      <g
         id="g104">
        <path
           d="m 54.40625,-51.875 c 1.269531,0 2.175781,0.273438 2.71875,0.8125 0.539062,0.542969 0.8125,1.449219 0.8125,2.71875 v 36.828125 h 4.328125 c 0.894531,0 1.585937,0.152344 2.078125,0.453125 0.488281,0.304688 0.851562,0.867188 1.09375,1.6875 0.238281,0.824219 0.359375,2.023438 0.359375,3.59375 0,1.574219 -0.121094,2.773438 -0.359375,3.59375 -0.242188,0.824219 -0.605469,1.398438 -1.09375,1.71875 C 63.851562,-0.15625 63.160156,0 62.265625,0 H 49.6875 c -1.273438,0 -2.179688,-0.269531 -2.71875,-0.8125 -0.542969,-0.539062 -0.8125,-1.445312 -0.8125,-2.71875 v -8.140625 C 41.207031,-3.066406 35.03125,1.234375 27.625,1.234375 24.21875,1.234375 21.234375,0.488281 18.671875,-1 16.109375,-2.5 14.132812,-4.625 12.75,-7.375 c -1.386719,-2.757812 -2.078125,-5.988281 -2.078125,-9.6875 V -40.375 H 6.34375 c -0.898438,0 -1.589844,-0.15625 -2.078125,-0.46875 -0.492187,-0.320312 -0.855469,-0.894531 -1.09375,-1.71875 -0.242187,-0.820312 -0.359375,-2.019531 -0.359375,-3.59375 0,-1.570312 0.117188,-2.769531 0.359375,-3.59375 0.238281,-0.820312 0.601563,-1.378906 1.09375,-1.671875 C 4.753906,-51.722656 5.445312,-51.875 6.34375,-51.875 h 14.828125 c 1.269531,0 2.175781,0.273438 2.71875,0.8125 0.539063,0.542969 0.8125,1.449219 0.8125,2.71875 V -20.375 c 0,2.917969 0.503906,5.125 1.515625,6.625 1.007812,1.492188 2.691406,2.234375 5.046875,2.234375 2.175781,0 4.238281,-0.90625 6.1875,-2.71875 1.945313,-1.8125 3.507813,-4.234375 4.6875,-7.265625 1.175781,-3.03125 1.765625,-6.269531 1.765625,-9.71875 V -40.375 h -6.015625 c -0.898437,0 -1.589844,-0.15625 -2.078125,-0.46875 -0.480469,-0.320312 -0.84375,-0.894531 -1.09375,-1.71875 -0.242188,-0.820312 -0.359375,-2.019531 -0.359375,-3.59375 0,-1.570312 0.117187,-2.769531 0.359375,-3.59375 0.25,-0.820312 0.613281,-1.378906 1.09375,-1.671875 0.488281,-0.300781 1.179688,-0.453125 2.078125,-0.453125 z m 0,0"
           id="path103" />
      </g>
    </g>
  </g>
  <g
     fill="#8c3d5a"
     fill-opacity="1"
     id="g109">
    <g
       transform="translate(838.61408,1290.5563)"
       id="g108">
      <g
         id="g107">
        <path
           d="m 27.234375,-67.875 c 1.757813,0 3.113281,0.121094 4.0625,0.359375 0.957031,0.242187 1.625,0.605469 2,1.09375 0.375,0.492187 0.5625,1.183594 0.5625,2.078125 v 15.828125 H 54.6875 c 1.3125,0 2.226562,0.433594 2.75,1.296875 0.519531,0.867188 0.78125,2.453125 0.78125,4.765625 0,2.324219 -0.261719,3.90625 -0.78125,4.75 -0.523438,0.84375 -1.4375,1.265625 -2.75,1.265625 H 33.859375 v 15.609375 c 0,6.210937 2.410156,9.3125 7.234375,9.3125 1.726562,0 3.742188,-0.378906 6.046875,-1.140625 2.300781,-0.769531 4.984375,-1.847656 8.046875,-3.234375 0.820312,-0.332031 1.476562,-0.5 1.96875,-0.5 0.78125,0 1.507812,0.328125 2.1875,0.984375 0.675781,0.65625 1.3125,1.730469 1.90625,3.21875 0.675781,1.6875 1.015625,3.058594 1.015625,4.109375 0,0.824219 -0.199219,1.507813 -0.59375,2.046875 -0.398437,0.542969 -0.984375,1.015625 -1.765625,1.421875 -7.710938,3.898437 -14.390625,5.84375 -20.046875,5.84375 -6.511719,0 -11.480469,-1.8125 -14.90625,-5.4375 C 21.523438,-7.835938 19.8125,-13.132812 19.8125,-20.09375 V -36.4375 H 8.984375 c -1.3125,0 -2.230469,-0.421875 -2.75,-1.265625 -0.523437,-0.84375 -0.78125,-2.425781 -0.78125,-4.75 0,-2.3125 0.257813,-3.898437 0.78125,-4.765625 0.519531,-0.863281 1.4375,-1.296875 2.75,-1.296875 H 19.8125 V -64.34375 c 0,-1.269531 0.570312,-2.175781 1.71875,-2.71875 1.144531,-0.539062 3.046875,-0.8125 5.703125,-0.8125 z m 0,0"
           id="path106" />
      </g>
    </g>
  </g>
  <g
     fill="#8c3d5a"
     fill-opacity="1"
     id="g112">
    <g
       transform="translate(900.89001,1290.5563)"
       id="g111">
      <g
         id="g110">
        <path
           d="m 35.265625,-53.109375 c 5.6875,0 10.53125,1.226563 14.53125,3.671875 4.007813,2.449219 7.03125,5.855469 9.0625,10.21875 2.039063,4.367188 3.0625,9.355469 3.0625,14.96875 0,1.273438 -0.273437,2.167969 -0.8125,2.6875 -0.542969,0.523438 -1.449219,0.78125 -2.71875,0.78125 H 22.34375 c 0.707031,3 2.234375,5.296875 4.578125,6.890625 2.34375,1.585937 5.3125,2.375 8.90625,2.375 5.789063,0 12.078125,-1.023437 18.859375,-3.078125 0.445312,-0.15625 0.894531,-0.234375 1.34375,-0.234375 0.820312,0 1.53125,0.375 2.125,1.125 0.601562,0.75 1.148438,2.027344 1.640625,3.828125 0.375,1.386719 0.5625,2.5625 0.5625,3.53125 0,0.96875 -0.21875,1.730469 -0.65625,2.28125 -0.429687,0.542969 -1.125,0.980469 -2.09375,1.3125 -3.75,1.242188 -7.574219,2.214844 -11.46875,2.921875 -3.886719,0.707031 -7.699219,1.0625 -11.4375,1.0625 -5.699219,0 -10.605469,-1.1640625 -14.71875,-3.484375 -4.117187,-2.320312 -7.25,-5.53125 -9.40625,-9.625 -2.148437,-4.09375 -3.21875,-8.78125 -3.21875,-14.0625 0,-5.238281 1.117187,-9.914062 3.359375,-14.03125 2.25,-4.125 5.488281,-7.34375 9.71875,-9.65625 4.226562,-2.320312 9.171875,-3.484375 14.828125,-3.484375 z m 0,12.734375 c -6.855469,0 -11.089844,2.886719 -12.703125,8.65625 h 24.71875 c -0.648438,-2.738281 -2.007812,-4.863281 -4.078125,-6.375 -2.074219,-1.519531 -4.71875,-2.28125 -7.9375,-2.28125 z m 0,0"
           id="path109" />
      </g>
    </g>
  </g>
  <g
     fill="#8c3d5a"
     fill-opacity="1"
     id="g115">
    <g
       transform="translate(963.16593,1290.5563)"
       id="g114">
      <g
         id="g113">
        <path
           d="m 52.046875,-53.109375 c 3.175781,0 6.171875,1.046875 8.984375,3.140625 1.644531,1.199219 2.46875,2.773438 2.46875,4.71875 0,1.230469 -0.339844,2.6875 -1.015625,4.375 -0.667969,1.6875 -1.421875,2.964844 -2.265625,3.828125 -0.84375,0.855469 -1.734375,1.28125 -2.671875,1.28125 -0.523437,0 -1.085937,-0.148437 -1.6875,-0.453125 -2.09375,-1.15625 -4.265625,-1.734375 -6.515625,-1.734375 -2.875,0 -5.570312,0.917969 -8.078125,2.75 -2.511719,1.835937 -4.527344,4.359375 -6.046875,7.578125 -1.511719,3.21875 -2.265625,6.8125 -2.265625,10.78125 v 5.328125 h 16.125 c 0.894531,0 1.582031,0.164063 2.0625,0.484375 0.488281,0.3125 0.851563,0.886719 1.09375,1.71875 0.25,0.824219 0.375,2.015625 0.375,3.578125 0,1.574219 -0.125,2.777344 -0.375,3.609375 -0.242187,0.824219 -0.605469,1.386719 -1.09375,1.6875 C 50.660156,-0.144531 49.972656,0 49.078125,0 H 10.671875 C 9.765625,0 9.066406,-0.144531 8.578125,-0.4375 8.097656,-0.738281 7.734375,-1.300781 7.484375,-2.125 7.242188,-2.957031 7.125,-4.160156 7.125,-5.734375 c 0,-1.5625 0.117188,-2.753906 0.359375,-3.578125 0.25,-0.832031 0.613281,-1.40625 1.09375,-1.71875 0.488281,-0.320312 1.1875,-0.484375 2.09375,-0.484375 h 8.25 V -40.375 h -6.5625 c -0.90625,0 -1.605469,-0.144531 -2.09375,-0.4375 C 9.785156,-41.113281 9.421875,-41.675781 9.171875,-42.5 8.929688,-43.320312 8.8125,-44.519531 8.8125,-46.09375 c 0,-1.570312 0.117188,-2.769531 0.359375,-3.59375 0.25,-0.820312 0.613281,-1.390625 1.09375,-1.703125 0.488281,-0.320313 1.1875,-0.484375 2.09375,-0.484375 h 15.375 c 1.269531,0 2.175781,0.273438 2.71875,0.8125 0.539063,0.542969 0.8125,1.449219 0.8125,2.71875 v 12.1875 c 2.8125,-5.425781 6.039063,-9.609375 9.6875,-12.546875 3.65625,-2.9375 7.351563,-4.40625 11.09375,-4.40625 z m 0,0"
           id="path112" />
      </g>
    </g>
  </g>
  <g
     fill="#8c3d5a"
     fill-opacity="1"
     id="g121">
    <g
       transform="translate(1087.7178,1290.5563)"
       id="g120">
      <g
         id="g119">
        <path
           d="m 39.296875,-53.109375 c 4.90625,0 9.191406,1.199219 12.859375,3.59375 3.664062,2.398437 6.472656,5.652344 8.421875,9.765625 1.945313,4.117188 2.921875,8.71875 2.921875,13.8125 0,5.09375 -0.976562,9.699219 -2.921875,13.8125 -1.949219,4.117188 -4.757813,7.371094 -8.421875,9.765625 -3.667969,2.3945312 -7.953125,3.59375 -12.859375,3.59375 -2.917969,0 -5.632813,-0.570313 -8.140625,-1.703125 -2.5,-1.144531 -4.710938,-2.785156 -6.625,-4.921875 V 10.28125 h 9.375 c 0.90625,0 1.597656,0.144531 2.078125,0.4375 0.488281,0.300781 0.851563,0.863281 1.09375,1.6875 0.25,0.820312 0.375,2.019531 0.375,3.59375 0,1.570312 -0.125,2.769531 -0.375,3.59375 -0.242187,0.820312 -0.605469,1.390625 -1.09375,1.703125 C 35.503906,21.617188 34.8125,21.78125 33.90625,21.78125 H 5.609375 c -0.898437,0 -1.589844,-0.152344 -2.078125,-0.453125 C 3.050781,21.035156 2.6875,20.476562 2.4375,19.65625 2.195312,18.832031 2.078125,17.632812 2.078125,16.0625 c 0,-1.574219 0.117187,-2.773438 0.359375,-3.59375 0.25,-0.824219 0.613281,-1.398438 1.09375,-1.71875 0.488281,-0.3125 1.179688,-0.46875 2.078125,-0.46875 H 10.5 V -40.375 H 5.609375 c -0.898437,0 -1.589844,-0.144531 -2.078125,-0.4375 C 3.050781,-41.113281 2.6875,-41.675781 2.4375,-42.5 c -0.242188,-0.820312 -0.359375,-2.019531 -0.359375,-3.59375 0,-1.570312 0.117187,-2.769531 0.359375,-3.59375 0.25,-0.820312 0.613281,-1.390625 1.09375,-1.703125 C 4.019531,-51.710938 4.710938,-51.875 5.609375,-51.875 H 18.75 c 1.269531,0 2.175781,0.273438 2.71875,0.8125 0.550781,0.542969 0.828125,1.449219 0.828125,2.71875 v 4.71875 c 1.9375,-2.988281 4.363281,-5.316406 7.28125,-6.984375 2.925781,-1.664063 6.164063,-2.5 9.71875,-2.5 z M 37.0625,-40.375 c -2.398438,0 -4.570312,0.5625 -6.515625,1.6875 -1.949219,1.125 -3.507813,2.78125 -4.671875,4.96875 -1.15625,2.1875 -1.734375,4.78125 -1.734375,7.78125 0,2.992188 0.578125,5.585938 1.734375,7.78125 1.164062,2.1875 2.722656,3.84375 4.671875,4.96875 1.945313,1.117188 4.117187,1.671875 6.515625,1.671875 2.3125,0 4.328125,-0.585937 6.046875,-1.765625 1.726563,-1.175781 3.050781,-2.847656 3.96875,-5.015625 0.914063,-2.175781 1.375,-4.722656 1.375,-7.640625 0,-2.914062 -0.460937,-5.457031 -1.375,-7.625 -0.917969,-2.175781 -2.242187,-3.851562 -3.96875,-5.03125 C 41.390625,-39.78125 39.375,-40.375 37.0625,-40.375 Z m 0,0"
           id="path118" />
      </g>
    </g>
  </g>
  <g
     fill="#8c3d5a"
     fill-opacity="1"
     id="g124">
    <g
       transform="translate(1149.9938,1290.5563)"
       id="g123">
      <g
         id="g122">
        <path
           d="m 35.265625,-53.109375 c 5.6875,0 10.53125,1.226563 14.53125,3.671875 4.007813,2.449219 7.03125,5.855469 9.0625,10.21875 2.039063,4.367188 3.0625,9.355469 3.0625,14.96875 0,1.273438 -0.273437,2.167969 -0.8125,2.6875 -0.542969,0.523438 -1.449219,0.78125 -2.71875,0.78125 H 22.34375 c 0.707031,3 2.234375,5.296875 4.578125,6.890625 2.34375,1.585937 5.3125,2.375 8.90625,2.375 5.789063,0 12.078125,-1.023437 18.859375,-3.078125 0.445312,-0.15625 0.894531,-0.234375 1.34375,-0.234375 0.820312,0 1.53125,0.375 2.125,1.125 0.601562,0.75 1.148438,2.027344 1.640625,3.828125 0.375,1.386719 0.5625,2.5625 0.5625,3.53125 0,0.96875 -0.21875,1.730469 -0.65625,2.28125 -0.429687,0.542969 -1.125,0.980469 -2.09375,1.3125 -3.75,1.242188 -7.574219,2.214844 -11.46875,2.921875 -3.886719,0.707031 -7.699219,1.0625 -11.4375,1.0625 -5.699219,0 -10.605469,-1.1640625 -14.71875,-3.484375 -4.117187,-2.320312 -7.25,-5.53125 -9.40625,-9.625 -2.148437,-4.09375 -3.21875,-8.78125 -3.21875,-14.0625 0,-5.238281 1.117187,-9.914062 3.359375,-14.03125 2.25,-4.125 5.488281,-7.34375 9.71875,-9.65625 4.226562,-2.320312 9.171875,-3.484375 14.828125,-3.484375 z m 0,12.734375 c -6.855469,0 -11.089844,2.886719 -12.703125,8.65625 h 24.71875 c -0.648438,-2.738281 -2.007812,-4.863281 -4.078125,-6.375 -2.074219,-1.519531 -4.71875,-2.28125 -7.9375,-2.28125 z m 0,0"
           id="path121" />
      </g>
    </g>
  </g>
  <g
     fill="#8c3d5a"
     fill-opacity="1"
     id="g127">
    <g
       transform="translate(1212.2697,1290.5563)"
       id="g126">
      <g
         id="g125">
        <path
           d="m 34.46875,-53.109375 c 5.6875,0 10.664062,1.164063 14.9375,3.484375 4.269531,2.3125 7.554688,5.53125 9.859375,9.65625 2.300781,4.117188 3.453125,8.792969 3.453125,14.03125 0,5.242188 -1.152344,9.917969 -3.453125,14.03125 -2.304687,4.117188 -5.589844,7.335938 -9.859375,9.65625 -4.273438,2.3203125 -9.25,3.484375 -14.9375,3.484375 -5.6875,0 -10.667969,-1.1640625 -14.9375,-3.484375 -4.261719,-2.320312 -7.542969,-5.539062 -9.84375,-9.65625 -2.304688,-4.113281 -3.453125,-8.789062 -3.453125,-14.03125 0,-5.238281 1.148437,-9.914062 3.453125,-14.03125 2.300781,-4.125 5.582031,-7.34375 9.84375,-9.65625 4.269531,-2.320312 9.25,-3.484375 14.9375,-3.484375 z m 0,12.734375 c -2.6875,0 -5.027344,0.59375 -7.015625,1.78125 -1.980469,1.179688 -3.507813,2.855469 -4.578125,5.03125 -1.0625,2.167969 -1.59375,4.710938 -1.59375,7.625 0,2.917969 0.53125,5.464844 1.59375,7.640625 1.070312,2.167969 2.597656,3.839844 4.578125,5.015625 1.988281,1.179688 4.328125,1.765625 7.015625,1.765625 2.695312,0 5.035156,-0.585937 7.015625,-1.765625 1.988281,-1.175781 3.515625,-2.847656 4.578125,-5.015625 1.070312,-2.175781 1.609375,-4.722656 1.609375,-7.640625 0,-2.914062 -0.539063,-5.457031 -1.609375,-7.625 C 45,-35.738281 43.472656,-37.414062 41.484375,-38.59375 39.503906,-39.78125 37.164062,-40.375 34.46875,-40.375 Z m 0,0"
           id="path124" />
      </g>
    </g>
  </g>
  <g
     fill="#8c3d5a"
     fill-opacity="1"
     id="g130">
    <g
       transform="translate(1274.5456,1290.5563)"
       id="g129">
      <g
         id="g128">
        <path
           d="m 39.296875,-53.109375 c 4.90625,0 9.191406,1.199219 12.859375,3.59375 3.664062,2.398437 6.472656,5.652344 8.421875,9.765625 1.945313,4.117188 2.921875,8.71875 2.921875,13.8125 0,5.09375 -0.976562,9.699219 -2.921875,13.8125 -1.949219,4.117188 -4.757813,7.371094 -8.421875,9.765625 -3.667969,2.3945312 -7.953125,3.59375 -12.859375,3.59375 -2.917969,0 -5.632813,-0.570313 -8.140625,-1.703125 -2.5,-1.144531 -4.710938,-2.785156 -6.625,-4.921875 V 10.28125 h 9.375 c 0.90625,0 1.597656,0.144531 2.078125,0.4375 0.488281,0.300781 0.851563,0.863281 1.09375,1.6875 0.25,0.820312 0.375,2.019531 0.375,3.59375 0,1.570312 -0.125,2.769531 -0.375,3.59375 -0.242187,0.820312 -0.605469,1.390625 -1.09375,1.703125 C 35.503906,21.617188 34.8125,21.78125 33.90625,21.78125 H 5.609375 c -0.898437,0 -1.589844,-0.152344 -2.078125,-0.453125 C 3.050781,21.035156 2.6875,20.476562 2.4375,19.65625 2.195312,18.832031 2.078125,17.632812 2.078125,16.0625 c 0,-1.574219 0.117187,-2.773438 0.359375,-3.59375 0.25,-0.824219 0.613281,-1.398438 1.09375,-1.71875 0.488281,-0.3125 1.179688,-0.46875 2.078125,-0.46875 H 10.5 V -40.375 H 5.609375 c -0.898437,0 -1.589844,-0.144531 -2.078125,-0.4375 C 3.050781,-41.113281 2.6875,-41.675781 2.4375,-42.5 c -0.242188,-0.820312 -0.359375,-2.019531 -0.359375,-3.59375 0,-1.570312 0.117187,-2.769531 0.359375,-3.59375 0.25,-0.820312 0.613281,-1.390625 1.09375,-1.703125 C 4.019531,-51.710938 4.710938,-51.875 5.609375,-51.875 H 18.75 c 1.269531,0 2.175781,0.273438 2.71875,0.8125 0.550781,0.542969 0.828125,1.449219 0.828125,2.71875 v 4.71875 c 1.9375,-2.988281 4.363281,-5.316406 7.28125,-6.984375 2.925781,-1.664063 6.164063,-2.5 9.71875,-2.5 z M 37.0625,-40.375 c -2.398438,0 -4.570312,0.5625 -6.515625,1.6875 -1.949219,1.125 -3.507813,2.78125 -4.671875,4.96875 -1.15625,2.1875 -1.734375,4.78125 -1.734375,7.78125 0,2.992188 0.578125,5.585938 1.734375,7.78125 1.164062,2.1875 2.722656,3.84375 4.671875,4.96875 1.945313,1.117188 4.117187,1.671875 6.515625,1.671875 2.3125,0 4.328125,-0.585937 6.046875,-1.765625 1.726563,-1.175781 3.050781,-2.847656 3.96875,-5.015625 0.914063,-2.175781 1.375,-4.722656 1.375,-7.640625 0,-2.914062 -0.460937,-5.457031 -1.375,-7.625 -0.917969,-2.175781 -2.242187,-3.851562 -3.96875,-5.03125 C 41.390625,-39.78125 39.375,-40.375 37.0625,-40.375 Z m 0,0"
           id="path127" />
      </g>
    </g>
  </g>
  <g
     fill="#8c3d5a"
     fill-opacity="1"
     id="g133">
    <g
       transform="translate(1336.8216,1290.5563)"
       id="g132">
      <g
         id="g131">
        <path
           d="m 38.171875,-73.65625 c 1.28125,0 2.191406,0.273438 2.734375,0.8125 0.539062,0.542969 0.8125,1.449219 0.8125,2.71875 v 58.609375 H 57.5 c 0.894531,0 1.582031,0.164063 2.0625,0.484375 0.488281,0.3125 0.851562,0.886719 1.09375,1.71875 0.25,0.824219 0.375,2.015625 0.375,3.578125 0,1.574219 -0.125,2.777344 -0.375,3.609375 -0.242188,0.824219 -0.605469,1.386719 -1.09375,1.6875 C 59.082031,-0.144531 58.394531,0 57.5,0 H 12.359375 C 11.453125,0 10.753906,-0.144531 10.265625,-0.4375 9.785156,-0.738281 9.421875,-1.300781 9.171875,-2.125 8.929688,-2.957031 8.8125,-4.160156 8.8125,-5.734375 c 0,-1.5625 0.117188,-2.753906 0.359375,-3.578125 0.25,-0.832031 0.613281,-1.40625 1.09375,-1.71875 0.488281,-0.320312 1.1875,-0.484375 2.09375,-0.484375 h 15.3125 V -62.15625 H 14.59375 c -0.898438,0 -1.589844,-0.144531 -2.078125,-0.4375 -0.480469,-0.300781 -0.84375,-0.863281 -1.09375,-1.6875 -0.242187,-0.820312 -0.359375,-2.019531 -0.359375,-3.59375 0,-1.570312 0.117188,-2.769531 0.359375,-3.59375 0.25,-0.820312 0.613281,-1.390625 1.09375,-1.703125 0.488281,-0.320313 1.179687,-0.484375 2.078125,-0.484375 z m 0,0"
           id="path130" />
      </g>
    </g>
  </g>
  <g
     fill="#8c3d5a"
     fill-opacity="1"
     id="g136">
    <g
       transform="translate(1399.0975,1290.5563)"
       id="g135">
      <g
         id="g134">
        <path
           d="m 35.265625,-53.109375 c 5.6875,0 10.53125,1.226563 14.53125,3.671875 4.007813,2.449219 7.03125,5.855469 9.0625,10.21875 2.039063,4.367188 3.0625,9.355469 3.0625,14.96875 0,1.273438 -0.273437,2.167969 -0.8125,2.6875 -0.542969,0.523438 -1.449219,0.78125 -2.71875,0.78125 H 22.34375 c 0.707031,3 2.234375,5.296875 4.578125,6.890625 2.34375,1.585937 5.3125,2.375 8.90625,2.375 5.789063,0 12.078125,-1.023437 18.859375,-3.078125 0.445312,-0.15625 0.894531,-0.234375 1.34375,-0.234375 0.820312,0 1.53125,0.375 2.125,1.125 0.601562,0.75 1.148438,2.027344 1.640625,3.828125 0.375,1.386719 0.5625,2.5625 0.5625,3.53125 0,0.96875 -0.21875,1.730469 -0.65625,2.28125 -0.429687,0.542969 -1.125,0.980469 -2.09375,1.3125 -3.75,1.242188 -7.574219,2.214844 -11.46875,2.921875 -3.886719,0.707031 -7.699219,1.0625 -11.4375,1.0625 -5.699219,0 -10.605469,-1.1640625 -14.71875,-3.484375 -4.117187,-2.320312 -7.25,-5.53125 -9.40625,-9.625 -2.148437,-4.09375 -3.21875,-8.78125 -3.21875,-14.0625 0,-5.238281 1.117187,-9.914062 3.359375,-14.03125 2.25,-4.125 5.488281,-7.34375 9.71875,-9.65625 4.226562,-2.320312 9.171875,-3.484375 14.828125,-3.484375 z m 0,12.734375 c -6.855469,0 -11.089844,2.886719 -12.703125,8.65625 h 24.71875 c -0.648438,-2.738281 -2.007812,-4.863281 -4.078125,-6.375 -2.074219,-1.519531 -4.71875,-2.28125 -7.9375,-2.28125 z m 0,0"
           id="path133" />
      </g>
    </g>
  </g>
</svg>
