<?xml version="1.0" encoding="UTF-8" standalone="no"?>
<svg
   width="1800"
   zoomAndPan="magnify"
   viewBox="0 0 1350 397.49998"
   height="530"
   preserveAspectRatio="xMidYMid"
   version="1.0"
   id="svg136"
   xmlns="http://www.w3.org/2000/svg"
   xmlns:svg="http://www.w3.org/2000/svg">
  <defs
     id="defs1" />
  <g
     id="g1"
     transform="translate(-28.476955,-13.408768)">
    <g
       fill="#111111"
       fill-opacity="1"
       id="g4"
       transform="translate(-2.936111,-197.09417)">
      <g
         transform="translate(31.939777,398.99877)"
         id="g3">
        <g
           id="g2">
          <path
             d="m 46.5,2.5 c -7,0 -12.085938,-1 -15.25,-3 -3.167969,-2 -4.75,-4.664062 -4.75,-8 0,-3.332031 -0.375,-7.707031 -1.125,-13.125 C 24.625,-27.039062 24,-31.332031 23.5,-34.5 c -0.667969,-4.332031 -1.585938,-10.289062 -2.75,-17.875 -1.167969,-7.582031 -2.460938,-16.039062 -3.875,-25.375 -1.417969,-9.332031 -2.835938,-18.832031 -4.25,-28.5 -1.417969,-9.66406 -2.75,-18.66016 -4,-26.98437 -1.25,-8.33204 -2.335938,-15.375 -3.25,-21.125 -0.917969,-5.75 -1.625,-9.28907 -2.125,-10.625 -0.5,-1.83204 -0.75,-3.41407 -0.75,-4.75 0,-2.33204 0.75,-4.25 2.25,-5.75 1.5,-1.5 4,-2.25 7.5,-2.25 4.664062,0 8.375,0.54296 11.125,1.625 2.75,1.08593 4.707031,3.625 5.875,7.625 0.832031,2.66796 2.082031,7.71093 3.75,15.125 1.664062,7.41796 3.082031,15.21093 4.25,23.375 1.164062,7.65624 2.375,15.60937 3.625,23.85937 1.25,8.25 2.332031,15.710938 3.25,22.375 0.914062,6.667969 1.457031,11.75 1.625,15.25 0.332031,4.5 1.414062,6.75 3.25,6.75 2,0 3.082031,-2.25 3.25,-6.75 0.332031,-3.5 0.914062,-8.539062 1.75,-15.125 0.832031,-6.582031 1.875,-13.914062 3.125,-22 1.25,-8.08203 2.457031,-15.95313 3.625,-23.60937 1.332031,-8.16407 2.289062,-14.83204 2.875,-20 0.582031,-5.16407 1.207031,-9.08204 1.875,-11.75 1.332031,-4.33204 3.164062,-6.95704 5.5,-7.875 2.332031,-0.91407 6,-1.375 11,-1.375 4.664062,0 8.414062,0.54296 11.25,1.625 2.832031,1.08593 4.832031,3.625 6,7.625 0.83203,2.66796 1.53906,6.58593 2.125,11.75 0.58203,5.16796 1.45703,11.83593 2.625,20 1.16406,7.65624 2.375,15.52734 3.625,23.60937 1.25,8.085938 2.33203,15.417969 3.25,22 0.91406,6.585938 1.45703,11.625 1.625,15.125 0.33203,4.5 1.41406,6.75 3.25,6.75 2,0 3.08203,-2.25 3.25,-6.75 0.33203,-3.5 0.875,-8.582031 1.625,-15.25 0.75,-6.664062 1.70313,-14.125 2.85938,-22.375 1.16406,-8.25 2.5,-16.20313 4,-23.85937 1.66406,-8.16407 3.33203,-15.95704 4.99999,-23.375 1.66407,-7.41407 2.83204,-12.45704 3.5,-15.125 1.16407,-4 3.03907,-6.53907 5.625,-7.625 2.58204,-1.08204 6.20704,-1.625 10.875,-1.625 3.5,0 6,0.75 7.5,2.25 1.5,1.5 2.25,3.41796 2.25,5.75 0,1.33593 -0.25,2.91796 -0.75,4.75 -0.33593,1.33593 -1,4.875 -2,10.625 -1,5.75 -2.125,12.79296 -3.375,21.125 -1.25,8.32421 -2.58593,17.32031 -4,26.98437 -1.41796,9.667969 -2.83593,19.167969 -4.25,28.5 -1.41796,9.335938 -2.71093,17.792969 -3.875,25.375 -1.16796,7.585938 -2.08593,13.542969 -2.75,17.875 -0.5,3.167969 -1.125,7.460938 -1.875,12.875 -0.75,5.417969 -1.125,9.792969 -1.125,13.125 0,3.335938 -1.58593,6 -4.75,8 -3.16796,2 -8.24609,3 -15.23437,3 -5.66797,0 -10.41797,-1 -14.25,-3 -3.83594,-2 -5.75,-4.664062 -5.75,-8 0,-3.332031 -0.375,-7.707031 -1.125,-13.125 -0.75,-5.414062 -1.375,-9.707031 -1.875,-12.875 -0.335938,-2.332031 -0.875,-6.457031 -1.625,-12.375 -0.75,-5.914062 -1.585938,-12.582031 -2.5,-20 C 90.207031,-74.289062 89.25,-81.5 88.25,-88.5 c -1,-7 -2,-12.78906 -3,-17.375 -1,-4.58203 -1.917969,-6.875 -2.75,-6.875 -1,0 -2.042969,2.29297 -3.125,6.875 -1.085938,4.58594 -2.125,10.375 -3.125,17.375 -1,7 -1.960938,14.210938 -2.875,21.625 -0.917969,7.417969 -1.710938,14.085938 -2.375,20 -0.667969,5.917969 -1.167969,10.042969 -1.5,12.375 -0.5,3.167969 -1.125,7.460938 -1.875,12.875 -0.75,5.417969 -1.125,9.792969 -1.125,13.125 0,3.335938 -1.585938,6 -4.75,8 -3.167969,2 -8.25,3 -15.25,3 z m 0,0"
             id="path1" />
        </g>
      </g>
    </g>
    <g
       fill="#111111"
       fill-opacity="1"
       id="g7"
       transform="translate(-2.936111,-197.09417)">
      <g
         transform="translate(196.68292,398.99877)"
         id="g6">
        <g
           id="g5">
          <path
             d="m 54.25,1.75 c -9,0 -17,-3.625 -24,-10.875 -7,-7.25 -12.542969,-17.707031 -16.625,-31.375 -4.085938,-13.664062 -6.125,-30 -6.125,-49 0,-17.83203 1.957031,-33.36719 5.875,-46.60937 3.914062,-13.25 9.414062,-23.58204 16.5,-31 7.082031,-7.41407 15.207031,-11.125 24.375,-11.125 7,0 13.375,2.16796 19.125,6.5 5.75,4.33593 10.707031,10.41796 14.875,18.25 4,7.66796 7.125,16.91796 9.375,27.74999 2.25,10.82422 3.375,22.90235 3.375,36.23438 0,19 -2,35.335938 -6,49 -4,13.667969 -9.542969,24.125 -16.625,31.375 C 71.289062,-1.875 63.25,1.75 54.25,1.75 Z m 0,-22.75 c 4.5,0 8.414062,-2.957031 11.75,-8.875 3.332031,-5.914062 5.957031,-14.207031 7.875,-24.875 1.914062,-10.664062 2.875,-23 2.875,-37 0,-11.16406 -0.710938,-21.16016 -2.125,-29.98438 -1.417969,-8.83203 -3.542969,-15.99999 -6.375,-21.49999 -4,-8.16407 -8.667969,-12.25 -14,-12.25 -4.5,0 -8.460938,2.66796 -11.875,8 -3.417969,5.33593 -6.042969,12.79296 -7.875,22.37499 -1.835938,9.57422 -2.75,20.69532 -2.75,33.35938 0,14 0.914062,26.335938 2.75,37 1.832031,10.667969 4.457031,18.960938 7.875,24.875 3.414062,5.917969 7.375,8.875 11.875,8.875 z m 0,0"
             id="path4" />
        </g>
      </g>
    </g>
    <g
       fill="#111111"
       fill-opacity="1"
       id="g10"
       transform="translate(-2.936111,-197.09417)">
      <g
         transform="translate(305.17839,398.99877)"
         id="g9">
        <g
           id="g8">
          <path
             d="m 77.5,2.75 c -1.667969,0 -3,-0.167969 -4,-0.5 C 70.332031,1.082031 67.5,-0.789062 65,-3.375 62.5,-5.957031 59.832031,-9.582031 57,-14.25 53.832031,-19.414062 50.375,-25.664062 46.625,-33 c -3.75,-7.332031 -6.375,-14.164062 -7.875,-20.5 -0.335938,-1.664062 -1.167969,-2.5 -2.5,-2.5 -0.835938,0 -1.417969,0.5 -1.75,1.5 -0.667969,2.167969 -1,6.5 -1,13 0,1.5 0,3.167969 0,5 0,1.835938 0.08203,3.917969 0.25,6.25 0.164062,2.167969 0.25,4.625 0.25,7.375 0,2.75 0,5.167969 0,7.25 0,2.085938 0,3.125 0,3.125 0,4.167969 -0.625,7.667969 -1.875,10.5 C 30.875,0.832031 27.164062,2.25 21,2.25 16.164062,2.25 12.832031,0.832031 11,-2 9.164062,-4.832031 8.25,-8.332031 8.25,-12.5 c 0,0 0,-1.039062 0,-3.125 0,-2.082031 0.039062,-4.5 0.125,-7.25 0.082031,-2.75 0.125,-5.207031 0.125,-7.375 0.164062,-7.5 0.289062,-14.664062 0.375,-21.5 0.082031,-6.832031 0.125,-13.5 0.125,-20 0,-9.832031 -0.042969,-19.664062 -0.125,-29.5 -0.085938,-9.83203 -0.210938,-20.32813 -0.375,-31.48437 0,-4 -0.167969,-8.33204 -0.5,-13 -0.335938,-4.66407 -0.5,-9.16407 -0.5,-13.5 0,-7.83204 2.707031,-13.125 8.125,-15.875 5.414062,-2.75 12.875,-4.125 22.375,-4.125 7,0 13.039062,1.79296 18.125,5.375 5.082031,3.58593 9.332031,8.21093 12.75,13.875 3.414062,5.66796 6.125,11.75 8.125,18.25 2,6.5 3.414062,12.71093 4.25,18.62499 0.832031,5.90625 1.25,10.85938 1.25,14.85938 0,9.5 -1.167969,17.25 -3.5,23.25 -2.335938,6 -4.835938,10.25 -7.5,12.75 -2,1.667969 -3.875,3.210938 -5.625,4.625 -1.75,1.417969 -3.460938,2.542969 -5.125,3.375 1.332031,5.667969 3.125,11.417969 5.375,17.25 2.25,5.835938 4.875,11.167969 7.875,16 3.832031,6.167969 6.875,10.75 9.125,13.75 2.25,3 3.875,5.292969 4.875,6.875 1,1.585938 1.5,3.375 1.5,5.375 0,3 -1.417969,5.0390625 -4.25,6.125 C 82.414062,2.207031 79.832031,2.75 77.5,2.75 Z M 44,-87.75 c 4.164062,0 7.5,-2.625 10,-7.875 2.5,-5.25 3.75,-12.20703 3.75,-20.875 0,-7.48828 -0.917969,-14.27344 -2.75,-20.35937 -1.835938,-6.08204 -4.125,-10.91407 -6.875,-14.5 -2.75,-3.58204 -5.710938,-5.375 -8.875,-5.375 -3,0 -4.792969,1.46093 -5.375,4.375 -0.585938,2.91796 -0.792969,7.46093 -0.625,13.625 V -99.25 c 0,3.335938 0.832031,6.085938 2.5,8.25 1.664062,2.167969 4.414062,3.25 8.25,3.25 z m 0,0"
             id="path7" />
        </g>
      </g>
    </g>
    <g
       fill="#111111"
       fill-opacity="1"
       id="g13"
       transform="translate(-2.936111,-197.09417)">
      <g
         transform="translate(395.17465,398.99877)"
         id="g12">
        <g
           id="g11">
          <path
             d="M 39,2 C 34.5,2 31.039062,1.914062 28.625,1.75 26.207031,1.582031 23.082031,0.914062 19.25,-0.25 15.582031,-1.414062 12.832031,-2.707031 11,-4.125 9.164062,-5.539062 8.25,-8.332031 8.25,-12.5 c 0,0 0,-1.039062 0,-3.125 0,-2.082031 0.039062,-4.5 0.125,-7.25 0.082031,-2.75 0.125,-5.207031 0.125,-7.375 0.164062,-7.5 0.289062,-14.664062 0.375,-21.5 0.082031,-6.832031 0.125,-13.5 0.125,-20 0,-9.832031 -0.042969,-19.664062 -0.125,-29.5 -0.085938,-9.83203 -0.210938,-20.32813 -0.375,-31.48437 0,-4 -0.167969,-8.33204 -0.5,-13 -0.335938,-4.66407 -0.5,-9.16407 -0.5,-13.5 0,-6.16407 1.207031,-10.66407 3.625,-13.5 2.414062,-2.83204 5.914062,-4.625 10.5,-5.375 4.582031,-0.75 10.039062,-1.125 16.375,-1.125 9,0 16.957031,3 23.875,9 6.914062,6 12.75,13.91796 17.5,23.75 4.75,9.83593 8.332031,20.54296 10.75,32.12499 2.414062,11.57422 3.625,22.945318 3.625,34.10938 0,10 -0.875,19.875 -2.625,29.625 -1.75,9.75 -4.667969,18.585938 -8.75,26.5 -4.085938,7.917969 -9.667969,14.25 -16.75,19 C 58.539062,-0.375 49.664062,2 39,2 Z m 5,-24 c 7.664062,0 13.832031,-5.207031 18.5,-15.625 4.664062,-10.414062 7,-24.207031 7,-41.375 0,-15.832031 -1.667969,-29.53516 -5,-41.10938 -3.335938,-11.58203 -7.335938,-20.58203 -12,-26.99999 -4.667969,-6.41407 -9,-9.625 -13,-9.625 -3.167969,0 -5.042969,1.46093 -5.625,4.375 -0.585938,2.91796 -0.875,7.46093 -0.875,13.625 V -33.5 c 0,3.335938 0.875,6.085938 2.625,8.25 1.75,2.167969 4.539062,3.25 8.375,3.25 z m 0,0"
             id="path10" />
        </g>
      </g>
    </g>
  </g>
  <g
     fill="#111111"
     fill-opacity="1"
     id="g16"
     transform="translate(-31.413066,-237.50294)">
    <g
       transform="translate(31.939777,623.24875)"
       id="g15">
      <g
         id="g14">
        <path
           d="M 22.75,2.5 C 19.582031,2.5 16.375,1.707031 13.125,0.125 9.875,-1.457031 8.25,-5.082031 8.25,-10.75 c 0,0 0,-1.039062 0,-3.125 0,-2.082031 0.039062,-4.5 0.125,-7.25 C 8.457031,-23.875 8.5,-26.332031 8.5,-28.5 8.664062,-36 8.789062,-43.457031 8.875,-50.875 8.957031,-58.289062 9,-65.25 9,-71.75 c 0,-9.832031 -0.042969,-19.664062 -0.125,-29.5 -0.085938,-9.83203 -0.210938,-20.32813 -0.375,-31.48437 0,-4 -0.167969,-8.33204 -0.5,-13 -0.335938,-4.66407 -0.5,-9.16407 -0.5,-13.5 0,-4.33204 0.582031,-8.28907 1.75,-11.875 1.164062,-3.58204 3.75,-5.45704 7.75,-5.625 2,0 5.375,0.043 10.125,0.125 4.75,0.0859 9.875,0.21093 15.375,0.375 5.5,0.16796 10.5,0.29296 15,0.375 4.5,0.0859 7.5,0.125 9,0.125 3.164062,0 5.664062,0.96093 7.5,2.875 1.832031,1.91796 2.75,3.875 2.75,5.875 0,4 -1.125,7 -3.375,9 -2.25,2 -5.125,3.375 -8.625,4.125 -3.5,0.75 -7,1.125 -10.5,1.125 -3.835938,0 -7.417969,-0.0391 -10.75,-0.125 -3.335938,-0.082 -5.960938,0.5 -7.875,1.75 -1.917969,1.25 -2.875,3.875 -2.875,7.875 0,2.33593 0.03906,5.79296 0.125,10.375 0.08203,4.58593 0.125,9.46093 0.125,14.62499 0,5.15625 0.03906,9.85938 0.125,14.10938 0.08203,4.25 0.125,7.292969 0.125,9.125 0,3.667969 0.664062,6.042969 2,7.125 1.332031,1.085938 3.164062,1.625 5.5,1.625 3.332031,0 6.875,0.335938 10.625,1 3.75,0.667969 7,1.875 9.75,3.625 2.75,1.75 4.125,4.460938 4.125,8.125 0,2.335938 -1.125,4.125 -3.375,5.375 -2.25,1.25 -4.960938,2.125 -8.125,2.625 -3.167969,0.5 -6.167969,0.792969 -9,0.875 -2.835938,0.08594 -4.917969,0.125 -6.25,0.125 -1.667969,0 -3.167969,0.710938 -4.5,2.125 -1.335938,1.417969 -2,3.125 -2,5.125 v 26.5 c 0,4.335938 1.457031,6.75 4.375,7.25 2.914062,0.5 7.125,0.75 12.625,0.75 3.664062,0 7.664062,0.25 12,0.75 4.332031,0.5 8.082031,1.792969 11.25,3.875 3.164062,2.085938 4.75,5.375 4.75,9.875 0,2.335938 -1.667969,4.042969 -5,5.125 C 68.664062,-2.039062 64.539062,-1.332031 59.625,-1 54.707031,-0.664062 49.664062,-0.332031 44.5,0 39.5,0.164062 34.957031,0.625 30.875,1.375 26.789062,2.125 24.082031,2.5 22.75,2.5 Z m 0,0"
           id="path13" />
      </g>
    </g>
  </g>
  <g
     fill="#111111"
     fill-opacity="1"
     id="g19"
     transform="translate(-31.413066,-237.50294)">
    <g
       transform="translate(116.43623,623.24875)"
       id="g18">
      <g
         id="g17">
        <path
           d="M 19.75,2 C 18.25,2 16.332031,1.707031 14,1.125 11.664062,0.539062 9.582031,-0.414062 7.75,-1.75 5.914062,-3.082031 5,-4.832031 5,-7 c 0,-0.832031 0.082031,-1.664062 0.25,-2.5 0.164062,-0.832031 0.664062,-2.25 1.5,-4.25 V -14 l 0.25,-0.75 8.5,-19.5 20,-40.25 c 1.332031,-2.5 2.207031,-4.832031 2.625,-7 0.414062,-2.164062 0.625,-4.414062 0.625,-6.75 0,-4 -0.75,-8.25 -2.25,-12.75 -2.335938,-6.66406 -4.875,-13.53516 -7.625,-20.60938 -2.75,-7.08203 -5.417969,-13.78906 -8,-20.12499 -2.585938,-6.33204 -4.792969,-11.66407 -6.625,-16 -1.835938,-4.33204 -3.085938,-7.08204 -3.75,-8.25 -0.667969,-1.16407 -1,-2.41407 -1,-3.75 0,-2.16407 0.789062,-4.08204 2.375,-5.75 1.582031,-1.66407 3.707031,-2.5 6.375,-2.5 3.832031,0 7,0.33593 9.5,1 2.5,0.66796 4.832031,2.41796 7,5.25 l 16.5,46.49999 c 1,3.15625 2.664062,4.73438 5,4.73438 2.332031,0 4,-1.57813 5,-4.73438 l 16.5,-46.49999 c 2.332031,-2.83204 4.707031,-4.58204 7.125,-5.25 2.414062,-0.66407 5.539062,-1 9.375,-1 2.664062,0 4.789062,0.83593 6.375,2.5 1.58203,1.66796 2.375,3.58593 2.375,5.75 0,1.33593 -0.33594,2.58593 -1,3.75 -0.66797,1.16796 -1.91797,3.91796 -3.75,8.25 -1.835938,4.33593 -4.042969,9.66796 -6.625,16 -2.585938,6.33593 -5.25,13.04296 -8,20.12499 -2.75,7.07422 -5.292969,13.94532 -7.625,20.60938 -1.5,4.5 -2.25,8.75 -2.25,12.75 0,2.335938 0.25,4.585938 0.75,6.75 0.5,2.167969 1.332031,4.5 2.5,7 l 20,40.25 8.5,19.5 0.25,0.75 v 0.25 c 0.83203,2 1.33203,3.417969 1.5,4.25 0.16406,0.835938 0.25,1.667969 0.25,2.5 0,2.167969 -0.91797,3.917969 -2.75,5.25 -1.83594,1.335938 -3.91797,2.289062 -6.25,2.875 C 96.164062,1.707031 94.25,2 92.75,2 c -4,0 -7,-1.125 -9,-3.375 -2,-2.25 -3.585938,-4.539062 -4.75,-6.875 -0.667969,-1.5 -1.960938,-4.707031 -3.875,-9.625 -1.917969,-4.914062 -4.085938,-10.289062 -6.5,-16.125 -2.417969,-5.832031 -4.792969,-11 -7.125,-15.5 -1.335938,-2.832031 -3.085938,-4.25 -5.25,-4.25 -2,0 -3.75,1.417969 -5.25,4.25 -2.335938,4.5 -4.710938,9.667969 -7.125,15.5 -2.417969,5.835938 -4.542969,11.210938 -6.375,16.125 -1.835938,4.917969 -3.167969,8.125 -4,9.625 -1.167969,2.335938 -2.75,4.625 -4.75,6.875 -2,2.25 -5,3.375 -9,3.375 z m 0,0"
           id="path16" />
      </g>
    </g>
  </g>
  <g
     fill="#111111"
     fill-opacity="1"
     id="g22"
     transform="translate(-31.413066,-237.50294)">
    <g
       transform="translate(228.93153,623.24875)"
       id="g21">
      <g
         id="g20">
        <path
           d="M 21,2.25 C 16.164062,2.25 12.832031,0.832031 11,-2 9.164062,-4.832031 8.25,-8.332031 8.25,-12.5 c 0,0 0,-1.039062 0,-3.125 0,-2.082031 0.039062,-4.5 0.125,-7.25 0.082031,-2.75 0.125,-5.207031 0.125,-7.375 0.164062,-7.5 0.289062,-14.664062 0.375,-21.5 0.082031,-6.832031 0.125,-13.5 0.125,-20 0,-9.832031 -0.042969,-19.664062 -0.125,-29.5 -0.085938,-9.83203 -0.210938,-20.32813 -0.375,-31.48437 0,-4 -0.167969,-8.95704 -0.5,-14.875 -0.335938,-5.91407 -0.5,-11.03907 -0.5,-15.375 0,-5.33204 1.207031,-9.125 3.625,-11.375 2.414062,-2.25 5.914062,-3.625 10.5,-4.125 4.582031,-0.5 10.039062,-0.75 16.375,-0.75 8.832031,0 16.125,2.21093 21.875,6.625 5.75,4.41796 10.25,10.21093 13.5,17.375 3.25,7.16796 5.582031,14.875 7,23.125 1.414062,8.24218 2.125,16.19531 2.125,23.85937 0,15.167969 -3.667969,27.125 -11,35.875 -7.335938,8.75 -16.835938,13.125 -28.5,13.125 -2.667969,0.167969 -4.875,0.542969 -6.625,1.125 -1.75,0.585938 -2.625,2.960938 -2.625,7.125 v 38.5 c 0,4.167969 -0.917969,7.667969 -2.75,10.5 -1.835938,2.832031 -5.167969,4.25 -10,4.25 z m 23,-90 c 4.164062,0 7.5,-2.625 10,-7.875 2.5,-5.25 3.75,-12.20703 3.75,-20.875 0,-7.48828 -0.917969,-14.27344 -2.75,-20.35937 -1.835938,-6.08204 -4.125,-10.91407 -6.875,-14.5 -2.75,-3.58204 -5.710938,-5.375 -8.875,-5.375 -3,0 -4.792969,1.46093 -5.375,4.375 -0.585938,2.91796 -0.875,7.46093 -0.875,13.625 L 33.25,-99.25 c 0,3.335938 0.832031,6.085938 2.5,8.25 1.664062,2.167969 4.414062,3.25 8.25,3.25 z m 0,0"
           id="path19" />
      </g>
    </g>
  </g>
  <g
     fill="#111111"
     fill-opacity="1"
     id="g25"
     transform="translate(-31.413066,-237.50294)">
    <g
       transform="translate(321.17773,623.24875)"
       id="g24">
      <g
         id="g23">
        <path
           d="M 22.75,2.5 C 19.582031,2.5 16.375,1.707031 13.125,0.125 9.875,-1.457031 8.25,-5.082031 8.25,-10.75 c 0,0 0,-1.039062 0,-3.125 0,-2.082031 0.039062,-4.5 0.125,-7.25 C 8.457031,-23.875 8.5,-26.332031 8.5,-28.5 8.664062,-36 8.789062,-43.457031 8.875,-50.875 8.957031,-58.289062 9,-65.25 9,-71.75 c 0,-9.832031 -0.042969,-19.664062 -0.125,-29.5 -0.085938,-9.83203 -0.210938,-20.32813 -0.375,-31.48437 0,-4.33204 -0.167969,-9.08204 -0.5,-14.25 -0.335938,-5.16407 -0.5,-10.08204 -0.5,-14.75 0,-4 0.582031,-7.5 1.75,-10.5 1.164062,-3 4.832031,-4.5 11,-4.5 6.664062,0 10.75,1.16796 12.25,3.5 1.5,2.33593 2.25,5.16796 2.25,8.5 0,5 -0.125,10.375 -0.375,16.125 -0.25,5.75 -0.460938,11.04296 -0.625,15.875 L 32.75,-95 v 64.25 c 0,4.335938 1.332031,6.75 4,7.25 2.664062,0.5 6.75,0.75 12.25,0.75 3.664062,0 7.664062,0.25 12,0.75 4.332031,0.5 8.082031,1.792969 11.25,3.875 3.164062,2.085938 4.75,5.375 4.75,9.875 0,3.667969 -1.542969,5.960938 -4.625,6.875 C 69.289062,-0.457031 66.332031,0 63.5,0 H 45.75 c -5,0 -9.335938,0.414062 -13,1.25 -3.667969,0.832031 -7,1.25 -10,1.25 z m 0,0"
           id="path22" />
      </g>
    </g>
  </g>
  <g
     fill="#111111"
     fill-opacity="1"
     id="g28"
     transform="translate(-31.413066,-237.50294)">
    <g
       transform="translate(400.67438,623.24875)"
       id="g27">
      <g
         id="g26">
        <path
           d="m 13.75,2.5 c -3.5,0 -6,-0.792969 -7.5,-2.375 C 4.75,-1.457031 4,-3.332031 4,-5.5 4,-7 4.25,-8.582031 4.75,-10.25 c 0.5,-1.332031 1.332031,-4.875 2.5,-10.625 1.164062,-5.75 2.582031,-12.789062 4.25,-21.125 1.664062,-8.332031 3.414062,-17.332031 5.25,-27 1.832031,-9.664062 3.625,-19.164062 5.375,-28.5 1.75,-9.33203 3.332031,-17.82813 4.75,-25.48438 1.414062,-7.66406 2.457031,-13.58203 3.125,-17.74999 0.5,-3.16407 1.125,-7.45704 1.875,-12.875 0.75,-5.41407 1.125,-9.78907 1.125,-13.125 0,-3.33204 1.207031,-6 3.625,-8 2.414062,-2 5.875,-3 10.375,-3 4.5,0 7.957031,1 10.375,3 2.414062,2 3.625,4.66796 3.625,8 0,3.33593 0.375,7.71093 1.125,13.125 0.75,5.41796 1.375,9.71093 1.875,12.875 0.664062,4.16796 1.707031,10.08593 3.125,17.74999 1.414062,7.65625 3,16.15235 4.75,25.48438 1.75,9.335938 3.539062,18.835938 5.375,28.5 1.832031,9.667969 3.582031,18.667969 5.25,27 1.664062,8.335938 3.125,15.375 4.375,21.125 1.25,5.75 2.039062,9.292969 2.375,10.625 0.5,1.667969 0.75,3.25 0.75,4.75 0,2.167969 -0.75,4.042969 -2.25,5.625 -1.5,1.582031 -4,2.375 -7.5,2.375 C 75.582031,2.5 72.164062,1.957031 70,0.875 67.832031,-0.207031 66.164062,-2.75 65,-6.75 64.332031,-9.582031 63.75,-12 63.25,-14 c -0.5,-2 -1.085938,-3.832031 -1.75,-5.5 -0.835938,-2.5 -2.292969,-4.664062 -4.375,-6.5 -2.085938,-1.832031 -5.460938,-2.75 -10.125,-2.75 -4.667969,0 -8.042969,0.917969 -10.125,2.75 -2.085938,1.835938 -3.542969,4 -4.375,6.5 -0.667969,1.667969 -1.210938,3.5 -1.625,5.5 -0.417969,2 -1.042969,4.417969 -1.875,7.25 -1.167969,4 -2.835938,6.542969 -5,7.625 C 21.832031,1.957031 18.414062,2.5 13.75,2.5 Z M 47,-49.5 c 2.5,0 4.664062,-0.375 6.5,-1.125 1.832031,-0.75 2.582031,-2.707031 2.25,-5.875 -0.167969,-1.5 -0.5,-4.457031 -1,-8.875 -0.5,-4.414062 -1.125,-9.375 -1.875,-14.875 -0.75,-5.5 -1.460938,-10.875 -2.125,-16.125 -0.667969,-5.25 -1.335938,-9.58203 -2,-13 -0.667969,-3.41406 -1.25,-5.125 -1.75,-5.125 -0.5,0 -1.085938,1.71094 -1.75,5.125 -0.667969,3.41797 -1.335938,7.75 -2,13 -0.667969,5.25 -1.375,10.625 -2.125,16.125 -0.75,5.5 -1.375,10.460938 -1.875,14.875 -0.5,4.417969 -0.835938,7.375 -1,8.875 -0.335938,3.167969 0.457031,5.125 2.375,5.875 1.914062,0.75 4.039062,1.125 6.375,1.125 z m 0,0"
           id="path25" />
      </g>
    </g>
  </g>
  <g
     fill="#111111"
     fill-opacity="1"
     id="g31"
     transform="translate(-31.413066,-237.50294)">
    <g
       transform="translate(498.1703,623.24875)"
       id="g30">
      <g
         id="g29">
        <path
           d="M 21,2.25 C 16.164062,2.25 12.832031,0.832031 11,-2 9.164062,-4.832031 8.25,-8.332031 8.25,-12.5 c 0,0 0,-1.039062 0,-3.125 0,-2.082031 0.039062,-4.5 0.125,-7.25 0.082031,-2.75 0.125,-5.207031 0.125,-7.375 0.164062,-7.5 0.289062,-14.664062 0.375,-21.5 0.082031,-6.832031 0.125,-13.5 0.125,-20 0,-9.832031 -0.042969,-19.664062 -0.125,-29.5 -0.085938,-9.83203 -0.210938,-20.32813 -0.375,-31.48437 0,-4.33204 -0.167969,-9.08204 -0.5,-14.25 -0.335938,-5.16407 -0.5,-10.08204 -0.5,-14.75 0,-4 0.582031,-7.5 1.75,-10.5 1.164062,-3 4.832031,-4.5 11,-4.5 6.664062,0 10.75,1.16796 12.25,3.5 1.5,2.33593 2.25,5.16796 2.25,8.5 0,5 -0.167969,10.375 -0.5,16.125 -0.335938,5.75 -0.5,11.04296 -0.5,15.875 L 33.5,-84 33.25,-54.5 c 0.164062,3.835938 0.25,7.75 0.25,11.75 0,4 0.08203,8.167969 0.25,12.5 0.164062,2.167969 0.25,4.625 0.25,7.375 0,2.75 0,5.167969 0,7.25 0,2.085938 0,3.125 0,3.125 0,4.167969 -0.625,7.667969 -1.875,10.5 C 30.875,0.832031 27.164062,2.25 21,2.25 Z m 0,0"
           id="path28" />
      </g>
    </g>
  </g>
  <g
     fill="#111111"
     fill-opacity="1"
     id="g34"
     transform="translate(-31.413066,-237.50294)">
    <g
       transform="translate(540.41854,623.24875)"
       id="g33">
      <g
         id="g32">
        <path
           d="m 103.5,-54.5 c 0.16406,3.835938 0.25,7.75 0.25,11.75 0,4 0.082,8.167969 0.25,12.5 0.16406,2.167969 0.25,4.625 0.25,7.375 0,2.75 0,5.167969 0,7.25 0,2.085938 0,3.125 0,3.125 0,4.167969 -0.625,7.667969 -1.875,10.5 -1.25,2.832031 -4.960938,4.25 -11.125,4.25 -7,0 -12.335938,-1.210938 -16,-3.625 C 71.582031,-3.789062 68.832031,-7.832031 67,-13.5 L 40.5,-95.25 c -0.667969,-2 -1.917969,-3 -3.75,-3 -2,0 -3.167969,1.25 -3.5,3.75 v 40 c 0.164062,3.835938 0.25,7.75 0.25,11.75 0,4 0.08203,8.167969 0.25,12.5 0.164062,2.167969 0.25,4.625 0.25,7.375 0,2.75 0,5.167969 0,7.25 0,2.085938 0,3.125 0,3.125 0,4.167969 -0.625,7.667969 -1.875,10.5 C 30.875,0.832031 27.164062,2.25 21,2.25 16.164062,2.25 12.832031,0.832031 11,-2 9.164062,-4.832031 8.25,-8.332031 8.25,-12.5 c 0,0 0,-1.039062 0,-3.125 0,-2.082031 0.039062,-4.5 0.125,-7.25 0.082031,-2.75 0.125,-5.207031 0.125,-7.375 0.164062,-7.5 0.289062,-14.664062 0.375,-21.5 0.082031,-6.832031 0.125,-13.5 0.125,-20 0,-9.832031 -0.042969,-19.664062 -0.125,-29.5 -0.085938,-9.83203 -0.210938,-20.32813 -0.375,-31.48437 0,-4.33204 -0.167969,-9.08204 -0.5,-14.25 -0.335938,-5.16407 -0.5,-10.08204 -0.5,-14.75 0,-3.83204 0.582031,-7.25 1.75,-10.25 1.164062,-3 4.582031,-4.58204 10.25,-4.75 h 0.75 c 5,0 9.082031,0.21093 12.25,0.625 3.164062,0.41796 5.664062,2.875 7.5,7.375 0.5,1.33593 1.625,4.46093 3.375,9.375 1.75,4.91796 3.832031,11.04296 6.25,18.375 2.414062,7.33593 5.039062,15.24999 7.875,23.74999 2.832031,8.49219 5.664062,16.94532 8.5,25.35938 2.832031,8.417969 5.5,16.125 8,23.125 0.832031,2 1.914062,3 3.25,3 1.664062,0 2.5,-1.25 2.5,-3.75 0,-9.5 -0.125,-19.789062 -0.375,-30.875 -0.25,-11.08203 -0.460938,-21.86719 -0.625,-32.35937 0,-4.33204 -0.167969,-9.08204 -0.5,-14.25 -0.335938,-5.16407 -0.5,-10.08204 -0.5,-14.75 0,-4 0.582031,-7.5 1.75,-10.5 1.164062,-3 4.832031,-4.5 11,-4.5 6.664062,0 10.75,1.16796 12.25,3.5 1.5,2.33593 2.25,5.16796 2.25,8.5 0,5 -0.16797,10.375 -0.5,16.125 -0.33594,5.75 -0.5,11.04296 -0.5,15.875 L 103.5,-84 Z m 0,0"
           id="path31" />
      </g>
    </g>
  </g>
  <g
     fill="#111111"
     fill-opacity="1"
     id="g37"
     transform="translate(-31.413066,-237.50294)">
    <g
       transform="translate(652.91386,623.24875)"
       id="g36">
      <g
         id="g35">
        <path
           d="M 22.75,2.5 C 19.582031,2.5 16.375,1.707031 13.125,0.125 9.875,-1.457031 8.25,-5.082031 8.25,-10.75 c 0,0 0,-1.039062 0,-3.125 0,-2.082031 0.039062,-4.5 0.125,-7.25 C 8.457031,-23.875 8.5,-26.332031 8.5,-28.5 8.664062,-36 8.789062,-43.457031 8.875,-50.875 8.957031,-58.289062 9,-65.25 9,-71.75 c 0,-9.832031 -0.042969,-19.664062 -0.125,-29.5 -0.085938,-9.83203 -0.210938,-20.32813 -0.375,-31.48437 0,-4 -0.167969,-8.33204 -0.5,-13 -0.335938,-4.66407 -0.5,-9.16407 -0.5,-13.5 0,-4.33204 0.582031,-8.28907 1.75,-11.875 1.164062,-3.58204 3.75,-5.45704 7.75,-5.625 2,0 5.375,0.043 10.125,0.125 4.75,0.0859 9.875,0.21093 15.375,0.375 5.5,0.16796 10.5,0.29296 15,0.375 4.5,0.0859 7.5,0.125 9,0.125 3.164062,0 5.664062,0.96093 7.5,2.875 1.832031,1.91796 2.75,3.875 2.75,5.875 0,4 -1.125,7 -3.375,9 -2.25,2 -5.125,3.375 -8.625,4.125 -3.5,0.75 -7,1.125 -10.5,1.125 -3.835938,0 -7.417969,-0.0391 -10.75,-0.125 -3.335938,-0.082 -5.960938,0.5 -7.875,1.75 -1.917969,1.25 -2.875,3.875 -2.875,7.875 0,2.33593 0.03906,5.79296 0.125,10.375 0.08203,4.58593 0.125,9.46093 0.125,14.62499 0,5.15625 0.03906,9.85938 0.125,14.10938 0.08203,4.25 0.125,7.292969 0.125,9.125 0,3.667969 0.664062,6.042969 2,7.125 1.332031,1.085938 3.164062,1.625 5.5,1.625 3.332031,0 6.875,0.335938 10.625,1 3.75,0.667969 7,1.875 9.75,3.625 2.75,1.75 4.125,4.460938 4.125,8.125 0,2.335938 -1.125,4.125 -3.375,5.375 -2.25,1.25 -4.960938,2.125 -8.125,2.625 -3.167969,0.5 -6.167969,0.792969 -9,0.875 -2.835938,0.08594 -4.917969,0.125 -6.25,0.125 -1.667969,0 -3.167969,0.710938 -4.5,2.125 -1.335938,1.417969 -2,3.125 -2,5.125 v 26.5 c 0,4.335938 1.457031,6.75 4.375,7.25 2.914062,0.5 7.125,0.75 12.625,0.75 3.664062,0 7.664062,0.25 12,0.75 4.332031,0.5 8.082031,1.792969 11.25,3.875 3.164062,2.085938 4.75,5.375 4.75,9.875 0,2.335938 -1.667969,4.042969 -5,5.125 C 68.664062,-2.039062 64.539062,-1.332031 59.625,-1 54.707031,-0.664062 49.664062,-0.332031 44.5,0 39.5,0.164062 34.957031,0.625 30.875,1.375 26.789062,2.125 24.082031,2.5 22.75,2.5 Z m 0,0"
           id="path34" />
      </g>
    </g>
  </g>
  <g
     fill="#111111"
     fill-opacity="1"
     id="g40"
     transform="translate(-31.413066,-237.50294)">
    <g
       transform="translate(737.4103,623.24875)"
       id="g39">
      <g
         id="g38">
        <path
           d="m 77.5,2.75 c -1.667969,0 -3,-0.167969 -4,-0.5 C 70.332031,1.082031 67.5,-0.789062 65,-3.375 62.5,-5.957031 59.832031,-9.582031 57,-14.25 53.832031,-19.414062 50.375,-25.664062 46.625,-33 c -3.75,-7.332031 -6.375,-14.164062 -7.875,-20.5 -0.335938,-1.664062 -1.167969,-2.5 -2.5,-2.5 -0.835938,0 -1.417969,0.5 -1.75,1.5 -0.667969,2.167969 -1,6.5 -1,13 0,1.5 0,3.167969 0,5 0,1.835938 0.08203,3.917969 0.25,6.25 0.164062,2.167969 0.25,4.625 0.25,7.375 0,2.75 0,5.167969 0,7.25 0,2.085938 0,3.125 0,3.125 0,4.167969 -0.625,7.667969 -1.875,10.5 C 30.875,0.832031 27.164062,2.25 21,2.25 16.164062,2.25 12.832031,0.832031 11,-2 9.164062,-4.832031 8.25,-8.332031 8.25,-12.5 c 0,0 0,-1.039062 0,-3.125 0,-2.082031 0.039062,-4.5 0.125,-7.25 0.082031,-2.75 0.125,-5.207031 0.125,-7.375 0.164062,-7.5 0.289062,-14.664062 0.375,-21.5 0.082031,-6.832031 0.125,-13.5 0.125,-20 0,-9.832031 -0.042969,-19.664062 -0.125,-29.5 -0.085938,-9.83203 -0.210938,-20.32813 -0.375,-31.48437 0,-4 -0.167969,-8.33204 -0.5,-13 -0.335938,-4.66407 -0.5,-9.16407 -0.5,-13.5 0,-7.83204 2.707031,-13.125 8.125,-15.875 5.414062,-2.75 12.875,-4.125 22.375,-4.125 7,0 13.039062,1.79296 18.125,5.375 5.082031,3.58593 9.332031,8.21093 12.75,13.875 3.414062,5.66796 6.125,11.75 8.125,18.25 2,6.5 3.414062,12.71093 4.25,18.62499 0.832031,5.90625 1.25,10.85938 1.25,14.85938 0,9.5 -1.167969,17.25 -3.5,23.25 -2.335938,6 -4.835938,10.25 -7.5,12.75 -2,1.667969 -3.875,3.210938 -5.625,4.625 -1.75,1.417969 -3.460938,2.542969 -5.125,3.375 1.332031,5.667969 3.125,11.417969 5.375,17.25 2.25,5.835938 4.875,11.167969 7.875,16 3.832031,6.167969 6.875,10.75 9.125,13.75 2.25,3 3.875,5.292969 4.875,6.875 1,1.585938 1.5,3.375 1.5,5.375 0,3 -1.417969,5.0390625 -4.25,6.125 C 82.414062,2.207031 79.832031,2.75 77.5,2.75 Z M 44,-87.75 c 4.164062,0 7.5,-2.625 10,-7.875 2.5,-5.25 3.75,-12.20703 3.75,-20.875 0,-7.48828 -0.917969,-14.27344 -2.75,-20.35937 -1.835938,-6.08204 -4.125,-10.91407 -6.875,-14.5 -2.75,-3.58204 -5.710938,-5.375 -8.875,-5.375 -3,0 -4.792969,1.46093 -5.375,4.375 -0.585938,2.91796 -0.792969,7.46093 -0.625,13.625 V -99.25 c 0,3.335938 0.832031,6.085938 2.5,8.25 1.664062,2.167969 4.414062,3.25 8.25,3.25 z m 0,0"
           id="path37" />
      </g>
    </g>
  </g>
  <g
     id="g139"
     transform="matrix(1.0152621,0,0,1.0152621,-108.28504,-10.186174)">
    <g
       id="g137">
      <g
         id="g117"
         transform="translate(5.1136358)">
        <g
           fill="#8c3d5a"
           fill-opacity="1"
           id="g43"
           transform="translate(-2.936111,-197.09417)">
          <g
             transform="translate(641.04409,287.70641)"
             id="g42">
            <g
               id="g41">
              <path
                 d="m 33.734375,-60.515625 c 4.59375,-0.09375 9.207031,0.679687 13.84375,2.3125 0.757813,0.25 1.332031,0.625 1.71875,1.125 0.394531,0.492187 0.601563,1.164063 0.625,2.015625 0.01953,0.78125 -0.109375,1.71875 -0.390625,2.8125 -0.34375,1.34375 -0.777344,2.308594 -1.296875,2.890625 -0.511719,0.585937 -1.132813,0.886719 -1.859375,0.90625 -0.367188,0 -0.808594,-0.06641 -1.328125,-0.203125 -3.867187,-1.101562 -7.230469,-1.625 -10.09375,-1.5625 -3.90625,0.07422 -5.808594,2.625 -5.703125,7.65625 l 0.04687,2.71875 14.109375,-0.28125 c 1.050781,-0.01953 1.796875,0.3125 2.234375,1 0.445313,0.6875 0.691406,1.964844 0.734375,3.828125 0.03906,1.875 -0.148438,3.164063 -0.5625,3.859375 -0.417969,0.6875 -1.152344,1.042969 -2.203125,1.0625 L 29.5,-30.09375 l 0.421875,20.15625 12.75,-0.25 c 0.71875,-0.01953 1.273437,0.101562 1.671875,0.359375 0.40625,0.25 0.710938,0.703125 0.921875,1.359375 0.207031,0.65625 0.328125,1.625 0.359375,2.90625 0.01953,1.273438 -0.0625,2.242188 -0.25,2.90625 -0.179688,0.667969 -0.464844,1.125 -0.859375,1.375 -0.386719,0.25 -0.9375,0.386719 -1.65625,0.40625 L 10.4375,-0.21875 C 9.71875,-0.195312 9.15625,-0.304688 8.75,-0.546875 8.351562,-0.785156 8.046875,-1.234375 7.828125,-1.890625 7.617188,-2.546875 7.503906,-3.507812 7.484375,-4.78125 7.453125,-6.0625 7.53125,-7.035156 7.71875,-7.703125 7.90625,-8.367188 8.191406,-8.832031 8.578125,-9.09375 8.972656,-9.363281 9.53125,-9.507812 10.25,-9.53125 l 8.3125,-0.171875 -0.421875,-20.15625 -8.3125,0.171875 C 8.773438,-29.664062 8.03125,-29.988281 7.59375,-30.65625 7.15625,-31.332031 6.914062,-32.609375 6.875,-34.484375 6.832031,-36.347656 7.015625,-37.632812 7.421875,-38.34375 7.835938,-39.050781 8.570312,-39.414062 9.625,-39.4375 l 8.3125,-0.171875 -0.0625,-3.3125 c -0.117188,-5.632813 1.179688,-9.945313 3.890625,-12.9375 2.707031,-3 6.695313,-4.550781 11.96875,-4.65625 z m 0,0"
                 id="path40" />
            </g>
          </g>
        </g>
        <g
           fill="#8c3d5a"
           fill-opacity="1"
           id="g46"
           transform="translate(-2.936111,-197.09417)">
          <g
             transform="translate(690.57056,286.55371)"
             id="g45">
            <g
               id="g44">
              <path
                 d="m 28.859375,-42.296875 c 4.59375,0.105469 8.59375,1.136719 12,3.09375 3.414063,1.949219 6.015625,4.605469 7.796875,7.96875 1.78125,3.367187 2.625,7.167969 2.53125,11.40625 -0.105469,4.242187 -1.125,8.007813 -3.0625,11.296875 -1.929688,3.292969 -4.640625,5.839844 -8.140625,7.640625 -3.492187,1.789063 -7.53125,2.632813 -12.125,2.53125 C 23.265625,1.535156 19.257812,0.507812 15.84375,-1.4375 c -3.40625,-1.957031 -6.007812,-4.625 -7.796875,-8 -1.78125,-3.382812 -2.621094,-7.195312 -2.515625,-11.4375 0.09375,-4.238281 1.109375,-7.992188 3.046875,-11.265625 1.9375,-3.28125 4.648437,-5.816406 8.140625,-7.609375 3.5,-1.800781 7.546875,-2.648438 12.140625,-2.546875 z M 28.625,-32 c -2.179688,-0.05078 -4.078125,0.382812 -5.703125,1.296875 -1.625,0.917969 -2.890625,2.246094 -3.796875,3.984375 -0.90625,1.730469 -1.386719,3.773438 -1.4375,6.125 -0.05469,2.367188 0.332031,4.4375 1.15625,6.21875 0.820312,1.773438 2.023438,3.152344 3.609375,4.140625 1.582031,0.992187 3.460937,1.511719 5.640625,1.5625 2.175781,0.054687 4.078125,-0.378906 5.703125,-1.296875 1.625,-0.914062 2.882813,-2.242188 3.78125,-3.984375 0.90625,-1.738281 1.382813,-3.789063 1.4375,-6.15625 0.05078,-2.351563 -0.335937,-4.414063 -1.15625,-6.1875 -0.8125,-1.769531 -2.011719,-3.148437 -3.59375,-4.140625 C 32.679688,-31.425781 30.800781,-31.945312 28.625,-32 Z m 0,0"
                 id="path43" />
            </g>
          </g>
        </g>
        <g
           fill="#8c3d5a"
           fill-opacity="1"
           id="g49"
           transform="translate(-2.936111,-197.09417)">
          <g
             transform="translate(740.1008,287.55277)"
             id="g48">
            <g
               id="g47">
              <path
                 d="m 44.84375,-40.0625 c 2.5625,0.167969 4.921875,1.167969 7.078125,3 1.269531,1.0625 1.851563,2.382812 1.75,3.953125 -0.0625,0.992187 -0.414063,2.148437 -1.046875,3.46875 -0.636719,1.324219 -1.320312,2.3125 -2.046875,2.96875 -0.71875,0.648437 -1.460937,0.945313 -2.21875,0.890625 -0.429687,-0.01953 -0.871094,-0.171875 -1.328125,-0.453125 C 45.394531,-27.285156 43.671875,-27.875 41.859375,-28 c -2.324219,-0.15625 -4.546875,0.445312 -6.671875,1.796875 -2.125,1.355469 -3.886719,3.292969 -5.28125,5.8125 -1.398438,2.511719 -2.199219,5.367187 -2.40625,8.5625 l -0.296875,4.296875 13,0.859375 c 0.726563,0.054687 1.28125,0.226563 1.65625,0.515625 0.375,0.28125 0.640625,0.761719 0.796875,1.4375 0.15625,0.667969 0.191406,1.640625 0.109375,2.921875 -0.08594,1.261719 -0.25,2.210937 -0.5,2.859375 -0.242187,0.65625 -0.5625,1.09375 -0.96875,1.3125 -0.40625,0.21875 -0.976563,0.300781 -1.703125,0.25 L 8.609375,0.578125 C 7.878906,0.523438 7.328125,0.363281 6.953125,0.09375 6.578125,-0.175781 6.3125,-0.648438 6.15625,-1.328125 6.007812,-2.003906 5.976562,-2.972656 6.0625,-4.234375 6.144531,-5.515625 6.304688,-6.476562 6.546875,-7.125 c 0.238281,-0.644531 0.5625,-1.082031 0.96875,-1.3125 0.40625,-0.238281 0.972656,-0.332031 1.703125,-0.28125 l 6.65625,0.4375 1.5625,-23.28125 -5.296875,-0.359375 c -0.71875,-0.03906 -1.273437,-0.191406 -1.65625,-0.453125 -0.375,-0.269531 -0.640625,-0.742188 -0.796875,-1.421875 -0.15625,-0.6875 -0.195312,-1.664063 -0.109375,-2.9375 0.082031,-1.257813 0.242187,-2.210937 0.484375,-2.859375 0.25,-0.65625 0.578125,-1.097656 0.984375,-1.328125 0.414063,-0.226563 0.984375,-0.320313 1.703125,-0.28125 L 25.171875,-40.375 c 1.03125,0.07422 1.742187,0.34375 2.140625,0.8125 0.40625,0.460938 0.578125,1.203125 0.515625,2.234375 l -0.65625,9.8125 c 2.5625,-4.21875 5.390625,-7.414063 8.484375,-9.59375 3.101562,-2.175781 6.164062,-3.160156 9.1875,-2.953125 z m 0,0"
                 id="path46" />
            </g>
          </g>
        </g>
      </g>
      <g
         id="g118"
         transform="translate(-6.8181811,-5.1136358)">
        <g
           fill="#8c3d5a"
           fill-opacity="1"
           id="g55"
           transform="translate(-2.936111,-197.09417)">
          <g
             transform="translate(838.79683,295.99312)"
             id="g54">
            <g
               id="g53">
              <path
                 d="m 59.59375,-33.265625 c 0.71875,0.117187 1.25,0.335937 1.59375,0.65625 0.34375,0.3125 0.5625,0.8125 0.65625,1.5 0.09375,0.679687 0.03906,1.648437 -0.15625,2.90625 -0.199219,1.261719 -0.445312,2.210937 -0.734375,2.84375 -0.292969,0.625 -0.652344,1.027344 -1.078125,1.203125 -0.417969,0.167969 -0.984375,0.195312 -1.703125,0.07813 l -1.84375,-0.28125 -11.25,29.328125 C 44.671875,6.019531 44.035156,6.695312 43.171875,7 42.316406,7.3125 40.992188,7.332031 39.203125,7.0625 37.460938,6.789062 36.207031,6.363281 35.4375,5.78125 34.675781,5.207031 34.179688,4.367188 33.953125,3.265625 L 30.140625,-13.625 21.296875,1.296875 C 20.722656,2.285156 19.976562,2.941406 19.0625,3.265625 18.15625,3.585938 16.816406,3.609375 15.046875,3.328125 13.253906,3.054688 12.007812,2.644531 11.3125,2.09375 10.625,1.539062 10.242188,0.703125 10.171875,-0.421875 L 8.4375,-31.75 6.921875,-31.984375 c -0.730469,-0.113281 -1.273437,-0.316406 -1.625,-0.609375 -0.34375,-0.289062 -0.5625,-0.78125 -0.65625,-1.46875 -0.09375,-0.6875 -0.042969,-1.660156 0.15625,-2.921875 0.195313,-1.257813 0.441406,-2.203125 0.734375,-2.828125 0.289062,-0.625 0.648438,-1.035156 1.078125,-1.234375 0.425781,-0.195313 1.003906,-0.238281 1.734375,-0.125 l 15.4375,2.390625 c 0.707031,0.105469 1.234375,0.320312 1.578125,0.640625 0.351563,0.3125 0.578125,0.8125 0.671875,1.5 0.101562,0.6875 0.05469,1.664063 -0.140625,2.921875 -0.199219,1.261719 -0.449219,2.203125 -0.75,2.828125 -0.292969,0.625 -0.652344,1.027344 -1.078125,1.203125 -0.429688,0.167969 -0.996094,0.199219 -1.703125,0.09375 L 18.546875,-30.1875 19.21875,-12.25 27.75,-26.5 c 0.46875,-0.789062 1.0625,-1.347656 1.78125,-1.671875 0.726562,-0.332031 1.703125,-0.40625 2.921875,-0.21875 1.289063,0.199219 2.226563,0.527344 2.8125,0.984375 0.59375,0.460938 0.992187,1.101562 1.203125,1.921875 L 40.21875,-9 l 6.1875,-16.890625 -3.234375,-0.5 c -0.71875,-0.101563 -1.257813,-0.300781 -1.609375,-0.59375 -0.34375,-0.300781 -0.570312,-0.796875 -0.671875,-1.484375 -0.09375,-0.6875 -0.04297,-1.660156 0.15625,-2.921875 0.195313,-1.257813 0.441406,-2.203125 0.734375,-2.828125 0.300781,-0.625 0.664062,-1.03125 1.09375,-1.21875 0.425781,-0.195312 1,-0.242188 1.71875,-0.140625 z m 0,0"
                 id="path52" />
            </g>
          </g>
        </g>
        <g
           fill="#8c3d5a"
           fill-opacity="1"
           id="g58"
           transform="translate(-2.936111,-197.09417)">
          <g
             transform="translate(887.77714,303.41869)"
             id="g57">
            <g
               id="g56">
              <path
                 d="m 35.734375,-36.6875 c 4.507813,0.90625 8.273437,2.617188 11.296875,5.125 3.019531,2.511719 5.113281,5.585938 6.28125,9.21875 1.175781,3.625 1.347656,7.515625 0.515625,11.671875 -0.824219,4.15625 -2.476563,7.6875 -4.953125,10.59375 -2.46875,2.90625 -5.585938,4.941406 -9.34375,6.109375 -3.75,1.164062 -7.882812,1.296875 -12.390625,0.390625 C 22.628906,5.523438 18.863281,3.820312 15.84375,1.3125 12.832031,-1.195312 10.738281,-4.269531 9.5625,-7.90625 8.394531,-11.539062 8.222656,-15.4375 9.046875,-19.59375 9.878906,-23.75 11.53125,-27.273438 14,-30.171875 c 2.476562,-2.90625 5.59375,-4.941406 9.34375,-6.109375 3.75,-1.164062 7.878906,-1.300781 12.390625,-0.40625 z m -2.015625,10.09375 c -2.136719,-0.414062 -4.085938,-0.3125 -5.84375,0.3125 -1.75,0.617188 -3.226562,1.703125 -4.421875,3.265625 -1.199219,1.554687 -2.027344,3.484375 -2.484375,5.796875 -0.460938,2.324219 -0.4375,4.429688 0.0625,6.3125 0.507812,1.886719 1.457031,3.453125 2.84375,4.703125 1.382812,1.25 3.144531,2.085937 5.28125,2.5 2.144531,0.4375 4.097656,0.351563 5.859375,-0.265625 1.757813,-0.625 3.226563,-1.710938 4.40625,-3.265625 1.1875,-1.550781 2.007813,-3.488281 2.46875,-5.8125 0.457031,-2.3125 0.441406,-4.410156 -0.04687,-6.296875 -0.492188,-1.894531 -1.433594,-3.46875 -2.828125,-4.71875 -1.386719,-1.25 -3.152344,-2.09375 -5.296875,-2.53125 z m 0,0"
                 id="path55" />
            </g>
          </g>
        </g>
        <g
           fill="#8c3d5a"
           fill-opacity="1"
           id="g61"
           transform="translate(-2.936111,-197.09417)">
          <g
             transform="translate(936.38904,312.96373)"
             id="g60">
            <g
               id="g59">
              <path
                 d="m 43.609375,-33.546875 c 2.675781,0.65625 4.875,1.820313 6.59375,3.484375 1.726563,1.667969 2.875,3.714844 3.4375,6.140625 0.5625,2.429687 0.484375,5.101563 -0.234375,8.015625 L 48.9375,2.390625 52.328125,3.21875 c 0.695313,0.164062 1.207031,0.421875 1.53125,0.765625 0.320313,0.351563 0.5,0.875 0.53125,1.5625 0.03906,0.6875 -0.09375,1.648437 -0.40625,2.890625 -0.304687,1.238281 -0.632813,2.15625 -0.984375,2.75 -0.34375,0.59375 -0.742188,0.960938 -1.1875,1.109375 -0.4375,0.144531 -1.007812,0.132813 -1.703125,-0.03125 l -16.5,-4.03125 C 32.910156,8.054688 32.394531,7.800781 32.0625,7.46875 31.738281,7.132812 31.554688,6.625 31.515625,5.9375 31.484375,5.25 31.617188,4.285156 31.921875,3.046875 c 0.3125,-1.242187 0.640625,-2.15625 0.984375,-2.75 0.351562,-0.59375 0.753906,-0.96875 1.203125,-1.125 0.445313,-0.164063 1.019531,-0.160156 1.71875,0.015625 l 2.078125,0.5 L 41.75,-16 c 0.550781,-2.300781 0.570312,-4.132812 0.0625,-5.5 -0.5,-1.375 -1.679688,-2.289062 -3.53125,-2.75 -1.699219,-0.414062 -3.492188,-0.09766 -5.375,0.953125 -1.875,1.054687 -3.570312,2.65625 -5.078125,4.8125 -1.511719,2.15625 -2.601563,4.589844 -3.265625,7.296875 l -1.75,7.1875 2.078125,0.5 c 0.707031,0.179688 1.21875,0.445312 1.53125,0.796875 0.320313,0.34375 0.5,0.859375 0.53125,1.546875 0.03906,0.6875 -0.09375,1.648438 -0.40625,2.890625 -0.304687,1.238281 -0.632813,2.15625 -0.984375,2.75 -0.34375,0.59375 -0.734375,0.960937 -1.171875,1.109375 -0.4375,0.144531 -1.011719,0.128906 -1.71875,-0.046875 l -16.5,-4.03125 C 5.460938,1.335938 4.945312,1.082031 4.625,0.75 4.300781,0.414062 4.125,-0.09375 4.09375,-0.78125 4.0625,-1.46875 4.195312,-2.429688 4.5,-3.671875 c 0.3125,-1.238281 0.640625,-2.15625 0.984375,-2.75 0.34375,-0.59375 0.734375,-0.96875 1.171875,-1.125 0.445312,-0.164063 1.023438,-0.160156 1.734375,0.015625 l 3.40625,0.828125 L 17.34375,-29.375 13.0625,-30.421875 c -0.710938,-0.175781 -1.230469,-0.425781 -1.5625,-0.75 -0.324219,-0.332031 -0.5,-0.84375 -0.53125,-1.53125 -0.03125,-0.695313 0.101562,-1.664063 0.40625,-2.90625 0.300781,-1.226563 0.625,-2.140625 0.96875,-2.734375 0.351562,-0.601562 0.75,-0.984375 1.1875,-1.140625 0.445312,-0.15625 1.023438,-0.144531 1.734375,0.03125 L 26.03125,-36.8125 c 1,0.242188 1.65625,0.625 1.96875,1.15625 0.320312,0.53125 0.363281,1.296875 0.125,2.296875 l -1.5625,6.390625 c 5.539062,-5.8125 11.222656,-8.003906 17.046875,-6.578125 z m 0,0"
                 id="path58" />
            </g>
          </g>
        </g>
        <g
           fill="#8c3d5a"
           fill-opacity="1"
           id="g64"
           transform="translate(-2.936111,-197.09417)">
          <g
             transform="translate(984.53965,324.60962)"
             id="g63">
            <g
               id="g62">
              <path
                 d="m 59.296875,-44.78125 c 0.988281,0.292969 1.628906,0.710938 1.921875,1.25 0.300781,0.542969 0.304688,1.308594 0.01563,2.296875 l -13.25,45.515625 3.796875,1.109375 c 0.695312,0.195313 1.203125,0.46875 1.515625,0.8125 0.3125,0.351563 0.46875,0.875 0.46875,1.5625 0,0.695313 -0.179687,1.65625 -0.53125,2.875 -0.355469,1.21875 -0.71875,2.117187 -1.09375,2.703125 -0.375,0.59375 -0.792969,0.953125 -1.25,1.078125 -0.449219,0.132813 -1.023437,0.101563 -1.71875,-0.09375 l -10.20313,-2.96875 c -0.992188,-0.292969 -1.636719,-0.714844 -1.9375,-1.265625 -0.292969,-0.542969 -0.292969,-1.308594 0,-2.296875 l 1.0625,-3.65625 C 35.914062,6.023438 33.503906,7.28125 30.859375,7.90625 28.210938,8.539062 25.507812,8.457031 22.75,7.65625 18.9375,6.550781 15.875,4.648438 13.5625,1.953125 c -2.304688,-2.6875 -3.746094,-5.84375 -4.328125,-9.46875 -0.574219,-3.632813 -0.28125,-7.429687 0.875,-11.390625 1.144531,-3.957031 2.9375,-7.3125 5.375,-10.0625 2.445313,-2.757812 5.363281,-4.648438 8.75,-5.671875 3.394531,-1.03125 7,-0.992187 10.8125,0.109375 2.257813,0.667969 4.234375,1.730469 5.921875,3.1875 1.6875,1.449219 3.03125,3.214844 4.03125,5.296875 l 3.546875,-12.171875 -6.40625,-1.859375 C 41.441406,-40.285156 40.9375,-40.5625 40.625,-40.90625 c -0.3125,-0.34375 -0.46875,-0.863281 -0.46875,-1.5625 0.0078,-0.695312 0.191406,-1.65625 0.546875,-2.875 0.351563,-1.21875 0.710937,-2.117188 1.078125,-2.703125 0.375,-0.582031 0.785156,-0.941406 1.234375,-1.078125 0.445313,-0.132812 1.019531,-0.09766 1.71875,0.109375 z M 33.90625,-24.140625 c -1.804688,-0.53125 -3.511719,-0.53125 -5.125,0 -1.605469,0.523437 -3.007812,1.527344 -4.203125,3.015625 -1.199219,1.492188 -2.125,3.367188 -2.78125,5.625 -0.667969,2.273438 -0.890625,4.351562 -0.671875,6.234375 0.21875,1.886719 0.863281,3.484375 1.9375,4.796875 1.070312,1.304688 2.507812,2.21875 4.3125,2.75 1.863281,0.542969 3.675781,0.601562 5.4375,0.171875 1.757812,-0.4375 3.332031,-1.375 4.71875,-2.8125 1.394531,-1.4375 2.4375,-3.316406 3.125,-5.640625 0.664062,-2.320312 0.800781,-4.46875 0.40625,-6.4375 -0.398438,-1.96875 -1.226562,-3.609375 -2.484375,-4.921875 -1.25,-1.3125 -2.808594,-2.238281 -4.671875,-2.78125 z m 0,0"
                 id="path61" />
            </g>
          </g>
        </g>
        <g
           fill="#8c3d5a"
           fill-opacity="1"
           id="g67"
           transform="translate(-2.936111,-197.09417)">
          <g
             transform="translate(1031.9964,338.28695)"
             id="g66">
            <g
               id="g65">
              <path
                 d="m 40.796875,-31.515625 c 4.363281,1.480469 7.757813,3.679687 10.1875,6.59375 2.4375,2.90625 3.867187,6.296875 4.296875,10.171875 0.425781,3.875 -0.08984,7.960938 -1.546875,12.25 -0.324219,0.96875 -0.765625,1.589844 -1.328125,1.859375 -0.554688,0.261719 -1.3125,0.230469 -2.28125,-0.09375 L 22.515625,-10.09375 c -0.230469,2.46875 0.34375,4.621094 1.71875,6.453125 1.375,1.824219 3.4375,3.199219 6.1875,4.125 4.445313,1.507813 9.535156,2.351563 15.265625,2.53125 0.375,0.00781 0.726562,0.070313 1.0625,0.1875 0.632812,0.21875 1.082031,0.6875 1.34375,1.40625 0.269531,0.726563 0.359375,1.84375 0.265625,3.34375 -0.0625,1.15625 -0.226563,2.109375 -0.484375,2.859375 -0.25,0.738281 -0.617188,1.257812 -1.09375,1.5625 -0.46875,0.3125 -1.117188,0.476562 -1.9375,0.5 C 41.644531,12.82031 38.460938,12.566406 35.296875,12.109375 32.128906,11.648438 29.113281,10.9375 26.25,9.96875 21.882812,8.488281 18.425781,6.328125 15.875,3.484375 13.332031,0.640625 11.769531,-2.632812 11.1875,-6.34375 c -0.574219,-3.707031 -0.179688,-7.582031 1.1875,-11.625 1.363281,-4.007812 3.4375,-7.296875 6.21875,-9.859375 2.78125,-2.570313 6.09375,-4.195313 9.9375,-4.875 3.851562,-0.675781 7.941406,-0.28125 12.265625,1.1875 z m -3.3125,9.75 c -5.242187,-1.78125 -9.230469,-0.671875 -11.96875,3.328125 l 18.921875,6.421875 c 0.226562,-2.257813 -0.257812,-4.238281 -1.453125,-5.9375 -1.199219,-1.707031 -3.03125,-2.976563 -5.5,-3.8125 z m 0,0"
                 id="path64" />
            </g>
          </g>
        </g>
        <g
           fill="#8c3d5a"
           fill-opacity="1"
           id="g70"
           transform="translate(-2.936111,-197.09417)">
          <g
             transform="translate(1079.0999,354.11567)"
             id="g69">
            <g
               id="g68">
              <path
                 d="m 54.78125,-24.8125 c 2.40625,0.929688 4.359375,2.589844 5.859375,4.984375 0.894531,1.398437 1.054687,2.835937 0.484375,4.3125 -0.367188,0.917969 -1.042969,1.914063 -2.03125,2.984375 -1.023438,1.085938 -1.976562,1.828125 -2.859375,2.234375 -0.875,0.398437 -1.667969,0.453125 -2.375,0.171875 -0.398437,-0.15625 -0.773437,-0.429688 -1.125,-0.828125 -1.25,-1.488281 -2.71875,-2.5625 -4.40625,-3.21875 -2.179687,-0.84375 -4.484375,-0.941406 -6.921875,-0.296875 -2.429688,0.648438 -4.683594,1.964844 -6.765625,3.953125 -2.085937,1.980469 -3.703125,4.464844 -4.859375,7.453125 l -1.5625,4.015625 12.15625,4.71875 c 0.675781,0.269531 1.148438,0.597656 1.421875,0.984375 0.269531,0.382812 0.375,0.914062 0.3125,1.59375 -0.05469,0.6875 -0.3125,1.628906 -0.78125,2.828125 C 40.867188,12.265625 40.425781,13.128906 40,13.671875 39.582031,14.222656 39.144531,14.539062 38.6875,14.625 38.238281,14.71875 37.675781,14.628906 37,14.359375 L 8.046875,3.125 C 7.359375,2.851562 6.875,2.53125 6.59375,2.15625 6.320312,1.789062 6.210938,1.265625 6.265625,0.578125 6.328125,-0.0976562 6.585938,-1.03125 7.046875,-2.21875 7.515625,-3.414062 7.957031,-4.285156 8.375,-4.828125 8.800781,-5.378906 9.242188,-5.707031 9.703125,-5.8125 c 0.457031,-0.101562 1.03125,-0.019531 1.71875,0.25 l 6.21875,2.40625 8.4375,-21.75 -4.953125,-1.921875 c -0.679688,-0.257813 -1.15625,-0.570313 -1.4375,-0.9375 -0.273438,-0.363281 -0.382812,-0.894531 -0.328125,-1.59375 0.05078,-0.695313 0.3125,-1.632813 0.78125,-2.8125 0.457031,-1.1875 0.898437,-2.050781 1.328125,-2.59375 0.425781,-0.550781 0.867188,-0.875 1.328125,-0.96875 0.457031,-0.101563 1.023437,-0.02344 1.703125,0.234375 l 11.609375,4.515625 c 0.957031,0.375 1.554687,0.84375 1.796875,1.40625 0.25,0.5625 0.1875,1.328125 -0.1875,2.296875 l -3.5625,9.171875 c 3.707031,-3.269531 7.363281,-5.476563 10.96875,-6.625 3.613281,-1.144531 6.832031,-1.171875 9.65625,-0.07813 z m 0,0"
                 id="path67" />
            </g>
          </g>
        </g>
        <g
           fill="#8c3d5a"
           fill-opacity="1"
           id="g73"
           transform="translate(-2.936111,-197.09417)">
          <g
             transform="translate(1125.3303,371.91884)"
             id="g72">
            <g
               id="g71">
              <path
                 d="m 54.0625,-10.734375 c 0.65625,0.28125 1.109375,0.632813 1.359375,1.046875 0.257813,0.40625 0.332031,0.984375 0.21875,1.734375 -0.117187,0.742187 -0.460937,1.765625 -1.03125,3.078125 -0.574219,1.292969 -1.09375,2.234375 -1.5625,2.828125 -0.46875,0.585937 -0.9375,0.914063 -1.40625,0.984375 -0.46875,0.074219 -1.03125,-0.03125 -1.6875,-0.3125 l -31.6875,-13.921875 c -0.667969,-0.289063 -1.132813,-0.628906 -1.390625,-1.015625 -0.25,-0.394531 -0.324219,-0.960938 -0.21875,-1.703125 0.113281,-0.75 0.457031,-1.769531 1.03125,-3.0625 0.570312,-1.3125 1.09375,-2.257813 1.5625,-2.84375 0.476562,-0.59375 0.953125,-0.9375 1.421875,-1.03125 0.46875,-0.09375 1.035156,0.0078 1.703125,0.296875 z m 0,0"
                 id="path70" />
            </g>
          </g>
        </g>
        <g
           fill="#8c3d5a"
           fill-opacity="1"
           id="g76"
           transform="translate(-2.936111,-197.09417)">
          <g
             transform="translate(1170.744,391.71303)"
             id="g75">
            <g
               id="g74">
              <path
                 d="m 66.140625,-33.84375 c 0.925781,0.449219 1.488281,0.964844 1.6875,1.546875 0.195313,0.585937 0.06641,1.339844 -0.390625,2.265625 L 46.515625,12.5 50.0625,14.25 c 0.65625,0.320312 1.101562,0.675781 1.34375,1.0625 0.25,0.394531 0.316406,0.9375 0.203125,1.625 -0.117187,0.6875 -0.453125,1.601562 -1.015625,2.75 -0.5625,1.132812 -1.078125,1.957031 -1.546875,2.46875 -0.46875,0.507812 -0.9375,0.789062 -1.40625,0.84375 -0.46875,0.0625 -1.03125,-0.07031 -1.6875,-0.390625 l -9.53125,-4.6875 c -0.929687,-0.460937 -1.492187,-0.980469 -1.6875,-1.5625 -0.199219,-0.585937 -0.07031,-1.339844 0.390625,-2.265625 l 1.671875,-3.421875 c -2.480469,1.46875 -5.074219,2.285156 -7.78125,2.453125 -2.710937,0.164062 -5.355469,-0.382812 -7.9375,-1.640625 -3.5625,-1.761719 -6.25,-4.164063 -8.0625,-7.203125 -1.804687,-3.042969 -2.679687,-6.40625 -2.625,-10.09375 0.0625,-3.6875 1.003906,-7.378906 2.828125,-11.078125 1.8125,-3.6875 4.15625,-6.675781 7.03125,-8.96875 2.882812,-2.289063 6.082031,-3.648437 9.59375,-4.078125 3.519531,-0.4375 7.0625,0.226562 10.625,1.984375 2.113281,1.03125 3.878906,2.414063 5.296875,4.140625 1.414063,1.71875 2.4375,3.699219 3.0625,5.9375 l 5.59375,-11.375 -5.984375,-2.953125 c -0.65625,-0.320313 -1.109375,-0.675781 -1.359375,-1.0625 -0.242187,-0.394531 -0.304687,-0.929687 -0.1875,-1.609375 0.125,-0.6875 0.46875,-1.597656 1.03125,-2.734375 0.5625,-1.144531 1.078125,-1.972656 1.546875,-2.484375 0.46875,-0.507812 0.929688,-0.789062 1.390625,-0.84375 0.46875,-0.0625 1.03125,0.07031 1.6875,0.390625 z M 37.5625,-17.90625 c -1.679688,-0.832031 -3.355469,-1.128906 -5.03125,-0.890625 -1.679688,0.242187 -3.234375,0.984375 -4.671875,2.234375 -1.4375,1.25 -2.679687,2.933594 -3.71875,5.046875 -1.042969,2.125 -1.621094,4.140625 -1.734375,6.046875 -0.117188,1.898438 0.242188,3.578125 1.078125,5.046875 0.832031,1.46875 2.085937,2.617187 3.765625,3.453125 1.738281,0.851562 3.515625,1.21875 5.328125,1.09375 1.8125,-0.117188 3.53125,-0.761719 5.15625,-1.9375 1.625,-1.167969 2.972656,-2.835938 4.046875,-5.015625 1.0625,-2.164063 1.5625,-4.25 1.5,-6.25 -0.0625,-2.007813 -0.601562,-3.769531 -1.609375,-5.28125 -1,-1.507813 -2.371094,-2.691406 -4.109375,-3.546875 z m 0,0"
                 id="path73" />
            </g>
          </g>
        </g>
        <g
           fill="#8c3d5a"
           fill-opacity="1"
           id="g79"
           transform="translate(-2.936111,-197.09417)">
          <g
             transform="translate(1215.2555,413.46011)"
             id="g78">
            <g
               id="g77">
              <path
                 d="m 57.53125,-17.484375 c 2.257812,1.242187 3.984375,3.140625 5.171875,5.703125 0.707031,1.5 0.679687,2.945312 -0.07813,4.328125 -0.480469,0.875 -1.28125,1.78125 -2.40625,2.71875 -1.136719,0.929687 -2.171875,1.539063 -3.109375,1.828125 -0.9375,0.28125 -1.742187,0.242188 -2.40625,-0.125 -0.375,-0.207031 -0.710937,-0.535156 -1,-0.984375 C 52.660156,-5.648438 51.34375,-6.90625 49.75,-7.78125 c -2.042969,-1.113281 -4.3125,-1.503906 -6.8125,-1.171875 -2.492188,0.324219 -4.898438,1.335937 -7.21875,3.03125 -2.324219,1.699219 -4.25,3.953125 -5.78125,6.765625 L 27.859375,4.625 39.28125,10.875 c 0.644531,0.351562 1.078125,0.738281 1.296875,1.15625 0.21875,0.414062 0.253906,0.957031 0.109375,1.625 -0.148438,0.675781 -0.527344,1.578125 -1.140625,2.703125 -0.605469,1.113281 -1.152344,1.914063 -1.640625,2.40625 -0.492188,0.488281 -0.96875,0.742187 -1.4375,0.765625 -0.460938,0.03125 -1.011719,-0.132812 -1.65625,-0.484375 L 7.5625,4.140625 C 6.925781,3.785156 6.492188,3.40625 6.265625,3 6.046875,2.601562 6.007812,2.066406 6.15625,1.390625 c 0.144531,-0.679687 0.519531,-1.570313 1.125,-2.6875 0.613281,-1.125 1.164062,-1.925781 1.65625,-2.40625 C 9.425781,-4.191406 9.90625,-4.457031 10.375,-4.5 c 0.46875,-0.039062 1.019531,0.117188 1.65625,0.46875 L 17.890625,-0.828125 29.09375,-21.3125 24.4375,-23.859375 c -0.636719,-0.34375 -1.074219,-0.710937 -1.3125,-1.109375 -0.230469,-0.40625 -0.273438,-0.945312 -0.125,-1.625 0.15625,-0.675781 0.535156,-1.570312 1.140625,-2.6875 0.613281,-1.113281 1.164063,-1.914062 1.65625,-2.40625 0.488281,-0.5 0.96875,-0.765625 1.4375,-0.796875 0.476563,-0.03125 1.035156,0.125 1.671875,0.46875 l 10.921875,5.96875 c 0.90625,0.5 1.441406,1.046875 1.609375,1.640625 0.164062,0.59375 0.0039,1.34375 -0.484375,2.25 l -4.734375,8.640625 c 4.113281,-2.757813 8.03125,-4.472656 11.75,-5.140625 3.71875,-0.675781 6.90625,-0.285156 9.5625,1.171875 z m 0,0"
                 id="path76" />
            </g>
          </g>
        </g>
        <g
           fill="#8c3d5a"
           fill-opacity="1"
           id="g82"
           transform="translate(-2.936111,-197.09417)">
          <g
             transform="translate(1258.7809,437.11861)"
             id="g81">
            <g
               id="g80">
              <path
                 d="m 48.515625,-19.671875 c 0.882813,0.53125 1.398437,1.101563 1.546875,1.703125 0.144531,0.59375 -0.04687,1.328125 -0.578125,2.203125 L 34.0625,9.71875 44.984375,16.328125 c 0.625,0.382813 1.035156,0.785156 1.234375,1.203125 0.207031,0.425781 0.222656,0.972656 0.04687,1.640625 -0.167969,0.675781 -0.585937,1.5625 -1.25,2.65625 -0.65625,1.082031 -1.246094,1.851563 -1.765625,2.3125 -0.511719,0.46875 -0.996094,0.707031 -1.453125,0.71875 -0.460937,0.0078 -1,-0.179687 -1.625,-0.5625 L 8.9375,5.40625 C 8.320312,5.03125 7.90625,4.632812 7.6875,4.21875 7.46875,3.8125 7.445312,3.269531 7.625,2.59375 c 0.175781,-0.667969 0.59375,-1.542969 1.25,-2.625 0.664062,-1.09375 1.253906,-1.867188 1.765625,-2.328125 0.507813,-0.46875 1,-0.710937 1.46875,-0.734375 0.476563,-0.019531 1.023437,0.15625 1.640625,0.53125 l 10.609375,6.421875 12.09375,-19.96875 -8.28125,-5.015625 c -0.625,-0.375 -1.042969,-0.765625 -1.25,-1.171875 -0.210937,-0.414063 -0.226563,-0.957031 -0.04687,-1.625 0.175781,-0.664063 0.59375,-1.539063 1.25,-2.625 0.65625,-1.09375 1.238281,-1.875 1.75,-2.34375 0.507812,-0.46875 1,-0.707031 1.46875,-0.71875 0.46875,-0.01953 1.015625,0.15625 1.640625,0.53125 z m 7.8125,-18.59375 c 1.832031,1.117187 3.003906,2.085937 3.515625,2.90625 0.519531,0.824219 0.507812,1.679687 -0.03125,2.5625 l -3.84375,6.359375 c -0.53125,0.875 -1.257812,1.296875 -2.171875,1.265625 -0.917969,-0.03906 -2.28125,-0.609375 -4.09375,-1.703125 -1.8125,-1.09375 -2.976563,-2.050781 -3.484375,-2.875 -0.511719,-0.832031 -0.5,-1.6875 0.03125,-2.5625 l 3.84375,-6.359375 c 0.550781,-0.914063 1.269531,-1.347656 2.15625,-1.296875 0.894531,0.04297 2.253906,0.609375 4.078125,1.703125 z m 0,0"
                 id="path79" />
            </g>
          </g>
        </g>
        <g
           fill="#8c3d5a"
           fill-opacity="1"
           id="g85"
           transform="translate(-2.936111,-197.09417)">
          <g
             transform="translate(1301.2381,462.64484)"
             id="g84">
            <g
               id="g83">
              <path
                 d="m 65.78125,-6.609375 c 0.59375,0.40625 0.984375,0.828125 1.171875,1.265625 0.1875,0.429688 0.175781,0.976562 -0.03125,1.640625 -0.199219,0.667969 -0.652344,1.527344 -1.359375,2.578125 -0.699219,1.0625 -1.320312,1.8125 -1.859375,2.25 -0.53125,0.445312 -1.03125,0.660156 -1.5,0.640625 C 61.742188,1.742188 61.21875,1.53125 60.625,1.125 L 58.046875,-0.578125 29.953125,17.59375 c -0.960937,0.644531 -1.996094,0.867188 -3.109375,0.671875 -1.105469,-0.199219 -2.539062,-0.886719 -4.296875,-2.0625 -1.773437,-1.179687 -2.949219,-2.230469 -3.53125,-3.15625 -0.574219,-0.929687 -0.757813,-1.960937 -0.546875,-3.09375 l 6.015625,-32.890625 -2.5,-1.65625 C 21.378906,-25 20.976562,-25.410156 20.78125,-25.828125 c -0.1875,-0.414063 -0.179688,-0.953125 0.03125,-1.609375 0.207031,-0.664062 0.660156,-1.53125 1.359375,-2.59375 0.707031,-1.050781 1.328125,-1.800781 1.859375,-2.25 0.53125,-0.445312 1.03125,-0.664062 1.5,-0.65625 0.46875,0 1.003906,0.203125 1.609375,0.609375 l 15.265625,10.15625 c 0.601562,0.40625 1,0.828125 1.1875,1.265625 0.195312,0.429688 0.191406,0.976562 -0.01563,1.640625 -0.210937,0.667969 -0.667969,1.527344 -1.375,2.578125 -0.699219,1.0625 -1.3125,1.820312 -1.84375,2.265625 -0.53125,0.4375 -1.03125,0.648437 -1.5,0.625 -0.46875,-0.01953 -1.007813,-0.234375 -1.609375,-0.640625 l -2.515625,-1.671875 -4.421875,21.125 17.859375,-12.171875 -2.0625,-1.375 c -0.605469,-0.40625 -1.007813,-0.816406 -1.203125,-1.234375 -0.199219,-0.414063 -0.195312,-0.953125 0.01563,-1.609375 0.207031,-0.664062 0.660156,-1.53125 1.359375,-2.59375 0.707031,-1.050781 1.328125,-1.800781 1.859375,-2.25 0.53125,-0.445312 1.03125,-0.664062 1.5,-0.65625 0.476563,0 1.019531,0.203125 1.625,0.609375 z m 0,0"
                 id="path82" />
            </g>
          </g>
        </g>
        <g
           fill="#8c3d5a"
           fill-opacity="1"
           id="g88"
           transform="translate(-2.936111,-197.09417)">
          <g
             transform="translate(1342.5473,489.99077)"
             id="g87">
            <g
               id="g86">
              <path
                 d="m 48.375,-17.875 c 3.71875,2.71875 6.296875,5.835938 7.734375,9.34375 1.445313,3.511719 1.796875,7.179688 1.046875,11 -0.75,3.832031 -2.460938,7.578125 -5.125,11.234375 -0.617188,0.832031 -1.230469,1.289063 -1.84375,1.375 -0.605469,0.08203 -1.320312,-0.179687 -2.140625,-0.78125 L 24.5,-2.90625 c -0.960938,2.292969 -1.054688,4.515625 -0.28125,6.671875 0.769531,2.15625 2.328125,4.09375 4.671875,5.8125 3.789063,2.769531 8.390625,5.097656 13.796875,6.984375 0.351562,0.125 0.675781,0.289062 0.96875,0.5 0.53125,0.382812 0.816406,0.960938 0.859375,1.734375 0.03906,0.769531 -0.210937,1.863281 -0.75,3.28125 -0.417969,1.082031 -0.859375,1.941406 -1.328125,2.578125 -0.460938,0.632812 -0.960938,1.023438 -1.5,1.171875 -0.53125,0.144531 -1.199219,0.09766 -2,-0.140625 -3.03125,-0.992188 -5.992188,-2.179688 -8.875,-3.5625 -2.886719,-1.386719 -5.554688,-2.976562 -8,-4.765625 -3.71875,-2.710937 -6.371094,-5.804687 -7.953125,-9.28125 -1.574219,-3.480469 -2.085937,-7.070313 -1.53125,-10.765625 0.550781,-3.707031 2.085937,-7.285156 4.609375,-10.734375 2.5,-3.425781 5.460938,-5.945313 8.890625,-7.5625 3.425781,-1.625 7.070313,-2.179687 10.9375,-1.671875 3.875,0.5 7.660156,2.09375 11.359375,4.78125 z m -6.078125,8.3125 C 37.816406,-12.820312 33.675781,-12.953125 29.875,-9.953125 l 16.140625,11.78125 c 0.882813,-2.082031 1.007813,-4.113281 0.375,-6.09375 -0.625,-1.988281 -1.992187,-3.753906 -4.09375,-5.296875 z m 0,0"
                 id="path85" />
            </g>
          </g>
        </g>
        <g
           fill="#8c3d5a"
           fill-opacity="1"
           id="g91"
           transform="translate(-2.936111,-197.09417)">
          <g
             transform="translate(1382.6302,519.10372)"
             id="g90">
            <g
               id="g89">
              <path
                 d="m 53.65625,-12.078125 c 2.15625,1.71875 3.664062,3.699219 4.53125,5.9375 0.875,2.242187 1.050781,4.574219 0.53125,7 -0.511719,2.4375 -1.703125,4.828125 -3.578125,7.171875 L 43.375,22.75 l 2.734375,2.1875 c 0.5625,0.445312 0.914063,0.894531 1.0625,1.34375 0.144531,0.457031 0.08594,1.003906 -0.171875,1.640625 -0.25,0.644531 -0.777344,1.46875 -1.578125,2.46875 -0.792969,0.988281 -1.476563,1.675781 -2.046875,2.0625 -0.574219,0.394531 -1.089844,0.566406 -1.546875,0.515625 -0.460937,-0.05469 -0.96875,-0.304688 -1.53125,-0.75 L 27.03125,21.609375 c -0.574219,-0.460937 -0.9375,-0.90625 -1.09375,-1.34375 -0.15625,-0.4375 -0.105469,-0.980469 0.15625,-1.625 0.257812,-0.636719 0.785156,-1.449219 1.578125,-2.4375 0.800781,-1 1.484375,-1.699219 2.046875,-2.09375 0.570312,-0.386719 1.09375,-0.5625 1.5625,-0.53125 0.46875,0.03906 0.988281,0.289063 1.5625,0.75 L 34.5,15.65625 44.59375,3.046875 c 1.46875,-1.855469 2.265625,-3.507813 2.390625,-4.96875 0.125,-1.457031 -0.558594,-2.78125 -2.046875,-3.96875 -1.367188,-1.09375 -3.125,-1.554687 -5.28125,-1.390625 -2.148438,0.167969 -4.359375,0.914062 -6.640625,2.234375 -2.273437,1.3125 -4.277344,3.054687 -6.015625,5.21875 l -4.625,5.78125 1.671875,1.34375 c 0.570313,0.457031 0.925781,0.910156 1.0625,1.359375 0.144531,0.445312 0.08594,0.988281 -0.171875,1.625 -0.25,0.644531 -0.777344,1.46875 -1.578125,2.46875 -0.792969,0.988281 -1.476563,1.675781 -2.046875,2.0625 -0.574219,0.394531 -1.089844,0.566406 -1.546875,0.515625 -0.449219,-0.04297 -0.960937,-0.292969 -1.53125,-0.75 L 4.96875,3.96875 C 4.394531,3.507812 4.03125,3.0625 3.875,2.625 3.726562,2.195312 3.785156,1.660156 4.046875,1.015625 4.304688,0.378906 4.832031,-0.429688 5.625,-1.421875 c 0.800781,-1 1.484375,-1.691406 2.046875,-2.078125 0.570313,-0.394531 1.085937,-0.578125 1.546875,-0.546875 0.46875,0.03125 0.988281,0.277344 1.5625,0.734375 l 2.734375,2.1875 14.578125,-18.234375 -3.4375,-2.75 c -0.574219,-0.457031 -0.9375,-0.898437 -1.09375,-1.328125 -0.15625,-0.425781 -0.105469,-0.957031 0.15625,-1.59375 0.269531,-0.644531 0.800781,-1.46875 1.59375,-2.46875 0.789062,-0.988281 1.46875,-1.679688 2.03125,-2.078125 0.570312,-0.40625 1.085938,-0.582031 1.546875,-0.53125 0.46875,0.04297 0.988281,0.292969 1.5625,0.75 l 8.640625,6.921875 c 0.8125,0.636719 1.25,1.261719 1.3125,1.875 0.07031,0.617188 -0.214844,1.328125 -0.859375,2.140625 L 35.4375,-13.28125 c 7.46875,-2.9375 13.539062,-2.535156 18.21875,1.203125 z m 0,0"
                 id="path88" />
            </g>
          </g>
        </g>
      </g>
    </g>
    <g
       id="g138">
      <g
         id="g116"
         transform="translate(4.8249921e-8,-11.931818)">
        <g
           id="g52">
          <g
             id="g50">
            <g
               fill="#8c3d5a"
               fill-opacity="1"
               id="g94"
               transform="translate(-2.936111,-197.09417)">
              <g
                 transform="translate(658.43127,382.28289)"
                 id="g93">
                <g
                   id="g92">
                  <path
                     d="m 42.125,-44.171875 c 1.882812,-0.05078 3.175781,0.125 3.875,0.53125 0.707031,0.398437 1.078125,1.125 1.109375,2.1875 L 47.53125,-26.875 c 0.01953,1.023438 -0.421875,1.765625 -1.328125,2.234375 -0.90625,0.46875 -2.433594,0.734375 -4.578125,0.796875 -1.429688,0.04297 -2.53125,-0.02344 -3.3125,-0.203125 -0.773438,-0.175781 -1.3125,-0.457031 -1.625,-0.84375 -0.3125,-0.382813 -0.480469,-0.9375 -0.5,-1.65625 -0.04297,-1.269531 -0.390625,-2.441406 -1.046875,-3.515625 -0.648437,-1.082031 -1.59375,-1.929688 -2.84375,-2.546875 -1.242187,-0.613281 -2.71875,-0.894531 -4.4375,-0.84375 -2.1875,0.0625 -4.089844,0.59375 -5.703125,1.59375 -1.605469,1 -2.824219,2.402344 -3.65625,4.203125 -0.835938,1.792969 -1.21875,3.851562 -1.15625,6.171875 0.0625,2.324219 0.5625,4.359375 1.5,6.109375 0.9375,1.75 2.234375,3.078125 3.890625,3.984375 1.664063,0.90625 3.59375,1.328125 5.78125,1.265625 2.320313,-0.07031 4.691406,-0.519531 7.109375,-1.34375 2.414062,-0.820312 4.753906,-1.929688 7.015625,-3.328125 0.53125,-0.320313 1.023437,-0.488281 1.484375,-0.5 1.363281,-0.03906 2.597656,1.125 3.703125,3.5 0.582031,1.28125 0.882813,2.375 0.90625,3.28125 0.03906,1.355469 -0.578125,2.417969 -1.859375,3.1875 -2.773438,1.648437 -5.699219,2.953125 -8.78125,3.921875 -3.074219,0.96875 -6.167969,1.5 -9.28125,1.59375 -4.605469,0.125 -8.671875,-0.695312 -12.203125,-2.46875 -3.53125,-1.78125 -6.292969,-4.304688 -8.28125,-7.578125 -1.992187,-3.28125 -3.042969,-7.035156 -3.15625,-11.265625 -0.125,-4.238281 0.71875,-8.054688 2.53125,-11.453125 1.8125,-3.40625 4.332031,-6.082031 7.5625,-8.03125 3.226563,-1.957031 6.867187,-2.992187 10.921875,-3.109375 4.90625,-0.132812 8.425781,1.539062 10.5625,5.015625 l -0.07813,-2.453125 c -0.03125,-1.03125 0.382813,-1.773438 1.25,-2.234375 0.863281,-0.46875 2.265625,-0.726563 4.203125,-0.78125 z m 0,0"
                     id="path91" />
                </g>
              </g>
            </g>
            <g
               fill="#8c3d5a"
               fill-opacity="1"
               id="g97"
               transform="translate(-2.936111,-197.09417)">
              <g
                 transform="translate(707.83127,380.72195)"
                 id="g96">
                <g
                   id="g95">
                  <path
                     d="m 28.78125,-42.34375 c 4.59375,0.09375 8.597656,1.117188 12.015625,3.0625 3.414063,1.949219 6.015625,4.605469 7.796875,7.96875 1.789062,3.367188 2.640625,7.167969 2.546875,11.40625 -0.08594,4.242188 -1.09375,8.007812 -3.03125,11.296875 -1.929687,3.292969 -4.636719,5.839844 -8.125,7.640625 -3.492187,1.800781 -7.53125,2.65625 -12.125,2.5625 C 23.265625,1.488281 19.257812,0.460938 15.84375,-1.484375 12.425781,-3.429688 9.820312,-6.085938 8.03125,-9.453125 6.25,-12.828125 5.398438,-16.632812 5.484375,-20.875 c 0.09375,-4.238281 1.101563,-8 3.03125,-11.28125 1.9375,-3.289062 4.648437,-5.835938 8.140625,-7.640625 3.488281,-1.800781 7.53125,-2.648437 12.125,-2.546875 z M 28.5625,-32.0625 c -2.179688,-0.05078 -4.078125,0.386719 -5.703125,1.3125 -1.625,0.917969 -2.890625,2.246094 -3.796875,3.984375 -0.898438,1.742187 -1.371094,3.789063 -1.421875,6.140625 -0.04297,2.367188 0.347656,4.4375 1.171875,6.21875 0.820312,1.773438 2.023438,3.152344 3.609375,4.140625 1.59375,0.980469 3.476563,1.496094 5.65625,1.546875 2.1875,0.042969 4.085937,-0.394531 5.703125,-1.3125 1.613281,-0.914062 2.867188,-2.242188 3.765625,-3.984375 0.90625,-1.738281 1.378906,-3.789063 1.421875,-6.15625 0.05078,-2.351563 -0.335938,-4.414063 -1.15625,-6.1875 -0.824219,-1.78125 -2.027344,-3.164063 -3.609375,-4.15625 C 32.628906,-31.503906 30.75,-32.019531 28.5625,-32.0625 Z m 0,0"
                     id="path94" />
                </g>
              </g>
            </g>
            <g
               fill="#8c3d5a"
               fill-opacity="1"
               id="g100"
               transform="translate(-2.936111,-197.09417)">
              <g
                 transform="translate(757.24854,381.61191)"
                 id="g99">
                <g
                   id="g98">
                  <path
                     d="m 46.78125,-39.75 c 2.78125,0.199219 4.890625,1.492188 6.328125,3.875 1.445313,2.375 2.003906,5.871094 1.671875,10.484375 L 52.921875,0.875 c -0.07422,1.03125 -0.34375,1.75 -0.8125,2.15625 -0.460937,0.40625 -1.203125,0.570312 -2.234375,0.5 L 44.25,3.140625 c -1.023438,-0.074219 -1.742188,-0.34375 -2.15625,-0.8125 -0.40625,-0.46875 -0.574219,-1.21875 -0.5,-2.25 l 1.671875,-23.6875 c 0.113281,-1.59375 0.0078,-2.78125 -0.3125,-3.5625 -0.3125,-0.78125 -0.875,-1.203125 -1.6875,-1.265625 -1.417969,-0.101562 -2.621094,0.917969 -3.609375,3.0625 -0.992188,2.148438 -1.636719,5.335938 -1.9375,9.5625 L 34.625,-0.421875 c -0.07422,1.03125 -0.34375,1.75 -0.8125,2.15625 -0.46875,0.40625 -1.214844,0.570313 -2.234375,0.5 l -5.625,-0.390625 c -1.03125,-0.074219 -1.75,-0.34375 -2.15625,-0.8125 -0.40625,-0.46875 -0.574219,-1.21875 -0.5,-2.25 l 1.671875,-23.6875 c 0.113281,-1.59375 0.0078,-2.78125 -0.3125,-3.5625 -0.3125,-0.78125 -0.875,-1.203125 -1.6875,-1.265625 -1.429688,-0.101563 -2.636719,0.917969 -3.625,3.0625 -0.980469,2.148437 -1.621094,5.335937 -1.921875,9.5625 l -1.09375,15.390625 c -0.07422,1.03125 -0.34375,1.75 -0.8125,2.15625 -0.46875,0.40625 -1.214844,0.570312 -2.234375,0.5 L 7.65625,0.546875 C 6.625,0.472656 5.90625,0.203125 5.5,-0.265625 5.09375,-0.734375 4.925781,-1.484375 5,-2.515625 l 2.109375,-29.71875 -2.578125,-0.1875 C 3.8125,-32.472656 3.257812,-32.628906 2.875,-32.890625 2.5,-33.160156 2.234375,-33.632812 2.078125,-34.3125 1.929688,-34.988281 1.90625,-35.960938 2,-37.234375 c 0.082031,-1.269531 0.242188,-2.226563 0.484375,-2.875 0.25,-0.644531 0.582031,-1.082031 1,-1.3125 0.414063,-0.226563 0.984375,-0.316406 1.703125,-0.265625 l 7.875,0.5625 c 1.03125,0.07422 1.75,0.34375 2.15625,0.8125 0.40625,0.46875 0.570312,1.214844 0.5,2.234375 L 15.25,-31.5625 c 1.675781,-3.3125 3.53125,-5.769531 5.5625,-7.375 2.039062,-1.613281 4.207031,-2.34375 6.5,-2.1875 4.46875,0.324219 7.140625,3.589844 8.015625,9.796875 1.59375,-2.914063 3.363281,-5.082031 5.3125,-6.5 1.945313,-1.425781 3.992187,-2.066406 6.140625,-1.921875 z m 0,0"
                     id="path97" />
                </g>
              </g>
            </g>
            <g
               fill="#8c3d5a"
               fill-opacity="1"
               id="g103"
               transform="translate(-2.936111,-197.09417)">
              <g
                 transform="translate(806.56056,384.95019)"
                 id="g102">
                <g
                   id="g101">
                  <path
                     d="m 36.703125,-38.828125 c 3.9375,0.480469 7.257813,1.859375 9.96875,4.140625 2.71875,2.273438 4.660156,5.15625 5.828125,8.65625 1.164062,3.5 1.5,7.292969 1,11.375 -0.492188,4.09375 -1.71875,7.699219 -3.6875,10.8125 -1.960938,3.105469 -4.53125,5.441406 -7.71875,7.015625 C 38.914062,4.742188 35.359375,5.289062 31.421875,4.8125 29.085938,4.53125 26.96875,3.804688 25.0625,2.640625 c -1.898438,-1.15625 -3.511719,-2.6875 -4.84375,-4.59375 L 18.703125,10.625 26.21875,11.546875 c 0.726562,0.08203 1.273438,0.265625 1.640625,0.546875 0.363281,0.289062 0.597656,0.78125 0.703125,1.46875 0.113281,0.6875 0.09766,1.660156 -0.04687,2.921875 -0.15625,1.257813 -0.371094,2.207031 -0.640625,2.84375 -0.273438,0.632813 -0.621094,1.054687 -1.046875,1.265625 -0.417969,0.21875 -0.992187,0.285156 -1.71875,0.203125 l -22.703125,-2.75 C 1.675781,17.960938 1.128906,17.769531 0.765625,17.46875 0.398438,17.175781 0.160156,16.6875 0.046875,16 -0.0546875,15.320312 -0.0351562,14.351562 0.109375,13.09375 0.265625,11.832031 0.476562,10.878906 0.75,10.234375 1.019531,9.597656 1.363281,9.175781 1.78125,8.96875 2.207031,8.769531 2.785156,8.710938 3.515625,8.796875 L 7.421875,9.265625 12.34375,-31.40625 8.4375,-31.875 c -0.730469,-0.08203 -1.277344,-0.269531 -1.640625,-0.5625 -0.367187,-0.289062 -0.605469,-0.773438 -0.71875,-1.453125 -0.105469,-0.6875 -0.085937,-1.660156 0.0625,-2.921875 0.15625,-1.257812 0.367187,-2.207031 0.640625,-2.84375 0.28125,-0.644531 0.628906,-1.066406 1.046875,-1.265625 0.414063,-0.207031 0.988281,-0.269531 1.71875,-0.1875 l 10.546875,1.28125 c 1.019531,0.117187 1.722656,0.421875 2.109375,0.921875 0.382813,0.492188 0.515625,1.246094 0.390625,2.265625 l -0.453125,3.78125 c 1.851563,-2.21875 4.03125,-3.851563 6.53125,-4.90625 2.5,-1.050781 5.175781,-1.40625 8.03125,-1.0625 z m -3.03125,10 c -1.929687,-0.226563 -3.726563,0.01563 -5.390625,0.734375 -1.667969,0.71875 -3.074219,1.902344 -4.21875,3.546875 -1.148438,1.636719 -1.867188,3.65625 -2.15625,6.0625 -0.292969,2.40625 -0.07813,4.546875 0.640625,6.421875 0.71875,1.875 1.800781,3.355469 3.25,4.4375 1.457031,1.085938 3.148437,1.742188 5.078125,1.96875 1.863281,0.230469 3.546875,-0.039062 5.046875,-0.8125 1.5,-0.78125 2.71875,-2 3.65625,-3.65625 0.945313,-1.65625 1.5625,-3.65625 1.84375,-6 0.28125,-2.34375 0.160156,-4.429688 -0.359375,-6.265625 -0.523438,-1.832031 -1.417969,-3.304687 -2.6875,-4.421875 -1.273438,-1.113281 -2.839844,-1.785156 -4.703125,-2.015625 z m 0,0"
                     id="path100" />
                </g>
              </g>
            </g>
            <g
               fill="#8c3d5a"
               fill-opacity="1"
               id="g106"
               transform="translate(-2.936111,-197.09417)">
              <g
                 transform="translate(855.64687,390.72852)"
                 id="g105">
                <g
                   id="g104">
                  <path
                     d="m 50.453125,-33.90625 c 1.019531,0.179688 1.707031,0.523438 2.0625,1.03125 0.363281,0.5 0.457031,1.257812 0.28125,2.265625 L 47.765625,-1.25 51.21875,-0.65625 c 0.71875,0.125 1.242188,0.34375 1.578125,0.65625 0.34375,0.300781 0.554687,0.796875 0.640625,1.484375 0.08203,0.6875 0.01953,1.65625 -0.1875,2.90625 -0.21875,1.257813 -0.484375,2.203125 -0.796875,2.828125 -0.3125,0.625 -0.683594,1.023438 -1.109375,1.203125 -0.417969,0.1875 -0.984375,0.21875 -1.703125,0.09375 L 39.609375,6.796875 C 38.585938,6.617188 37.898438,6.273438 37.546875,5.765625 37.191406,5.265625 37.101562,4.507812 37.28125,3.5 L 38.390625,-3 C 33.265625,3.1875 27.75,5.773438 21.84375,4.765625 19.125,4.296875 16.847656,3.285156 15.015625,1.734375 c -1.835937,-1.542969 -3.117187,-3.5 -3.84375,-5.875 -0.730469,-2.382813 -0.839844,-5.054687 -0.328125,-8.015625 l 3.171875,-18.578125 -3.453125,-0.59375 c -0.710938,-0.113281 -1.234375,-0.328125 -1.578125,-0.640625 -0.34375,-0.320312 -0.558594,-0.828125 -0.640625,-1.515625 -0.085938,-0.6875 -0.015625,-1.660156 0.203125,-2.921875 0.21875,-1.25 0.476563,-2.1875 0.78125,-2.8125 0.300781,-0.625 0.664063,-1.019531 1.09375,-1.1875 0.4375,-0.164062 1.007813,-0.191406 1.71875,-0.07813 l 11.828125,2.03125 c 1.007812,0.179687 1.695312,0.523437 2.0625,1.03125 0.363281,0.5 0.457031,1.257813 0.28125,2.265625 L 22.484375,-12.875 c -0.398437,2.335938 -0.296875,4.167969 0.296875,5.5 0.601562,1.335938 1.847656,2.164062 3.734375,2.484375 1.71875,0.292969 3.476563,-0.148437 5.28125,-1.328125 1.800781,-1.1875 3.378906,-2.910156 4.734375,-5.171875 1.351562,-2.257813 2.265625,-4.757813 2.734375,-7.5 l 1.25,-7.296875 L 35.734375,-27 c -0.71875,-0.125 -1.25,-0.34375 -1.59375,-0.65625 -0.34375,-0.320312 -0.558594,-0.828125 -0.640625,-1.515625 -0.08594,-0.6875 -0.01563,-1.660156 0.203125,-2.921875 0.21875,-1.25 0.476563,-2.1875 0.78125,-2.8125 0.300781,-0.625 0.664063,-1.019531 1.09375,-1.1875 0.4375,-0.164062 1.015625,-0.1875 1.734375,-0.0625 z m 0,0"
                     id="path103" />
                </g>
              </g>
            </g>
          </g>
          <g
             fill="#8c3d5a"
             fill-opacity="1"
             id="g109"
             transform="translate(-2.936111,-197.09417)">
            <g
               transform="translate(904.38571,398.93388)"
               id="g108">
              <g
                 id="g107">
                <path
                   d="m 33.453125,-48.796875 c 1.382813,0.3125 2.429687,0.652344 3.140625,1.015625 0.707031,0.355469 1.164062,0.761719 1.375,1.21875 0.207031,0.460938 0.234375,1.039062 0.07813,1.734375 l -2.78125,12.5 16.453125,3.671875 c 1.03125,0.230469 1.675781,0.730469 1.9375,1.5 0.269531,0.773438 0.195312,2.074219 -0.21875,3.90625 -0.40625,1.824219 -0.890625,3.027344 -1.453125,3.609375 -0.5625,0.574219 -1.359375,0.746094 -2.390625,0.515625 l -16.453125,-3.671875 -2.75,12.328125 c -1.09375,4.898438 0.265625,7.765625 4.078125,8.609375 1.363281,0.304687 3.019531,0.355469 4.96875,0.15625 1.957031,-0.195313 4.265625,-0.566406 6.921875,-1.109375 0.71875,-0.132812 1.269531,-0.160156 1.65625,-0.078125 0.625,0.148437 1.140625,0.539063 1.546875,1.171875 0.414062,0.636719 0.726562,1.601562 0.9375,2.890625 0.238281,1.445313 0.265625,2.582031 0.07813,3.40625 C 50.429688,5.234375 50.15625,5.738281 49.75,6.09375 c -0.40625,0.363281 -0.953125,0.640625 -1.640625,0.828125 -6.78125,1.707031 -12.40625,2.0625 -16.875,1.0625 C 26.109375,6.835938 22.507812,4.53125 20.4375,1.0625 18.375,-2.40625 17.953125,-6.882812 19.171875,-12.375 L 22.0625,-25.28125 13.515625,-27.1875 c -1.042969,-0.226562 -1.699219,-0.722656 -1.96875,-1.484375 -0.261719,-0.757813 -0.1875,-2.050781 0.21875,-3.875 0.414063,-1.832031 0.90625,-3.039063 1.46875,-3.625 0.5625,-0.59375 1.363281,-0.773437 2.40625,-0.546875 l 8.546875,1.90625 2.78125,-12.5 c 0.226562,-1 0.835938,-1.613281 1.828125,-1.84375 1,-0.226562 2.550781,-0.109375 4.65625,0.359375 z m 0,0"
                   id="path106" />
              </g>
            </g>
          </g>
          <g
             fill="#8c3d5a"
             fill-opacity="1"
             id="g112"
             transform="translate(-2.936111,-197.09417)">
            <g
               transform="translate(952.65823,409.54394)"
               id="g111">
              <g
                 id="g110">
                <path
                   d="m 38.90625,-33.828125 c 4.4375,1.230469 7.953125,3.230469 10.546875,6 2.601563,2.761719 4.234375,6.0625 4.890625,9.90625 0.65625,3.84375 0.378906,7.949219 -0.828125,12.3125 -0.273437,1 -0.679687,1.652344 -1.21875,1.953125 C 51.753906,-3.363281 50.988281,-3.351562 50,-3.625 l -28.109375,-7.75 c -0.09375,2.46875 0.597656,4.578125 2.078125,6.328125 1.476562,1.742187 3.617188,2.996094 6.421875,3.765625 4.53125,1.25 9.660156,1.800781 15.390625,1.65625 0.382812,-0.011719 0.75,0.03125 1.09375,0.125 0.632812,0.175781 1.101562,0.617188 1.40625,1.328125 0.3125,0.707031 0.46875,1.8125 0.46875,3.3125 -0.01172,1.175781 -0.121094,2.144531 -0.328125,2.90625 -0.210937,0.75 -0.542969,1.285156 -1,1.609375 C 46.972656,9.988281 46.335938,10.1875 45.515625,10.25 42.316406,10.40625 39.125,10.34375 35.9375,10.0625 32.757812,9.78125 29.707031,9.238281 26.78125,8.4375 22.34375,7.207031 18.769531,5.242188 16.0625,2.546875 13.351562,-0.140625 11.597656,-3.3125 10.796875,-6.96875 c -0.792969,-3.664062 -0.621094,-7.5625 0.515625,-11.6875 1.125,-4.082031 3.003906,-7.484375 5.640625,-10.203125 2.632813,-2.726563 5.847656,-4.539063 9.640625,-5.4375 3.800781,-0.894531 7.90625,-0.738281 12.3125,0.46875 z m -2.734375,9.921875 c -5.34375,-1.46875 -9.261719,-0.125 -11.75,4.03125 l 19.265625,5.3125 c 0.09375,-2.257812 -0.511719,-4.207031 -1.8125,-5.84375 -1.292969,-1.632812 -3.195312,-2.800781 -5.703125,-3.5 z m 0,0"
                   id="path109" />
              </g>
            </g>
          </g>
          <g
             fill="#8c3d5a"
             fill-opacity="1"
             id="g115"
             transform="translate(-2.936111,-197.09417)">
            <g
               transform="translate(1000.3235,422.52689)"
               id="g114">
              <g
                 id="g113">
                <path
                   d="m 53.421875,-27.609375 c 2.445313,0.8125 4.488281,2.375 6.125,4.6875 0.945313,1.34375 1.175781,2.765625 0.6875,4.265625 -0.3125,0.9375 -0.9375,1.976562 -1.875,3.109375 -0.949219,1.117187 -1.855469,1.898437 -2.71875,2.34375 -0.867187,0.449219 -1.65625,0.554687 -2.375,0.3125 -0.40625,-0.125 -0.796875,-0.382813 -1.171875,-0.78125 -1.3125,-1.414063 -2.835938,-2.40625 -4.5625,-2.96875 -2.210938,-0.738281 -4.515625,-0.71875 -6.921875,0.0625 -2.398437,0.773437 -4.585937,2.203125 -6.5625,4.296875 -1.96875,2.085938 -3.460937,4.652344 -4.46875,7.703125 l -1.34375,4.09375 12.375,4.078125 c 0.695313,0.226562 1.1875,0.523438 1.46875,0.890625 0.289063,0.375 0.425781,0.90625 0.40625,1.59375 -0.02344,0.6875 -0.230469,1.640625 -0.625,2.859375 -0.398437,1.207031 -0.792969,2.09375 -1.1875,2.65625 -0.398437,0.5625 -0.820313,0.898438 -1.265625,1.015625 -0.449219,0.113281 -1.023438,0.05469 -1.71875,-0.171875 L 8.1875,2.703125 C 7.5,2.472656 7.003906,2.179688 6.703125,1.828125 c -0.292969,-0.355469 -0.429687,-0.875 -0.40625,-1.5625 0.019531,-0.6875 0.226563,-1.632813 0.625,-2.84375 0.394531,-1.21875 0.789063,-2.109375 1.1875,-2.671875 0.394531,-0.5625 0.820313,-0.90625 1.28125,-1.03125 0.457031,-0.132812 1.03125,-0.085938 1.71875,0.140625 l 6.34375,2.09375 7.3125,-22.171875 -5.046875,-1.671875 c -0.6875,-0.21875 -1.183594,-0.5 -1.484375,-0.84375 -0.304687,-0.351563 -0.445313,-0.878906 -0.421875,-1.578125 0.01953,-0.695312 0.234375,-1.648438 0.640625,-2.859375 0.394531,-1.207031 0.789063,-2.09375 1.1875,-2.65625 0.394531,-0.570313 0.816406,-0.914063 1.265625,-1.03125 0.457031,-0.125 1.03125,-0.07813 1.71875,0.140625 l 11.828125,3.90625 c 0.976563,0.324219 1.601563,0.761719 1.875,1.3125 0.28125,0.554688 0.257813,1.320312 -0.0625,2.296875 l -3.078125,9.34375 c 3.519531,-3.445313 7.050781,-5.835937 10.59375,-7.171875 3.550781,-1.332031 6.765625,-1.523438 9.640625,-0.578125 z m 0,0"
                   id="path112" />
              </g>
            </g>
          </g>
        </g>
        <g
           id="g51">
          <g
             fill="#8c3d5a"
             fill-opacity="1"
             id="g121"
             transform="translate(-2.936111,-197.09417)">
            <g
               transform="translate(1093.497,455.521)"
               id="g120">
              <g
                 id="g119">
                <path
                   d="m 46.484375,-26.359375 c 3.625,1.617187 6.398437,3.914063 8.328125,6.890625 1.925781,2.96875 2.929688,6.296875 3.015625,9.984375 0.08203,3.679687 -0.710937,7.398437 -2.375,11.15625 -1.679687,3.769531 -3.914063,6.851563 -6.703125,9.25 -2.78125,2.40625 -5.921875,3.890625 -9.421875,4.453125 -3.5,0.5625 -7.0625,0.03516 -10.6875,-1.578125 C 26.484375,12.847656 24.664062,11.539062 23.1875,9.875 21.707031,8.207031 20.613281,6.269531 19.90625,4.0625 L 14.765625,15.640625 21.6875,18.71875 c 0.664062,0.300781 1.128906,0.640625 1.390625,1.015625 0.257813,0.375 0.34375,0.90625 0.25,1.59375 -0.09375,0.695313 -0.398437,1.628906 -0.90625,2.796875 -0.523437,1.15625 -1.007813,1.992188 -1.453125,2.515625 -0.4375,0.53125 -0.890625,0.835937 -1.359375,0.921875 -0.46875,0.08203 -1.039063,-0.02734 -1.703125,-0.328125 L -3,17.953125 c -0.664062,-0.292969 -1.128906,-0.632813 -1.390625,-1.015625 -0.257813,-0.386719 -0.34375,-0.921875 -0.25,-1.609375 0.09375,-0.6875 0.402344,-1.617187 0.921875,-2.78125 0.511719,-1.15625 0.992188,-2 1.4375,-2.53125 0.449219,-0.53125 0.90625,-0.835937 1.375,-0.90625 0.460938,-0.074219 1.019531,0.035156 1.6875,0.328125 L 4.375,11.03125 21,-26.40625 17.40625,-28 c -0.667969,-0.289062 -1.132812,-0.625 -1.390625,-1 -0.261719,-0.382812 -0.34375,-0.921875 -0.25,-1.609375 0.09375,-0.6875 0.394531,-1.613281 0.90625,-2.78125 0.519531,-1.15625 1.003906,-2 1.453125,-2.53125 0.445312,-0.53125 0.898438,-0.832031 1.359375,-0.90625 0.46875,-0.07031 1.035156,0.03906 1.703125,0.328125 l 9.703125,4.3125 c 0.945313,0.417969 1.53125,0.917969 1.75,1.5 0.226563,0.574219 0.128906,1.328125 -0.296875,2.265625 l -1.546875,3.484375 c 2.425781,-1.570312 4.988281,-2.492188 7.6875,-2.765625 2.707031,-0.269531 5.375,0.179687 8,1.34375 z m -5.84375,8.671875 c -1.773437,-0.78125 -3.5625,-1.070312 -5.375,-0.875 -1.804687,0.1875 -3.496094,0.902344 -5.078125,2.140625 -1.574219,1.242187 -2.851562,2.964844 -3.828125,5.171875 -0.992187,2.21875 -1.417969,4.328125 -1.28125,6.328125 0.144531,1.992187 0.753906,3.71875 1.828125,5.1875 1.070312,1.46875 2.492188,2.59375 4.265625,3.375 1.707031,0.757813 3.390625,0.988281 5.046875,0.6875 1.664062,-0.304687 3.191406,-1.105469 4.578125,-2.40625 1.394531,-1.304687 2.570313,-3.03125 3.53125,-5.1875 0.957031,-2.15625 1.453125,-4.1875 1.484375,-6.09375 0.03906,-1.914063 -0.386719,-3.59375 -1.28125,-5.03125 -0.886719,-1.4375 -2.183594,-2.535156 -3.890625,-3.296875 z m 0,0"
                   id="path118" />
              </g>
            </g>
          </g>
          <g
             fill="#8c3d5a"
             fill-opacity="1"
             id="g124"
             transform="translate(-2.936111,-197.09417)">
            <g
               transform="translate(1138.732,475.43569)"
               id="g123">
              <g
                 id="g122">
                <path
                   d="m 44.8125,-25.5 c 4.113281,2.085938 7.171875,4.742188 9.171875,7.96875 2,3.21875 2.9375,6.777344 2.8125,10.671875 -0.117187,3.898437 -1.195313,7.867187 -3.234375,11.921875 -0.46875,0.914062 -1,1.460938 -1.59375,1.640625 C 51.382812,6.878906 50.640625,6.738281 49.734375,6.28125 L 23.703125,-6.859375 c -0.574219,2.417969 -0.308594,4.632813 0.796875,6.640625 1.113281,2 2.96875,3.648438 5.5625,4.953125 4.195312,2.125 9.113281,3.675781 14.75,4.65625 0.375,0.0625 0.722656,0.171875 1.046875,0.328125 0.59375,0.300781 0.96875,0.832031 1.125,1.59375 0.15625,0.757812 0.08594,1.875 -0.203125,3.34375 -0.242188,1.132812 -0.539062,2.054688 -0.890625,2.765625 -0.355469,0.695313 -0.789063,1.160156 -1.296875,1.390625 -0.511719,0.238281 -1.179688,0.304688 -2,0.203125 C 39.4375,18.535156 36.320312,17.84375 33.25,16.9375 c -3.0625,-0.90625 -5.949219,-2.042969 -8.65625,-3.40625 -4.105469,-2.074219 -7.226562,-4.699219 -9.359375,-7.875 -2.125,-3.167969 -3.21875,-6.617188 -3.28125,-10.359375 -0.05469,-3.75 0.882813,-7.53125 2.8125,-11.34375 1.914063,-3.78125 4.429687,-6.75 7.546875,-8.90625 3.125,-2.15625 6.632812,-3.296875 10.53125,-3.421875 3.894531,-0.132812 7.882812,0.824219 11.96875,2.875 z m -4.640625,9.1875 c -4.949219,-2.488281 -9.054687,-1.945312 -12.3125,1.625 L 45.6875,-5.671875 c 0.539062,-2.195313 0.335938,-4.222656 -0.609375,-6.078125 -0.949219,-1.863281 -2.585937,-3.382812 -4.90625,-4.5625 z m 0,0"
                   id="path121" />
              </g>
            </g>
          </g>
          <g
             fill="#8c3d5a"
             fill-opacity="1"
             id="g127"
             transform="translate(-2.936111,-197.09417)">
            <g
               transform="translate(1182.9244,497.56938)"
               id="g126">
              <g
                 id="g125">
                <path
                   d="m 45.46875,-23.5625 c 4,2.273438 7.035156,5.078125 9.109375,8.421875 2.070313,3.335937 3.09375,6.914063 3.0625,10.734375 -0.02344,3.8125 -1.078125,7.5625 -3.171875,11.25 -2.09375,3.675781 -4.777344,6.503906 -8.046875,8.484375 -3.273437,1.976563 -6.871094,2.925781 -10.796875,2.84375 -3.929688,-0.07422 -7.890625,-1.246094 -11.890625,-3.515625 -4,-2.273438 -7.039063,-5.078125 -9.109375,-8.421875 -2.074219,-3.335937 -3.09375,-6.90625 -3.0625,-10.71875 0.03906,-3.820313 1.109375,-7.570313 3.203125,-11.25 2.09375,-3.6875 4.769531,-6.519531 8.03125,-8.5 3.257813,-1.976563 6.851563,-2.925781 10.78125,-2.84375 3.925781,0.07422 7.890625,1.246094 11.890625,3.515625 z m -5.09375,8.953125 c -1.898438,-1.070313 -3.777344,-1.59375 -5.640625,-1.5625 -1.867187,0.03125 -3.609375,0.601563 -5.234375,1.703125 -1.617188,1.105469 -3.007812,2.683594 -4.171875,4.734375 -1.167969,2.054687 -1.8125,4.058594 -1.9375,6.015625 -0.117187,1.949219 0.289063,3.734375 1.21875,5.359375 0.925781,1.625 2.335937,2.972656 4.234375,4.046875 1.894531,1.082031 3.773438,1.601562 5.640625,1.5625 1.863281,-0.03125 3.601563,-0.601562 5.21875,-1.703125 1.613281,-1.09375 3.003906,-2.667969 4.171875,-4.71875 1.164062,-2.050781 1.8125,-4.054687 1.9375,-6.015625 0.125,-1.957031 -0.277344,-3.742188 -1.203125,-5.359375 -0.929687,-1.625 -2.339844,-2.976563 -4.234375,-4.0625 z m 0,0"
                   id="path124" />
              </g>
            </g>
          </g>
          <g
             fill="#8c3d5a"
             fill-opacity="1"
             id="g130"
             transform="translate(-2.936111,-197.09417)">
            <g
               transform="translate(1225.9655,521.8651)"
               id="g129">
              <g
                 id="g128">
                <path
                   d="m 49.875,-19.171875 c 3.34375,2.125 5.742188,4.804687 7.203125,8.03125 1.46875,3.230469 1.972656,6.671875 1.515625,10.328125 -0.460938,3.65625 -1.792969,7.21875 -4,10.6875 -2.21875,3.476562 -4.886719,6.195312 -8,8.15625 -3.117188,1.957031 -6.445312,2.957031 -9.984375,3 -3.542969,0.03906 -6.984375,-1 -10.328125,-3.125 -1.992188,-1.261719 -3.59375,-2.828125 -4.8125,-4.703125 -1.21875,-1.867187 -2.015625,-3.9375 -2.390625,-6.21875 l -6.8125,10.6875 6.40625,4.0625 c 0.613281,0.394531 1.023437,0.800781 1.234375,1.21875 0.207031,0.414063 0.210938,0.953125 0.01563,1.609375 -0.199219,0.664062 -0.636719,1.535156 -1.3125,2.609375 -0.6875,1.0625 -1.292969,1.820313 -1.8125,2.28125 -0.523437,0.46875 -1.023437,0.707031 -1.5,0.71875 -0.46875,0.0078 -1.011719,-0.183594 -1.625,-0.578125 L -5.625,17.3125 c -0.625,-0.386719 -1.035156,-0.792969 -1.234375,-1.21875 -0.195313,-0.417969 -0.195313,-0.960938 0,-1.625 0.1875,-0.667969 0.625,-1.539062 1.3125,-2.609375 C -4.867188,10.785156 -4.269531,10.019531 -3.75,9.5625 -3.226562,9.101562 -2.734375,8.875 -2.265625,8.875 -1.796875,8.875 -1.25,9.066406 -0.625,9.453125 l 3.3125,2.125 22,-34.5625 -3.3125,-2.125 c -0.625,-0.382813 -1.042969,-0.785156 -1.25,-1.203125 -0.199219,-0.414062 -0.203125,-0.957031 -0.01563,-1.625 0.195313,-0.664062 0.640625,-1.535156 1.328125,-2.609375 0.675781,-1.070313 1.273438,-1.835937 1.796875,-2.296875 0.519531,-0.457031 1.015625,-0.6875 1.484375,-0.6875 0.46875,0 1.015625,0.195312 1.640625,0.578125 L 35.3125,-27.25 c 0.875,0.554688 1.378906,1.136719 1.515625,1.75 0.132813,0.605469 -0.07422,1.339844 -0.625,2.203125 l -2.046875,3.21875 c 2.625,-1.207031 5.289062,-1.742187 8,-1.609375 2.71875,0.136719 5.289062,0.976562 7.71875,2.515625 z m -7.0625,7.71875 c -1.636719,-1.039063 -3.367188,-1.597656 -5.1875,-1.671875 -1.8125,-0.08203 -3.589844,0.371094 -5.328125,1.359375 -1.730469,0.992187 -3.246094,2.507813 -4.546875,4.546875 -1.304688,2.054688 -2.039062,4.078125 -2.203125,6.078125 C 25.378906,0.847656 25.71875,2.644531 26.5625,4.25 c 0.84375,1.613281 2.082031,2.941406 3.71875,3.984375 1.582031,1 3.21875,1.472656 4.90625,1.421875 1.6875,-0.054688 3.3125,-0.625 4.875,-1.71875 1.570312,-1.085938 2.992188,-2.621094 4.265625,-4.609375 1.257813,-1.992187 2.050781,-3.921875 2.375,-5.796875 0.320313,-1.882812 0.148437,-3.601562 -0.515625,-5.15625 -0.667969,-1.550781 -1.792969,-2.828125 -3.375,-3.828125 z m 0,0"
                   id="path127" />
              </g>
            </g>
          </g>
          <g
             fill="#8c3d5a"
             fill-opacity="1"
             id="g133"
             transform="translate(-2.936111,-197.09417)">
            <g
               transform="translate(1267.7492,548.26546)"
               id="g132">
              <g
                 id="g131">
                <path
                   d="m 59.625,-30.78125 c 0.84375,0.59375 1.316406,1.199219 1.421875,1.8125 0.101563,0.617188 -0.140625,1.34375 -0.734375,2.1875 l -27.40625,38.6875 10.421875,7.375 c 0.59375,0.425781 0.972656,0.851562 1.140625,1.28125 0.175781,0.4375 0.148438,0.984375 -0.07813,1.640625 -0.21875,0.65625 -0.699219,1.503906 -1.4375,2.546875 -0.730469,1.039062 -1.371094,1.773438 -1.921875,2.203125 -0.542969,0.425781 -1.042969,0.625 -1.5,0.59375 -0.460933,-0.02344 -0.98437,-0.246094 -1.57812,-0.671875 L 8.140625,5.765625 C 7.554688,5.347656 7.171875,4.925781 6.984375,4.5 6.804688,4.082031 6.828125,3.546875 7.046875,2.890625 7.273438,2.234375 7.753906,1.382812 8.484375,0.34375 c 0.738281,-1.039062 1.378906,-1.773438 1.921875,-2.203125 0.550781,-0.425781 1.0625,-0.628906 1.53125,-0.609375 0.46875,0.011719 0.992188,0.226562 1.578125,0.640625 l 10.125,7.171875 23.671875,-33.421875 -8.625,-6.109375 c -0.59375,-0.425781 -0.980469,-0.851562 -1.15625,-1.28125 -0.179688,-0.425781 -0.152344,-0.96875 0.07813,-1.625 0.226563,-0.65625 0.707031,-1.503906 1.4375,-2.546875 0.738281,-1.03125 1.378906,-1.757813 1.921875,-2.1875 0.539062,-0.4375 1.046875,-0.644531 1.515625,-0.625 0.46875,0.01172 1,0.230469 1.59375,0.65625 z m 0,0"
                   id="path130" />
              </g>
            </g>
          </g>
          <g
             fill="#8c3d5a"
             fill-opacity="1"
             id="g136"
             transform="translate(-2.936111,-197.09417)">
            <g
               transform="translate(1308.1723,576.70435)"
               id="g135">
              <g
                 id="g134">
                <path
                   d="m 48.953125,-16.171875 c 3.625,2.84375 6.097656,6.046875 7.421875,9.609375 1.320312,3.5625 1.539062,7.238281 0.65625,11.03125 -0.875,3.789062 -2.714844,7.46875 -5.515625,11.03125 -0.636719,0.8125 -1.261719,1.25 -1.875,1.3125 -0.617187,0.07031 -1.324219,-0.210938 -2.125,-0.84375 l -22.921875,-18 c -1.042969,2.25 -1.21875,4.460938 -0.53125,6.640625 0.695312,2.175781 2.1875,4.160156 4.46875,5.953125 3.695312,2.90625 8.210938,5.394531 13.546875,7.46875 0.363281,0.132812 0.679687,0.3125 0.953125,0.53125 0.53125,0.414062 0.796875,1.007812 0.796875,1.78125 0.0078,0.769531 -0.277344,1.847656 -0.859375,3.234375 C 42.519531,24.648438 42.050781,25.5 41.5625,26.125 41.070312,26.738281 40.550781,27.109375 40,27.234375 c -0.542969,0.125 -1.203125,0.05469 -1.984375,-0.203125 -3,-1.09375 -5.917969,-2.386719 -8.75,-3.875 -2.835937,-1.492188 -5.445313,-3.171875 -7.828125,-5.046875 -3.617188,-2.84375 -6.152344,-6.03125 -7.609375,-9.5625 -1.460937,-3.523437 -1.851563,-7.125 -1.171875,-10.8125 0.6875,-3.6875 2.351562,-7.207031 5,-10.5625 2.613281,-3.332031 5.660156,-5.75 9.140625,-7.25 3.476563,-1.5 7.140625,-1.925781 10.984375,-1.28125 3.851562,0.636719 7.578125,2.367187 11.171875,5.1875 z m -6.359375,8.09375 C 38.238281,-11.492188 34.101562,-11.769531 30.1875,-8.90625 L 45.90625,3.453125 c 0.96875,-2.0625 1.171875,-4.09375 0.609375,-6.09375 -0.5625,-2.007813 -1.871094,-3.820313 -3.921875,-5.4375 z m 0,0"
                   id="path133" />
              </g>
            </g>
          </g>
        </g>
      </g>
    </g>
  </g>
</svg>
